<svg width="158" height="36" viewBox="0 0 158 36" fill="none" xmlns="http://www.w3.org/2000/svg">
<path d="M126.029 23.0626C127.776 23.0626 129.522 22.5611 130.52 19.1342C131.518 15.7074 130.437 15.2059 128.275 15.2059H126.695L124.449 23.0626H126.029Z" fill="white"/>
<path fill-rule="evenodd" clip-rule="evenodd" d="M119.876 27.4088H152.224C153.305 27.4088 154.303 26.6566 154.636 25.57L157.879 14.1193C158.378 12.4477 157.131 10.8596 155.467 10.8596H123.119C122.038 10.8596 121.04 11.6118 120.707 12.6984L117.464 24.1491C116.965 25.8208 118.213 27.4088 119.876 27.4088ZM136.757 15.206H142.328L142.578 14.2866C142.744 13.7851 142.411 13.3672 141.912 13.3672H135.509L135.01 15.1224L134.096 18.2149L133.597 19.9701L132.682 23.0627L132.432 23.9821C132.266 24.4836 132.599 24.9015 133.098 24.9015H139.584L140.083 23.1463H134.511L135.426 20.0537H140.332L140.831 18.2985H135.925L136.757 15.206ZM125.447 13.6178C126.944 13.4507 127.776 13.4507 128.857 13.4507C132.349 13.4507 133.347 15.5402 132.266 19.2178C131.185 22.7283 128.857 24.9014 125.53 24.9014C124.117 24.9014 123.784 24.9014 122.287 24.7342L124.948 15.4566L125.447 13.6178ZM150.894 13.4507H153.056L147.817 19.3014L149.563 24.9014H147.651L146.403 20.8895L142.911 24.9014H140.832L145.904 19.1342L144.075 13.4507H145.987L147.318 17.5462L150.894 13.4507Z" fill="white"/>
<path d="M73.3903 21.809C72.9745 23.1463 72.2261 24.0657 70.8124 24.0657C69.3987 24.0657 69.1493 23.1463 69.5651 21.809L71.4777 15.206H67.6524L65.7398 21.809C64.7419 25.403 66.1556 27.409 69.8145 27.409C73.4735 27.409 76.0514 25.403 77.1324 21.809L79.0451 15.206H75.2198L73.3903 21.809Z" fill="white"/>
<path d="M93.8471 15.206C92.2671 15.206 90.9366 15.6239 89.7724 16.2925C89.024 15.4567 87.8597 15.206 86.8619 15.206C86.1134 15.206 85.1155 15.3731 84.0345 16.1254C83.9513 16.209 83.9513 16.209 83.8682 16.2925C83.785 15.6239 83.2029 15.206 82.4545 15.206H80.5419L77.0492 27.409H80.8745L82.7871 20.806C83.2029 19.3015 84.284 18.2985 85.2819 18.2985C86.5292 18.2985 87.0282 19.2179 86.6124 20.806L84.6998 27.409H88.525L90.4377 20.806C90.8534 19.4687 91.685 18.2985 93.0987 18.2985C94.5124 18.2985 94.6787 19.4687 94.2629 20.806L92.3503 27.409H96.1755L98.0882 20.806C98.9198 17.2119 97.5061 15.206 93.8471 15.206Z" fill="white"/>
<path d="M51.6861 12.7821C52.0187 11.6955 51.3535 10.8597 50.3556 10.8597H48.4429L44.4513 24.8179C44.0356 26.2388 44.8671 27.3254 46.2808 27.3254H49.8566L50.9377 23.4806H49.025C48.8587 23.4806 48.7756 23.3134 48.7756 23.1463L50.0229 18.8836H50.4387C51.5198 18.8836 52.6008 18.0478 52.8503 16.9612L53.4324 15.0388H51.1871L51.6861 12.7821Z" fill="white"/>
<path d="M61.3324 15.206C60.584 15.206 59.6692 15.3731 58.505 16.1254L59.4198 12.7821C59.7524 11.6955 59.0871 10.8597 58.0893 10.8597H56.1766L51.5198 27.409H55.345L57.2577 20.806C57.6735 19.3015 58.7545 18.2985 59.7524 18.2985C60.9998 18.2985 61.4987 19.2179 61.0829 20.806L59.1703 27.409H62.9956L64.9082 20.806C66.0724 16.4597 63.3282 15.206 61.3324 15.206Z" fill="white"/>
<path d="M34.6387 15.206C33.9735 15.206 33.3082 15.2896 32.6429 15.4567L33.3914 12.7821C33.724 11.6955 33.0587 10.8597 32.0608 10.8597H30.1482L27.1545 21.3075C26.0735 25.1522 27.404 27.409 31.1461 27.409C34.805 27.409 37.4661 25.1522 38.5471 21.3075C39.7114 17.4627 38.2977 15.206 34.6387 15.206ZM32.0608 24.1493C30.6471 24.1493 30.564 22.8955 30.9798 21.3075C31.3956 19.7194 32.3103 18.4657 33.724 18.4657C35.1377 18.4657 35.2208 19.7194 34.805 21.3075C34.3893 22.8955 33.4745 24.1493 32.0608 24.1493Z" fill="white"/>
<path d="M106.737 15.206C106.071 15.206 105.406 15.2896 104.741 15.4567L105.489 12.7821C105.822 11.6955 105.157 10.8597 104.159 10.8597H102.246L99.2524 21.3075C98.1714 25.1522 99.5019 27.409 103.244 27.409C106.903 27.409 109.564 25.1522 110.645 21.3075C111.809 17.4627 110.396 15.206 106.737 15.206ZM104.159 24.1493C102.745 24.1493 102.662 22.8955 103.078 21.3075C103.493 19.7194 104.408 18.4657 105.822 18.4657C107.236 18.4657 107.319 19.7194 106.903 21.3075C106.404 22.8955 105.572 24.1493 104.159 24.1493Z" fill="white"/>
<path d="M43.5366 15.206H41.624L38.1314 27.409H41.9566L44.8672 17.1284C45.1166 16.0418 44.5345 15.206 43.5366 15.206Z" fill="white"/>
<path d="M45.2731 14.0425C46.1754 13.2564 46.4191 12.0536 45.8175 11.356C45.2158 10.6585 43.9967 10.7302 43.0944 11.5164C42.1921 12.3025 41.9484 13.5053 42.5501 14.2029C43.1517 14.9004 44.3709 14.8287 45.2731 14.0425Z" fill="white"/>
<path d="M2.70633 15.9582H2.3737C0.627386 15.9582 -0.370509 14.5373 0.128438 12.7821L1.37581 8.35224H4.9516L2.70633 15.9582Z" fill="white"/>
<path d="M13.6007 8.35224H10.9619L8.96191 15.9582H11.4386C12.8523 15.9582 13.2681 17.0448 12.686 19.1343C12.1039 21.2239 11.0228 22.3104 9.60916 22.3104C8.19547 22.3104 7.77968 21.2239 8.36179 19.1343L12.3534 5.17612C12.8523 3.4209 11.8544 2 10.1081 2H5.70074L0.794419 19.1343C-1.28453 26.3224 1.54284 29.9164 7.44705 29.9164C13.3513 29.9164 18.1744 26.3224 20.2534 19.1343C22.3323 11.9463 19.5881 8.35224 13.6007 8.35224Z" fill="white"/>
<path d="M20.2534 19.1343C22.3323 11.9463 19.5049 8.35224 13.6007 8.35224H10.9619L8.96191 15.9582H11.4386C12.8523 15.9582 13.2681 17.0448 12.686 19.1343" fill="white"/>
</svg>
