<svg width="474" height="240" viewBox="0 0 474 240" fill="none" xmlns="http://www.w3.org/2000/svg">
<path d="M46.3393 5.004H48.2013L50.6373 8.616L53.0733 5.004H54.9353L51.5473 9.834L55.1733 15H53.3113L50.6373 11.038L47.9633 15H46.1013L49.6993 9.834L46.3393 5.004ZM55.4561 5.004H63.6461V6.306H60.3141V15H58.8021V6.306H55.4561V5.004ZM67.723 5.004H69.459L73.309 15H71.671L70.733 12.424H66.435L65.497 15H63.873L67.723 5.004ZM66.897 11.164H70.271L68.619 6.642H68.563L66.897 11.164ZM74.2866 5.004H78.7106C79.7373 5.004 80.54 5.23267 81.1186 5.69C81.7346 6.194 82.0426 6.91733 82.0426 7.86C82.0426 8.38267 81.9026 8.84933 81.6226 9.26C81.3053 9.708 80.8713 10.002 80.3206 10.142V10.17C81.2073 10.366 81.7066 10.954 81.8186 11.934L81.9866 13.53C82.0426 14.146 82.2386 14.636 82.5746 15H80.9226C80.6893 14.7013 80.5446 14.2627 80.4886 13.684L80.3626 12.438C80.3066 11.8967 80.1293 11.4953 79.8306 11.234C79.532 10.9913 79.0933 10.87 78.5146 10.87H75.8126V15H74.2866V5.004ZM75.8126 6.306V9.568H78.5146C79.1773 9.568 79.6813 9.42333 80.0266 9.134C80.3533 8.854 80.5166 8.448 80.5166 7.916C80.5166 7.36533 80.358 6.95933 80.0406 6.698C79.714 6.43667 79.2006 6.306 78.5006 6.306H75.8126ZM88.782 5.83V15.574H87.508V14.846H85.296V15.98H84.022V5.83H85.352C85.6227 5.018 85.8093 4.23867 85.912 3.492L87.242 3.674C87.1113 4.41133 86.906 5.13 86.626 5.83H88.782ZM85.296 13.614H87.508V10.856H85.296V13.614ZM85.296 9.666H87.508V7.09H85.296V9.666ZM91.302 9.19C92.2633 10.3753 92.9727 11.3787 93.43 12.2L92.38 12.942C91.8853 12.0833 91.1667 11.0567 90.224 9.862L91.302 9.19ZM96.006 5.844C96.006 10.6787 95.936 13.656 95.796 14.776C95.656 15.784 94.9887 16.288 93.794 16.288C93.5793 16.288 93.0847 16.2647 92.31 16.218L91.988 15C92.8093 15.0373 93.3413 15.056 93.584 15.056C94.144 15.056 94.466 14.762 94.55 14.174C94.6247 13.558 94.676 11.2107 94.704 7.132H91.19C90.7793 8 90.322 8.77 89.818 9.442L89.02 8.392C89.9533 7.02933 90.588 5.39133 90.924 3.478L92.24 3.646C92.1093 4.35533 91.9227 5.088 91.68 5.844H96.006ZM97.896 11.192H103.356C103.403 10.8467 103.426 10.5153 103.426 10.198H104.714C104.714 10.45 104.695 10.7813 104.658 11.192H110.104V12.494H105.022C105.974 13.81 107.761 14.706 110.384 15.182L109.838 16.414C106.823 15.742 104.915 14.622 104.112 13.054C103.179 14.5847 101.181 15.714 98.12 16.442L97.574 15.21C100.327 14.65 102.105 13.7447 102.908 12.494H97.896V11.192ZM101.55 3.59H102.894V10.114H101.55V8.378C100.663 8.81667 99.5667 9.246 98.26 9.666L97.728 8.434C99.1747 8.042 100.449 7.58 101.55 7.048V3.59ZM98.764 4.094C99.5667 4.46733 100.327 4.962 101.046 5.578L100.332 6.684C99.576 6.012 98.8153 5.49867 98.05 5.144L98.764 4.094ZM107.08 3.716C106.968 3.98667 106.833 4.262 106.674 4.542H109.894V5.662C109.278 7.77133 107.36 9.246 104.14 10.086L103.496 8.924C104.495 8.68133 105.353 8.38267 106.072 8.028C105.699 7.64533 105.335 7.30933 104.98 7.02L105.89 6.334C106.254 6.642 106.637 7.01533 107.038 7.454C107.719 6.978 108.233 6.40867 108.578 5.746H105.764C105.26 6.278 104.635 6.77267 103.888 7.23L103.076 6.166C104.383 5.44733 105.265 4.57933 105.722 3.562L107.08 3.716ZM114.542 7.776H113.464V10.296C113.417 12.8533 113.053 14.902 112.372 16.442L111.448 15.602C111.943 14.37 112.204 12.6013 112.232 10.296V3.996H118.672V5.2H113.464V6.572H118.308V7.776H115.718V9.582H118.294C118.257 12.5127 118.135 14.3653 117.93 15.14C117.715 15.8867 117.235 16.2647 116.488 16.274C116.292 16.274 116.021 16.2507 115.676 16.204L115.326 15.112C115.867 15.1493 116.208 15.168 116.348 15.168C116.647 15.14 116.838 14.888 116.922 14.412C116.997 13.9547 117.043 12.7273 117.062 10.73H115.704C115.62 13.2593 115.079 15.1353 114.08 16.358L113.156 15.56C114.061 14.4307 114.523 12.6293 114.542 10.156V7.776ZM120.212 3.576H121.5V6.418H123.964C123.964 10.8607 123.899 13.628 123.768 14.72C123.628 15.756 123.012 16.274 121.92 16.274L120.674 16.218L120.394 15.098C120.954 15.1447 121.397 15.168 121.724 15.168C122.219 15.168 122.508 14.8553 122.592 14.23C122.667 13.614 122.713 11.4207 122.732 7.65H121.486C121.402 11.6353 120.599 14.58 119.078 16.484L118.14 15.644C119.447 13.9733 120.137 11.3087 120.212 7.65H118.728V6.418H120.212V3.576ZM130.992 4.458C130.348 5.634 129.704 6.586 129.06 7.314C128.416 8.042 127.492 8.84467 126.288 9.722L125.56 8.546C126.456 8.042 127.287 7.35133 128.052 6.474C128.715 5.718 129.321 4.822 129.872 3.786L130.992 4.458ZM127.59 10.24V8.966H136.284C136.247 10.7113 136.153 12.1673 136.004 13.334C135.845 14.4353 135.593 15.2007 135.248 15.63C134.912 16.05 134.361 16.2833 133.596 16.33H130.978L130.628 15.056C131.44 15.084 132.21 15.098 132.938 15.098C133.713 15.098 134.226 14.7993 134.478 14.202C134.711 13.6047 134.87 12.284 134.954 10.24H131.496C131.16 11.752 130.707 12.9373 130.138 13.796C129.438 14.7947 128.402 15.6813 127.03 16.456L126.204 15.392C127.417 14.7387 128.332 14.0107 128.948 13.208C129.499 12.424 129.909 11.4347 130.18 10.24H127.59ZM134.282 3.604C135.047 5.72267 136.429 7.37933 138.426 8.574L137.53 9.624C135.439 8.24267 133.974 6.45067 133.134 4.248L134.282 3.604ZM152.426 12.676C152.314 14.1507 152.146 15.112 151.922 15.56C151.707 15.9987 151.255 16.218 150.564 16.218H147.666C146.975 16.218 146.63 15.7467 146.63 14.804V8.672H150.382V5.27H146.49V4.01H151.656V9.96H147.932V14.272C147.932 14.7107 148.035 14.944 148.24 14.972H150.34C150.648 14.972 150.844 14.7807 150.928 14.398C151.012 14.0153 151.068 13.3013 151.096 12.256L152.426 12.676ZM139.644 3.996H146.112V5.256H144.418V6.586H145.93V16.386H144.754V15.714H141.114V16.386H139.938V6.586H141.422V5.256H139.644V3.996ZM141.114 14.468H144.754V13.348H141.114V14.468ZM141.702 7.79H141.114V11.094C141.497 10.506 141.693 9.66133 141.702 8.56V7.79ZM141.114 11.318V12.144H144.754V11.206H144.222C143.569 11.206 143.242 10.8653 143.242 10.184V7.79H142.57V8.56C142.561 10.044 142.271 11.1407 141.702 11.85L141.114 11.318ZM142.556 6.586H143.284V5.256H142.556V6.586ZM144.754 10.198V7.79H144.124V9.918C144.124 10.1047 144.241 10.198 144.474 10.198H144.754Z" fill="#A9BDE6"/>
<path d="M364.188 193.004V203H365.336V195.048H365.378L368.836 203H369.872L373.33 195.048H373.372V203H374.52V193.004H373.092L369.382 201.53H369.34L365.616 193.004H364.188ZM379.543 195.566C378.675 195.566 377.989 195.734 377.457 196.07C376.869 196.434 376.491 197.008 376.337 197.764L377.443 197.848C377.555 197.386 377.793 197.036 378.171 196.812C378.507 196.588 378.941 196.49 379.473 196.49C380.733 196.49 381.363 197.092 381.363 198.31V198.688L379.627 198.716C378.535 198.73 377.695 198.94 377.107 199.332C376.435 199.752 376.113 200.368 376.113 201.194C376.113 201.782 376.337 202.272 376.785 202.65C377.219 203.014 377.793 203.196 378.521 203.196C379.193 203.196 379.795 203.042 380.327 202.748C380.775 202.496 381.153 202.174 381.433 201.782V203H382.483V198.352C382.483 197.512 382.259 196.854 381.839 196.378C381.335 195.832 380.579 195.566 379.543 195.566ZM381.363 199.528V200.144C381.363 200.704 381.097 201.208 380.579 201.642C380.047 202.09 379.445 202.314 378.759 202.314C378.311 202.314 377.947 202.202 377.667 201.992C377.387 201.768 377.261 201.502 377.261 201.166C377.261 200.116 378.073 199.584 379.697 199.556L381.363 199.528ZM384.214 192.808V203H385.334V200.438L386.482 199.402L389.31 203H390.752L387.252 198.674L390.444 195.762H388.96L385.334 199.122V192.808H384.214ZM394.606 195.566C393.556 195.566 392.73 195.944 392.114 196.7C391.498 197.414 391.204 198.31 391.204 199.374C391.204 200.55 391.512 201.474 392.156 202.174C392.772 202.846 393.612 203.196 394.648 203.196C395.586 203.196 396.356 202.916 396.958 202.384C397.448 201.936 397.77 201.376 397.938 200.676H396.818C396.636 201.18 396.398 201.558 396.09 201.81C395.726 202.104 395.236 202.258 394.648 202.258C393.962 202.258 393.416 202.034 393.024 201.586C392.632 201.138 392.422 200.508 392.366 199.696H398.078C398.05 198.436 397.77 197.442 397.238 196.742C396.65 195.958 395.768 195.566 394.606 195.566ZM394.634 196.504C396.006 196.504 396.776 197.274 396.916 198.828H392.394C392.464 198.114 392.688 197.554 393.08 197.134C393.472 196.714 393.99 196.504 394.634 196.504ZM402.567 195.566C402.063 195.566 401.629 195.72 401.251 196.028C400.943 196.266 400.691 196.602 400.495 197.022V195.762H399.389V203H400.495V199.164C400.495 198.492 400.677 197.918 401.069 197.442C401.447 196.938 401.923 196.7 402.483 196.7C402.833 196.7 403.197 196.742 403.561 196.854V195.734C403.295 195.622 402.959 195.566 402.567 195.566ZM407.135 194.474C406.883 194.474 406.687 194.558 406.519 194.74C406.351 194.894 406.281 195.09 406.281 195.342C406.281 195.58 406.351 195.776 406.519 195.944C406.687 196.112 406.883 196.196 407.135 196.196C407.373 196.196 407.583 196.112 407.751 195.944C407.919 195.776 408.003 195.58 408.003 195.342C408.003 195.09 407.919 194.894 407.751 194.74C407.583 194.558 407.373 194.474 407.135 194.474ZM407.135 199.598C406.883 199.598 406.687 199.682 406.519 199.864C406.351 200.018 406.281 200.214 406.281 200.466C406.281 200.704 406.351 200.9 406.519 201.068C406.687 201.236 406.883 201.32 407.135 201.32C407.373 201.32 407.583 201.236 407.751 201.068C407.919 200.9 408.003 200.704 408.003 200.466C408.003 200.214 407.919 200.018 407.751 199.864C407.583 199.682 407.373 199.598 407.135 199.598ZM421.835 192.808C420.785 192.808 419.973 193.074 419.385 193.62C418.839 194.11 418.573 194.726 418.573 195.454C418.573 195.986 418.699 196.434 418.951 196.798C419.217 197.19 419.609 197.484 420.141 197.666V197.694C419.609 197.82 419.175 198.114 418.811 198.562C418.419 199.038 418.223 199.598 418.223 200.242C418.223 201.124 418.531 201.838 419.147 202.37C419.777 202.916 420.673 203.196 421.835 203.196C422.983 203.196 423.879 202.916 424.523 202.37C425.139 201.838 425.447 201.124 425.447 200.242C425.447 199.598 425.251 199.038 424.859 198.562C424.495 198.114 424.047 197.82 423.529 197.694V197.666C424.047 197.484 424.439 197.19 424.719 196.798C424.971 196.434 425.097 195.986 425.097 195.454C425.097 194.726 424.817 194.11 424.285 193.62C423.697 193.074 422.871 192.808 421.835 192.808ZM421.835 193.746C422.535 193.746 423.095 193.928 423.501 194.292C423.837 194.6 424.019 195.006 424.019 195.496C424.019 196 423.865 196.42 423.557 196.728C423.179 197.092 422.605 197.288 421.835 197.288C421.051 197.288 420.477 197.092 420.113 196.728C419.805 196.42 419.651 196 419.651 195.496C419.651 195.006 419.819 194.6 420.169 194.292C420.561 193.928 421.121 193.746 421.835 193.746ZM421.835 198.184C422.633 198.184 423.263 198.38 423.711 198.786C424.103 199.15 424.313 199.64 424.313 200.242C424.313 200.83 424.103 201.306 423.711 201.67C423.263 202.062 422.647 202.258 421.835 202.258C421.023 202.258 420.393 202.062 419.973 201.684C419.553 201.32 419.357 200.83 419.357 200.242C419.357 199.64 419.553 199.15 419.973 198.786C420.407 198.38 421.023 198.184 421.835 198.184ZM430.229 192.808C429.025 192.808 428.129 193.326 427.527 194.39C426.995 195.286 426.729 196.49 426.729 198.002C426.729 199.514 426.995 200.718 427.527 201.614C428.129 202.664 429.025 203.196 430.229 203.196C431.419 203.196 432.315 202.664 432.931 201.614C433.463 200.718 433.729 199.514 433.729 198.002C433.729 196.49 433.463 195.286 432.931 194.39C432.315 193.326 431.419 192.808 430.229 192.808ZM430.229 193.788C431.125 193.788 431.769 194.264 432.161 195.23C432.441 195.902 432.595 196.826 432.595 198.002C432.595 199.164 432.441 200.088 432.161 200.774C431.769 201.726 431.125 202.216 430.229 202.216C429.333 202.216 428.689 201.726 428.297 200.774C428.017 200.088 427.877 199.164 427.877 198.002C427.877 196.826 428.017 195.902 428.297 195.23C428.689 194.264 429.333 193.788 430.229 193.788ZM444.77 197.526C444.014 197.526 443.44 197.792 443.048 198.352C442.684 198.828 442.516 199.472 442.516 200.27C442.516 201.054 442.684 201.684 443.048 202.188C443.44 202.72 444.014 203 444.77 203C445.512 203 446.086 202.72 446.492 202.188C446.842 201.698 447.024 201.054 447.024 200.27C447.024 199.472 446.842 198.828 446.492 198.352C446.086 197.792 445.512 197.526 444.77 197.526ZM443.566 192.808L437.952 203.196H438.862L444.462 192.808H443.566ZM437.658 193.004C436.902 193.004 436.328 193.27 435.936 193.83C435.572 194.306 435.404 194.95 435.404 195.748C435.404 196.532 435.572 197.162 435.936 197.666C436.328 198.198 436.902 198.478 437.658 198.478C438.4 198.478 438.974 198.198 439.38 197.666C439.73 197.176 439.912 196.532 439.912 195.748C439.912 194.95 439.73 194.306 439.38 193.83C438.974 193.27 438.4 193.004 437.658 193.004ZM444.77 198.282C445.19 198.282 445.498 198.478 445.708 198.884C445.876 199.22 445.974 199.682 445.974 200.27C445.974 200.844 445.876 201.292 445.708 201.628C445.498 202.034 445.19 202.244 444.77 202.244C444.336 202.244 444.028 202.034 443.832 201.642C443.65 201.306 443.566 200.844 443.566 200.27C443.566 199.668 443.65 199.206 443.832 198.87C444.028 198.478 444.336 198.282 444.77 198.282ZM437.658 193.76C438.078 193.76 438.386 193.956 438.582 194.362C438.764 194.698 438.862 195.16 438.862 195.748C438.862 196.322 438.764 196.77 438.596 197.106C438.386 197.512 438.078 197.722 437.658 197.722C437.224 197.722 436.916 197.512 436.72 197.12C436.538 196.784 436.454 196.322 436.454 195.748C436.454 195.146 436.538 194.684 436.72 194.348C436.916 193.956 437.224 193.76 437.658 193.76Z" fill="#87DC85"/>
<path d="M363.238 143.004V143.998H366.766V153H367.9V143.998H371.428V143.004H363.238ZM375.686 145.566C374.818 145.566 374.132 145.734 373.6 146.07C373.012 146.434 372.634 147.008 372.48 147.764L373.586 147.848C373.698 147.386 373.936 147.036 374.314 146.812C374.65 146.588 375.084 146.49 375.616 146.49C376.876 146.49 377.506 147.092 377.506 148.31V148.688L375.77 148.716C374.678 148.73 373.838 148.94 373.25 149.332C372.578 149.752 372.256 150.368 372.256 151.194C372.256 151.782 372.48 152.272 372.928 152.65C373.362 153.014 373.936 153.196 374.664 153.196C375.336 153.196 375.938 153.042 376.47 152.748C376.918 152.496 377.296 152.174 377.576 151.782V153H378.626V148.352C378.626 147.512 378.402 146.854 377.982 146.378C377.478 145.832 376.722 145.566 375.686 145.566ZM377.506 149.528V150.144C377.506 150.704 377.24 151.208 376.722 151.642C376.19 152.09 375.588 152.314 374.902 152.314C374.454 152.314 374.09 152.202 373.81 151.992C373.53 151.768 373.404 151.502 373.404 151.166C373.404 150.116 374.216 149.584 375.84 149.556L377.506 149.528ZM380.356 142.808V153H381.476V150.438L382.624 149.402L385.452 153H386.894L383.394 148.674L386.586 145.762H385.102L381.476 149.122V142.808H380.356ZM390.748 145.566C389.698 145.566 388.872 145.944 388.256 146.7C387.64 147.414 387.346 148.31 387.346 149.374C387.346 150.55 387.654 151.474 388.298 152.174C388.914 152.846 389.754 153.196 390.79 153.196C391.728 153.196 392.498 152.916 393.1 152.384C393.59 151.936 393.912 151.376 394.08 150.676H392.96C392.778 151.18 392.54 151.558 392.232 151.81C391.868 152.104 391.378 152.258 390.79 152.258C390.104 152.258 389.558 152.034 389.166 151.586C388.774 151.138 388.564 150.508 388.508 149.696H394.22C394.192 148.436 393.912 147.442 393.38 146.742C392.792 145.958 391.91 145.566 390.748 145.566ZM390.776 146.504C392.148 146.504 392.918 147.274 393.058 148.828H388.536C388.606 148.114 388.83 147.554 389.222 147.134C389.614 146.714 390.132 146.504 390.776 146.504ZM398.71 145.566C398.206 145.566 397.772 145.72 397.394 146.028C397.086 146.266 396.834 146.602 396.638 147.022V145.762H395.532V153H396.638V149.164C396.638 148.492 396.82 147.918 397.212 147.442C397.59 146.938 398.066 146.7 398.626 146.7C398.976 146.7 399.34 146.742 399.704 146.854V145.734C399.438 145.622 399.102 145.566 398.71 145.566ZM411.817 146.588V143.942H406.231V142.92H412.545V142.052H405.251V148.506H412.671V147.638H406.231V146.588H411.817ZM406.231 144.74H410.865V145.804H406.231V144.74ZM405.223 150.802C404.383 151.74 402.773 152.58 400.421 153.322L400.995 154.26C403.515 153.308 405.209 152.146 406.091 150.802H406.315V154.414H407.295V150.802H407.519C408.527 152.174 410.249 153.294 412.713 154.134L413.175 153.168C411.019 152.58 409.437 151.796 408.415 150.802H412.909V149.906H407.295V148.94H406.315V149.906H400.687V150.802H405.223ZM401.877 141.688L401.373 142.43C402.227 142.766 403.053 143.214 403.865 143.802L404.369 143.032C403.613 142.5 402.787 142.052 401.877 141.688ZM401.233 143.718L400.729 144.474C401.429 144.754 402.129 145.132 402.815 145.608L403.333 144.81C402.689 144.39 401.989 144.026 401.233 143.718ZM403.809 145.566C402.899 146.616 401.877 147.526 400.729 148.296L401.415 149.066C402.507 148.282 403.557 147.316 404.565 146.14L403.809 145.566ZM418.439 143.116V144.054H421.939C421.855 144.432 421.743 144.81 421.589 145.188H419.349V151.936H425.985V145.188H422.653C422.793 144.824 422.919 144.446 423.017 144.054H426.937V143.116H424.557C424.837 142.752 425.089 142.332 425.327 141.856L424.347 141.52C424.095 142.08 423.787 142.612 423.451 143.116H421.799C421.547 142.514 421.253 141.996 420.945 141.548L420.007 141.898C420.287 142.276 420.539 142.682 420.763 143.116H418.439ZM425.033 151.04H420.301V149.878H425.033V151.04ZM420.301 149.066V148.002H425.033V149.066H420.301ZM420.301 147.19V146.084H425.033V147.19H420.301ZM415.541 141.786L414.855 142.444C415.877 143.228 416.675 143.97 417.263 144.67L417.977 143.97C417.319 143.242 416.507 142.514 415.541 141.786ZM423.703 154.148H426.909L427.147 153.14C426.783 153.168 426.251 153.182 425.579 153.196C424.893 153.21 424.221 153.224 423.563 153.224C422.471 153.224 421.561 153.21 420.833 153.196C420.007 153.168 419.377 153.056 418.943 152.86C418.565 152.678 418.201 152.384 417.865 151.978C417.753 151.852 417.641 151.74 417.529 151.656V146.42H414.533V147.344H416.591V151.6C416.017 151.824 415.345 152.538 414.575 153.742L415.331 154.414C416.129 153.126 416.689 152.496 417.025 152.496C417.193 152.496 417.375 152.608 417.571 152.846C417.991 153.35 418.481 153.7 419.041 153.868C419.601 154.022 420.329 154.106 421.225 154.12C422.121 154.134 422.947 154.148 423.703 154.148ZM431.277 144.474C431.025 144.474 430.829 144.558 430.661 144.74C430.493 144.894 430.423 145.09 430.423 145.342C430.423 145.58 430.493 145.776 430.661 145.944C430.829 146.112 431.025 146.196 431.277 146.196C431.515 146.196 431.725 146.112 431.893 145.944C432.061 145.776 432.145 145.58 432.145 145.342C432.145 145.09 432.061 144.894 431.893 144.74C431.725 144.558 431.515 144.474 431.277 144.474ZM431.277 149.598C431.025 149.598 430.829 149.682 430.661 149.864C430.493 150.018 430.423 150.214 430.423 150.466C430.423 150.704 430.493 150.9 430.661 151.068C430.829 151.236 431.025 151.32 431.277 151.32C431.515 151.32 431.725 151.236 431.893 151.068C432.061 150.9 432.145 150.704 432.145 150.466C432.145 150.214 432.061 150.018 431.893 149.864C431.725 149.682 431.515 149.598 431.277 149.598ZM444.997 143.004C444.661 143.382 444.269 143.718 443.793 144.026C443.317 144.306 442.841 144.502 442.393 144.628V145.776C443.331 145.496 444.115 145.048 444.745 144.404V153H445.893V143.004H444.997ZM451.596 142.808C450.392 142.808 449.496 143.326 448.894 144.39C448.362 145.286 448.096 146.49 448.096 148.002C448.096 149.514 448.362 150.718 448.894 151.614C449.496 152.664 450.392 153.196 451.596 153.196C452.786 153.196 453.682 152.664 454.298 151.614C454.83 150.718 455.096 149.514 455.096 148.002C455.096 146.49 454.83 145.286 454.298 144.39C453.682 143.326 452.786 142.808 451.596 142.808ZM451.596 143.788C452.492 143.788 453.136 144.264 453.528 145.23C453.808 145.902 453.962 146.826 453.962 148.002C453.962 149.164 453.808 150.088 453.528 150.774C453.136 151.726 452.492 152.216 451.596 152.216C450.7 152.216 450.056 151.726 449.664 150.774C449.384 150.088 449.244 149.164 449.244 148.002C449.244 146.826 449.384 145.902 449.664 145.23C450.056 144.264 450.7 143.788 451.596 143.788ZM466.137 147.526C465.381 147.526 464.807 147.792 464.415 148.352C464.051 148.828 463.883 149.472 463.883 150.27C463.883 151.054 464.051 151.684 464.415 152.188C464.807 152.72 465.381 153 466.137 153C466.879 153 467.453 152.72 467.859 152.188C468.209 151.698 468.391 151.054 468.391 150.27C468.391 149.472 468.209 148.828 467.859 148.352C467.453 147.792 466.879 147.526 466.137 147.526ZM464.933 142.808L459.319 153.196H460.229L465.829 142.808H464.933ZM459.025 143.004C458.269 143.004 457.695 143.27 457.303 143.83C456.939 144.306 456.771 144.95 456.771 145.748C456.771 146.532 456.939 147.162 457.303 147.666C457.695 148.198 458.269 148.478 459.025 148.478C459.767 148.478 460.341 148.198 460.747 147.666C461.097 147.176 461.279 146.532 461.279 145.748C461.279 144.95 461.097 144.306 460.747 143.83C460.341 143.27 459.767 143.004 459.025 143.004ZM466.137 148.282C466.557 148.282 466.865 148.478 467.075 148.884C467.243 149.22 467.341 149.682 467.341 150.27C467.341 150.844 467.243 151.292 467.075 151.628C466.865 152.034 466.557 152.244 466.137 152.244C465.703 152.244 465.395 152.034 465.199 151.642C465.017 151.306 464.933 150.844 464.933 150.27C464.933 149.668 465.017 149.206 465.199 148.87C465.395 148.478 465.703 148.282 466.137 148.282ZM459.025 143.76C459.445 143.76 459.753 143.956 459.949 144.362C460.131 144.698 460.229 145.16 460.229 145.748C460.229 146.322 460.131 146.77 459.963 147.106C459.753 147.512 459.445 147.722 459.025 147.722C458.591 147.722 458.283 147.512 458.087 147.12C457.905 146.784 457.821 146.322 457.821 145.748C457.821 145.146 457.905 144.684 458.087 144.348C458.283 143.956 458.591 143.76 459.025 143.76Z" fill="#FEFB73"/>
<path d="M364.008 93.004V103H365.156V95.048H365.198L368.656 103H369.692L373.15 95.048H373.192V103H374.34V93.004H372.912L369.202 101.53H369.16L365.436 93.004H364.008ZM379.364 95.566C378.496 95.566 377.81 95.734 377.278 96.07C376.69 96.434 376.312 97.008 376.158 97.764L377.264 97.848C377.376 97.386 377.614 97.036 377.992 96.812C378.328 96.588 378.762 96.49 379.294 96.49C380.554 96.49 381.184 97.092 381.184 98.31V98.688L379.448 98.716C378.356 98.73 377.516 98.94 376.928 99.332C376.256 99.752 375.934 100.368 375.934 101.194C375.934 101.782 376.158 102.272 376.606 102.65C377.04 103.014 377.614 103.196 378.342 103.196C379.014 103.196 379.616 103.042 380.148 102.748C380.596 102.496 380.974 102.174 381.254 101.782V103H382.304V98.352C382.304 97.512 382.08 96.854 381.66 96.378C381.156 95.832 380.4 95.566 379.364 95.566ZM381.184 99.528V100.144C381.184 100.704 380.918 101.208 380.4 101.642C379.868 102.09 379.266 102.314 378.58 102.314C378.132 102.314 377.768 102.202 377.488 101.992C377.208 101.768 377.082 101.502 377.082 101.166C377.082 100.116 377.894 99.584 379.518 99.556L381.184 99.528ZM384.034 92.808V103H385.154V100.438L386.302 99.402L389.13 103H390.572L387.072 98.674L390.264 95.762H388.78L385.154 99.122V92.808H384.034ZM394.426 95.566C393.376 95.566 392.55 95.944 391.934 96.7C391.318 97.414 391.024 98.31 391.024 99.374C391.024 100.55 391.332 101.474 391.976 102.174C392.592 102.846 393.432 103.196 394.468 103.196C395.406 103.196 396.176 102.916 396.778 102.384C397.268 101.936 397.59 101.376 397.758 100.676H396.638C396.456 101.18 396.218 101.558 395.91 101.81C395.546 102.104 395.056 102.258 394.468 102.258C393.782 102.258 393.236 102.034 392.844 101.586C392.452 101.138 392.242 100.508 392.186 99.696H397.898C397.87 98.436 397.59 97.442 397.058 96.742C396.47 95.958 395.588 95.566 394.426 95.566ZM394.454 96.504C395.826 96.504 396.596 97.274 396.736 98.828H392.214C392.284 98.114 392.508 97.554 392.9 97.134C393.292 96.714 393.81 96.504 394.454 96.504ZM402.388 95.566C401.884 95.566 401.45 95.72 401.072 96.028C400.764 96.266 400.512 96.602 400.316 97.022V95.762H399.21V103H400.316V99.164C400.316 98.492 400.498 97.918 400.89 97.442C401.268 96.938 401.744 96.7 402.304 96.7C402.654 96.7 403.018 96.742 403.382 96.854V95.734C403.116 95.622 402.78 95.566 402.388 95.566ZM415.495 96.588V93.942H409.909V92.92H416.223V92.052H408.929V98.506H416.349V97.638H409.909V96.588H415.495ZM409.909 94.74H414.543V95.804H409.909V94.74ZM408.901 100.802C408.061 101.74 406.451 102.58 404.099 103.322L404.673 104.26C407.193 103.308 408.887 102.146 409.769 100.802H409.993V104.414H410.973V100.802H411.197C412.205 102.174 413.927 103.294 416.391 104.134L416.853 103.168C414.697 102.58 413.115 101.796 412.093 100.802H416.587V99.906H410.973V98.94H409.993V99.906H404.365V100.802H408.901ZM405.555 91.688L405.051 92.43C405.905 92.766 406.731 93.214 407.543 93.802L408.047 93.032C407.291 92.5 406.465 92.052 405.555 91.688ZM404.911 93.718L404.407 94.474C405.107 94.754 405.807 95.132 406.493 95.608L407.011 94.81C406.367 94.39 405.667 94.026 404.911 93.718ZM407.487 95.566C406.577 96.616 405.555 97.526 404.407 98.296L405.093 99.066C406.185 98.282 407.235 97.316 408.243 96.14L407.487 95.566ZM422.117 93.116V94.054H425.617C425.533 94.432 425.421 94.81 425.267 95.188H423.027V101.936H429.663V95.188H426.331C426.471 94.824 426.597 94.446 426.695 94.054H430.615V93.116H428.235C428.515 92.752 428.767 92.332 429.005 91.856L428.025 91.52C427.773 92.08 427.465 92.612 427.129 93.116H425.477C425.225 92.514 424.931 91.996 424.623 91.548L423.685 91.898C423.965 92.276 424.217 92.682 424.441 93.116H422.117ZM428.711 101.04H423.979V99.878H428.711V101.04ZM423.979 99.066V98.002H428.711V99.066H423.979ZM423.979 97.19V96.084H428.711V97.19H423.979ZM419.219 91.786L418.533 92.444C419.555 93.228 420.353 93.97 420.941 94.67L421.655 93.97C420.997 93.242 420.185 92.514 419.219 91.786ZM427.381 104.148H430.587L430.825 103.14C430.461 103.168 429.929 103.182 429.257 103.196C428.571 103.21 427.899 103.224 427.241 103.224C426.149 103.224 425.239 103.21 424.511 103.196C423.685 103.168 423.055 103.056 422.621 102.86C422.243 102.678 421.879 102.384 421.543 101.978C421.431 101.852 421.319 101.74 421.207 101.656V96.42H418.211V97.344H420.269V101.6C419.695 101.824 419.023 102.538 418.253 103.742L419.009 104.414C419.807 103.126 420.367 102.496 420.703 102.496C420.871 102.496 421.053 102.608 421.249 102.846C421.669 103.35 422.159 103.7 422.719 103.868C423.279 104.022 424.007 104.106 424.903 104.12C425.799 104.134 426.625 104.148 427.381 104.148ZM434.955 94.474C434.703 94.474 434.507 94.558 434.339 94.74C434.171 94.894 434.101 95.09 434.101 95.342C434.101 95.58 434.171 95.776 434.339 95.944C434.507 96.112 434.703 96.196 434.955 96.196C435.193 96.196 435.403 96.112 435.571 95.944C435.739 95.776 435.823 95.58 435.823 95.342C435.823 95.09 435.739 94.894 435.571 94.74C435.403 94.558 435.193 94.474 434.955 94.474ZM434.955 99.598C434.703 99.598 434.507 99.682 434.339 99.864C434.171 100.018 434.101 100.214 434.101 100.466C434.101 100.704 434.171 100.9 434.339 101.068C434.507 101.236 434.703 101.32 434.955 101.32C435.193 101.32 435.403 101.236 435.571 101.068C435.739 100.9 435.823 100.704 435.823 100.466C435.823 100.214 435.739 100.018 435.571 99.864C435.403 99.682 435.193 99.598 434.955 99.598ZM448.675 93.004C448.339 93.382 447.947 93.718 447.471 94.026C446.995 94.306 446.519 94.502 446.071 94.628V95.776C447.009 95.496 447.793 95.048 448.423 94.404V103H449.571V93.004H448.675ZM455.274 92.808C454.07 92.808 453.174 93.326 452.572 94.39C452.04 95.286 451.774 96.49 451.774 98.002C451.774 99.514 452.04 100.718 452.572 101.614C453.174 102.664 454.07 103.196 455.274 103.196C456.464 103.196 457.36 102.664 457.976 101.614C458.508 100.718 458.774 99.514 458.774 98.002C458.774 96.49 458.508 95.286 457.976 94.39C457.36 93.326 456.464 92.808 455.274 92.808ZM455.274 93.788C456.17 93.788 456.814 94.264 457.206 95.23C457.486 95.902 457.64 96.826 457.64 98.002C457.64 99.164 457.486 100.088 457.206 100.774C456.814 101.726 456.17 102.216 455.274 102.216C454.378 102.216 453.734 101.726 453.342 100.774C453.062 100.088 452.922 99.164 452.922 98.002C452.922 96.826 453.062 95.902 453.342 95.23C453.734 94.264 454.378 93.788 455.274 93.788ZM469.815 97.526C469.059 97.526 468.485 97.792 468.093 98.352C467.729 98.828 467.561 99.472 467.561 100.27C467.561 101.054 467.729 101.684 468.093 102.188C468.485 102.72 469.059 103 469.815 103C470.557 103 471.131 102.72 471.537 102.188C471.887 101.698 472.069 101.054 472.069 100.27C472.069 99.472 471.887 98.828 471.537 98.352C471.131 97.792 470.557 97.526 469.815 97.526ZM468.611 92.808L462.997 103.196H463.907L469.507 92.808H468.611ZM462.703 93.004C461.947 93.004 461.373 93.27 460.981 93.83C460.617 94.306 460.449 94.95 460.449 95.748C460.449 96.532 460.617 97.162 460.981 97.666C461.373 98.198 461.947 98.478 462.703 98.478C463.445 98.478 464.019 98.198 464.425 97.666C464.775 97.176 464.957 96.532 464.957 95.748C464.957 94.95 464.775 94.306 464.425 93.83C464.019 93.27 463.445 93.004 462.703 93.004ZM469.815 98.282C470.235 98.282 470.543 98.478 470.753 98.884C470.921 99.22 471.019 99.682 471.019 100.27C471.019 100.844 470.921 101.292 470.753 101.628C470.543 102.034 470.235 102.244 469.815 102.244C469.381 102.244 469.073 102.034 468.877 101.642C468.695 101.306 468.611 100.844 468.611 100.27C468.611 99.668 468.695 99.206 468.877 98.87C469.073 98.478 469.381 98.282 469.815 98.282ZM462.703 93.76C463.123 93.76 463.431 93.956 463.627 94.362C463.809 94.698 463.907 95.16 463.907 95.748C463.907 96.322 463.809 96.77 463.641 97.106C463.431 97.512 463.123 97.722 462.703 97.722C462.269 97.722 461.961 97.512 461.765 97.12C461.583 96.784 461.499 96.322 461.499 95.748C461.499 95.146 461.583 94.684 461.765 94.348C461.961 93.956 462.269 93.76 462.703 93.76Z" fill="#E7A061"/>
<path d="M353 96.0003L272 96.0003L231.5 50.0003L142 50" stroke="#E7A061" stroke-linecap="round"/>
<circle cx="353" cy="96" r="1.5" fill="#E7A061" stroke="#FF8067"/>
<path d="M353 146L272 146L231.5 100L191 100" stroke="#FEFB73" stroke-linecap="round"/>
<circle cx="353" cy="146" r="1.5" fill="#FEFB73" stroke="#FFDA57"/>
<path d="M353 199C291.754 199 181 199 181 199" stroke="#87DC85" stroke-linecap="round"/>
<circle cx="353" cy="199" r="1.5" fill="#87DC85" stroke="#43EDBA"/>
<path d="M100 40C79.4142 40 59.3299 46.3532 42.4891 58.1923C25.6483 70.0314 12.8716 86.7795 5.90335 106.15C-1.06495 125.521 -1.8853 146.57 3.55429 166.424C8.99389 186.278 20.4283 203.97 36.2966 217.084C52.165 230.197 71.6938 238.095 92.2172 239.697C112.741 241.299 133.258 236.528 150.97 226.035C168.681 215.543 182.722 199.84 191.177 181.071C199.632 162.301 202.088 141.38 198.21 121.162L100 140V40Z" fill="#87DC85"/>
<path d="M100 40C123.193 40 145.666 48.0621 163.57 62.8061L100 140V40Z" fill="#E7A061"/>
<path d="M163.051 62.3821C181.361 77.2556 193.823 98.123 198.235 121.296L100 140L163.051 62.3821Z" fill="#FEFB73"/>
</svg>
