<svg width="30" height="30" viewBox="0 0 30 30" fill="none" xmlns="http://www.w3.org/2000/svg">
<path d="M10.0769 21.1538C10.4168 21.1538 10.6923 21.4294 10.6923 21.7692V22.0769C10.6923 22.5867 10.279 23 9.76923 23H9.46154C8.8087 23 8.1826 22.7407 7.72097 22.279C7.25934 21.8174 7 21.1913 7 20.5385V20.2308C7 19.721 7.41328 19.3077 7.92308 19.3077H8.23077C8.57064 19.3077 8.84615 19.5832 8.84615 19.9231C8.84615 20.2495 8.97582 20.5625 9.20664 20.7934C9.43745 21.0242 9.7505 21.1538 10.0769 21.1538Z" fill="url(#paint0_linear)"/>
<path d="M8.84615 17.4615C8.84615 17.8014 8.57064 18.0769 8.23077 18.0769H7.61538C7.27552 18.0769 7 17.8014 7 17.4615C7 17.1217 7.27552 16.8462 7.61538 16.8462H8.23077C8.57064 16.8462 8.84615 17.1217 8.84615 17.4615Z" fill="url(#paint1_linear)"/>
<path d="M8.84615 15C8.84615 15.3399 8.57064 15.6154 8.23077 15.6154H7.61539C7.27552 15.6154 7 15.3399 7 15C7 14.6601 7.27552 14.3846 7.61538 14.3846H8.23077C8.57064 14.3846 8.84615 14.6601 8.84615 15Z" fill="url(#paint2_linear)"/>
<path d="M8.84615 12.5385C8.84615 12.8783 8.57064 13.1538 8.23077 13.1538H7.61538C7.27552 13.1538 7 12.8783 7 12.5385C7 12.1986 7.27552 11.9231 7.61538 11.9231H8.23077C8.57064 11.9231 8.84615 12.1986 8.84615 12.5385Z" fill="url(#paint3_linear)"/>
<path d="M8.84615 10.0769C8.84615 10.4168 8.57064 10.6923 8.23077 10.6923H7.92308C7.41328 10.6923 7 10.279 7 9.76923V9.46154C7 8.8087 7.25934 8.1826 7.72097 7.72097C8.1826 7.25934 8.8087 7 9.46154 7H9.76923C10.279 7 10.6923 7.41328 10.6923 7.92308V8.23077C10.6923 8.57064 10.4168 8.84615 10.0769 8.84615C9.7505 8.84615 9.43745 8.97582 9.20664 9.20664C8.97582 9.43745 8.84615 9.7505 8.84615 10.0769Z" fill="url(#paint4_linear)"/>
<path d="M12.5385 8.84615C12.1986 8.84615 11.9231 8.57064 11.9231 8.23077V7.61538C11.9231 7.27552 12.1986 7 12.5385 7C12.8783 7 13.1538 7.27552 13.1538 7.61538V8.23077C13.1538 8.57064 12.8783 8.84615 12.5385 8.84615Z" fill="url(#paint5_linear)"/>
<path d="M10.6923 12.6923C10.6923 11.5877 11.5877 10.6923 12.6923 10.6923H17.3077C18.4123 10.6923 19.3077 11.5877 19.3077 12.6923V17.3077C19.3077 18.4123 18.4123 19.3077 17.3077 19.3077H12.6923C11.5877 19.3077 10.6923 18.4123 10.6923 17.3077V12.6923Z" fill="url(#paint6_linear)"/>
<path d="M15 8.84615C14.6601 8.84615 14.3846 8.57064 14.3846 8.23077V7.61539C14.3846 7.27552 14.6601 7 15 7C15.3399 7 15.6154 7.27552 15.6154 7.61538V8.23077C15.6154 8.57064 15.3399 8.84615 15 8.84615Z" fill="url(#paint7_linear)"/>
<path d="M17.4615 8.84615C17.1217 8.84615 16.8462 8.57064 16.8462 8.23077V7.61538C16.8462 7.27552 17.1217 7 17.4615 7C17.8014 7 18.0769 7.27552 18.0769 7.61538V8.23077C18.0769 8.57064 17.8014 8.84615 17.4615 8.84615Z" fill="url(#paint8_linear)"/>
<path d="M19.9231 8.84615C19.5832 8.84615 19.3077 8.57064 19.3077 8.23077V7.92308C19.3077 7.41328 19.721 7 20.2308 7H20.5385C21.1913 7 21.8174 7.25934 22.279 7.72097C22.7407 8.1826 23 8.8087 23 9.46154V9.76923C23 10.279 22.5867 10.6923 22.0769 10.6923H21.7692C21.4294 10.6923 21.1538 10.4168 21.1538 10.0769C21.1538 9.7505 21.0242 9.43745 20.7934 9.20664C20.5625 8.97582 20.2495 8.84615 19.9231 8.84615Z" fill="url(#paint9_linear)"/>
<path d="M21.1538 12.5385C21.1538 12.1986 21.4294 11.9231 21.7692 11.9231H22.3846C22.7245 11.9231 23 12.1986 23 12.5385C23 12.8783 22.7245 13.1538 22.3846 13.1538H21.7692C21.4294 13.1538 21.1538 12.8783 21.1538 12.5385Z" fill="url(#paint10_linear)"/>
<path d="M21.1538 15C21.1538 14.6601 21.4294 14.3846 21.7692 14.3846H22.3846C22.7245 14.3846 23 14.6601 23 15C23 15.3399 22.7245 15.6154 22.3846 15.6154H21.7692C21.4294 15.6154 21.1538 15.3399 21.1538 15Z" fill="url(#paint11_linear)"/>
<path d="M21.1538 17.4615C21.1538 17.1217 21.4294 16.8462 21.7692 16.8462H22.3846C22.7245 16.8462 23 17.1217 23 17.4615C23 17.8014 22.7245 18.0769 22.3846 18.0769H21.7692C21.4294 18.0769 21.1538 17.8014 21.1538 17.4615Z" fill="url(#paint12_linear)"/>
<path d="M22.0769 19.3077C22.5867 19.3077 23 19.721 23 20.2308V20.5385C23 21.1913 22.7407 21.8174 22.279 22.279C21.8174 22.7407 21.1913 23 20.5385 23H20.2308C19.721 23 19.3077 22.5867 19.3077 22.0769V21.7692C19.3077 21.4294 19.5832 21.1538 19.9231 21.1538C20.2495 21.1538 20.5625 21.0242 20.7934 20.7934C21.0242 20.5625 21.1538 20.2495 21.1538 19.9231C21.1538 19.5832 21.4294 19.3077 21.7692 19.3077H22.0769Z" fill="url(#paint13_linear)"/>
<path d="M17.4615 21.1538C17.8014 21.1538 18.0769 21.4294 18.0769 21.7692V22.3846C18.0769 22.7245 17.8014 23 17.4615 23C17.1217 23 16.8462 22.7245 16.8462 22.3846V21.7692C16.8462 21.4294 17.1217 21.1538 17.4615 21.1538Z" fill="url(#paint14_linear)"/>
<path d="M15 21.1538C15.3399 21.1538 15.6154 21.4294 15.6154 21.7692V22.3846C15.6154 22.7245 15.3399 23 15 23C14.6601 23 14.3846 22.7245 14.3846 22.3846V21.7692C14.3846 21.4294 14.6601 21.1538 15 21.1538Z" fill="url(#paint15_linear)"/>
<path d="M12.5385 21.1538C12.8783 21.1538 13.1538 21.4294 13.1538 21.7692V22.3846C13.1538 22.7245 12.8783 23 12.5385 23C12.1986 23 11.9231 22.7245 11.9231 22.3846V21.7692C11.9231 21.4294 12.1986 21.1538 12.5385 21.1538Z" fill="url(#paint16_linear)"/>
<defs>
<linearGradient id="paint0_linear" x1="15" y1="7" x2="15" y2="23" gradientUnits="userSpaceOnUse">
<stop stop-color="#4181FF"/>
<stop offset="1" stop-color="#00C3B3"/>
</linearGradient>
<linearGradient id="paint1_linear" x1="15" y1="7" x2="15" y2="23" gradientUnits="userSpaceOnUse">
<stop stop-color="#4181FF"/>
<stop offset="1" stop-color="#00C3B3"/>
</linearGradient>
<linearGradient id="paint2_linear" x1="15" y1="7" x2="15" y2="23" gradientUnits="userSpaceOnUse">
<stop stop-color="#4181FF"/>
<stop offset="1" stop-color="#00C3B3"/>
</linearGradient>
<linearGradient id="paint3_linear" x1="15" y1="7" x2="15" y2="23" gradientUnits="userSpaceOnUse">
<stop stop-color="#4181FF"/>
<stop offset="1" stop-color="#00C3B3"/>
</linearGradient>
<linearGradient id="paint4_linear" x1="15" y1="7" x2="15" y2="23" gradientUnits="userSpaceOnUse">
<stop stop-color="#4181FF"/>
<stop offset="1" stop-color="#00C3B3"/>
</linearGradient>
<linearGradient id="paint5_linear" x1="15" y1="7" x2="15" y2="23" gradientUnits="userSpaceOnUse">
<stop stop-color="#4181FF"/>
<stop offset="1" stop-color="#00C3B3"/>
</linearGradient>
<linearGradient id="paint6_linear" x1="15" y1="7" x2="15" y2="23" gradientUnits="userSpaceOnUse">
<stop stop-color="#4181FF"/>
<stop offset="1" stop-color="#00C3B3"/>
</linearGradient>
<linearGradient id="paint7_linear" x1="15" y1="7" x2="15" y2="23" gradientUnits="userSpaceOnUse">
<stop stop-color="#4181FF"/>
<stop offset="1" stop-color="#00C3B3"/>
</linearGradient>
<linearGradient id="paint8_linear" x1="15" y1="7" x2="15" y2="23" gradientUnits="userSpaceOnUse">
<stop stop-color="#4181FF"/>
<stop offset="1" stop-color="#00C3B3"/>
</linearGradient>
<linearGradient id="paint9_linear" x1="15" y1="7" x2="15" y2="23" gradientUnits="userSpaceOnUse">
<stop stop-color="#4181FF"/>
<stop offset="1" stop-color="#00C3B3"/>
</linearGradient>
<linearGradient id="paint10_linear" x1="15" y1="7" x2="15" y2="23" gradientUnits="userSpaceOnUse">
<stop stop-color="#4181FF"/>
<stop offset="1" stop-color="#00C3B3"/>
</linearGradient>
<linearGradient id="paint11_linear" x1="15" y1="7" x2="15" y2="23" gradientUnits="userSpaceOnUse">
<stop stop-color="#4181FF"/>
<stop offset="1" stop-color="#00C3B3"/>
</linearGradient>
<linearGradient id="paint12_linear" x1="15" y1="7" x2="15" y2="23" gradientUnits="userSpaceOnUse">
<stop stop-color="#4181FF"/>
<stop offset="1" stop-color="#00C3B3"/>
</linearGradient>
<linearGradient id="paint13_linear" x1="15" y1="7" x2="15" y2="23" gradientUnits="userSpaceOnUse">
<stop stop-color="#4181FF"/>
<stop offset="1" stop-color="#00C3B3"/>
</linearGradient>
<linearGradient id="paint14_linear" x1="15" y1="7" x2="15" y2="23" gradientUnits="userSpaceOnUse">
<stop stop-color="#4181FF"/>
<stop offset="1" stop-color="#00C3B3"/>
</linearGradient>
<linearGradient id="paint15_linear" x1="15" y1="7" x2="15" y2="23" gradientUnits="userSpaceOnUse">
<stop stop-color="#4181FF"/>
<stop offset="1" stop-color="#00C3B3"/>
</linearGradient>
<linearGradient id="paint16_linear" x1="15" y1="7" x2="15" y2="23" gradientUnits="userSpaceOnUse">
<stop stop-color="#4181FF"/>
<stop offset="1" stop-color="#00C3B3"/>
</linearGradient>
</defs>
</svg>
