<svg width="105" height="48" viewBox="0 0 105 48" fill="none" xmlns="http://www.w3.org/2000/svg">
<path d="M97.4972 12.7057H92.905C92.7452 12.7057 92.6157 12.8322 92.6157 12.9881V25.7948C92.6157 25.8728 92.6804 25.936 92.7603 25.936H94.1257C94.2056 25.936 94.2704 25.8728 94.2704 25.7948V14.4604C94.2704 14.3824 94.3352 14.3192 94.4151 14.3192H96.992C98.4467 14.3192 99.6888 15.3437 99.9296 16.7427L100.928 22.5445C100.943 22.6306 100.875 22.7091 100.786 22.7091H95.7389C95.659 22.7091 95.5942 22.7723 95.5942 22.8503V24.1814C95.5942 24.2593 95.659 24.3225 95.7389 24.3225H101.112C101.183 24.3225 101.243 24.3723 101.255 24.4403L103.103 35.1762C103.115 35.2442 103.175 35.294 103.246 35.294H104.855C104.945 35.294 105.013 35.2155 104.998 35.1294L101.74 16.2062C101.392 14.1857 99.5986 12.7057 97.4972 12.7057Z" fill="white"/>
<path d="M94.2704 29.3041C94.2704 29.2261 94.2056 29.1629 94.1257 29.1629H92.7603C92.6804 29.1629 92.6157 29.2261 92.6157 29.3041V35.1528C92.6157 35.2308 92.6804 35.294 92.7603 35.294H94.1257C94.2056 35.294 94.2704 35.2308 94.2704 35.1528V29.3041Z" fill="white"/>
<path d="M78.6949 25.936C78.615 25.936 78.5502 25.8728 78.5502 25.7948V12.9881C78.5502 12.8322 78.6797 12.7057 78.8395 12.7057H85.0038C87.3799 12.7057 89.3061 14.5839 89.3061 16.9007V24.3225H87.6514V17.2234C87.6514 15.6195 86.3179 14.3192 84.6728 14.3192H80.3496C80.2697 14.3192 80.205 14.3824 80.205 14.4604V25.7948C80.205 25.8728 80.1402 25.936 80.0603 25.936H78.6949Z" fill="white"/>
<path d="M78.6949 29.1629C78.615 29.1629 78.5502 29.2261 78.5502 29.3041V35.1528C78.5502 35.2308 78.615 35.294 78.6949 35.294H80.0603C80.1402 35.294 80.205 35.2308 80.205 35.1528V29.3041C80.205 29.2261 80.1402 29.1629 80.0603 29.1629H78.6949Z" fill="white"/>
<path d="M87.6514 31.2068V35.1528C87.6514 35.2308 87.7161 35.294 87.796 35.294H89.1615C89.2414 35.294 89.3061 35.2308 89.3061 35.1528V31.0034C89.3061 29.9739 88.918 28.9803 88.215 28.2118L83.2823 22.8171C83.2282 22.7579 83.1347 22.7539 83.0754 22.8082L82.1397 23.6654C82.0833 23.7171 82.0785 23.803 82.129 23.8603L86.9326 29.3148C87.3964 29.8414 87.6514 30.5126 87.6514 31.2068Z" fill="white"/>
<path d="M66.1395 12.7057H64.4848V21.741C64.4848 24.0578 66.411 25.936 68.7871 25.936H74.9514C75.1112 25.936 75.2407 25.8096 75.2407 25.6536V12.7057H73.5859V24.1814C73.5859 24.2593 73.5212 24.3225 73.4413 24.3225H69.1181C67.473 24.3225 66.1395 23.0223 66.1395 21.4183V12.7057Z" fill="white"/>
<path d="M75.2407 29.3041C75.2407 29.2261 75.1759 29.1629 75.096 29.1629H73.7306C73.6507 29.1629 73.5859 29.2261 73.5859 29.3041V35.1528C73.5859 35.2308 73.6507 35.294 73.7306 35.294H75.096C75.1759 35.294 75.2407 35.2308 75.2407 35.1528V29.3041Z" fill="white"/>
<path d="M57.8657 12.7057H59.5205V25.7948C59.5205 25.8728 59.4557 25.936 59.3758 25.936H58.0104C57.9305 25.936 57.8657 25.8728 57.8657 25.7948V12.7057Z" fill="white"/>
<path d="M58.0104 29.1629C57.9305 29.1629 57.8657 29.2261 57.8657 29.3041V31.099C57.8657 33.4158 59.792 35.294 62.1681 35.294H68.477C68.5569 35.294 68.6217 35.2308 68.6217 35.1528V33.8217C68.6217 33.7437 68.5569 33.6805 68.477 33.6805H62.499C60.854 33.6805 59.5205 32.3802 59.5205 30.7763V29.3041C59.5205 29.2261 59.4557 29.1629 59.3758 29.1629H58.0104Z" fill="white"/>
<path fill-rule="evenodd" clip-rule="evenodd" d="M39.5869 9.3608C39.0649 8.85135 38.5681 8.36657 38.0937 7.9056L37.4168 7.24941C33.4099 3.3771 31.0478 1.33515 28.3655 0.544121C25.9054 -0.181374 23.2805 -0.181374 20.8205 0.544121C18.1382 1.33515 15.776 3.3771 11.7691 7.24942L11.0922 7.90561C10.6168 8.3676 10.1189 8.85351 9.59555 9.36419L9.59184 9.36782C9.06989 9.87718 8.57321 10.3619 8.10093 10.8247L7.42852 11.4854C7.09155 11.8174 6.76811 12.1379 6.45783 12.448C6.34729 12.5585 6.34858 12.7351 6.46046 12.8443L6.66608 13.045C6.78018 13.1563 6.96555 13.1551 7.0783 13.0424C7.42465 12.6962 7.7883 12.3363 8.16994 11.9607C8.25389 11.878 8.38135 11.8539 8.48999 11.9019C10.2266 12.6682 11.7688 13.7801 13.0244 15.1478C13.1166 15.2482 13.12 15.3984 13.0368 15.506C11.2098 17.8695 10.1265 20.8113 10.1265 24C10.1265 27.1887 11.2098 30.1305 13.0368 32.494C13.12 32.6016 13.1166 32.7518 13.0244 32.8522C11.7688 34.2199 10.2266 35.3318 8.48999 36.0981C8.38135 36.1461 8.25376 36.1218 8.16981 36.0392C6.46729 34.3635 5.12292 32.9995 4.07375 31.7848C2.64331 30.1287 1.81489 28.8088 1.38981 27.4361C0.695951 25.1954 0.69595 22.8046 1.38981 20.5639C1.57489 19.9662 1.83643 19.3785 2.19083 18.7688C2.25607 18.6565 2.23822 18.5152 2.14472 18.424L1.92936 18.2138C1.79728 18.0849 1.57633 18.1101 1.48288 18.2679C1.07709 18.9533 0.772332 19.6249 0.557563 20.3185C-0.185855 22.7192 -0.185854 25.2808 0.557564 27.6815C1.36814 30.2992 3.46054 32.6044 7.42852 36.5146L8.10093 37.1753C8.5733 37.6382 9.07008 38.123 9.59214 38.6325L9.59387 38.6342L9.59559 38.6358L9.61969 38.6594C10.1342 39.1614 10.6241 39.6395 11.0922 40.0944L11.7691 40.7506C15.776 44.6229 18.1382 46.6648 20.8205 47.4559C23.2805 48.1814 25.9054 48.1814 28.3655 47.4559C31.0478 46.6648 33.4099 44.6229 37.4168 40.7506L38.0937 40.0944C38.5691 39.6324 39.0671 39.1465 39.5904 38.6358C40.1137 38.1251 40.6116 37.6392 41.085 37.1753L41.7574 36.5146C42.0944 36.1826 42.4178 35.8621 42.7281 35.552C42.8386 35.4415 42.8373 35.2649 42.7255 35.1557L42.5198 34.955C42.4057 34.8437 42.2204 34.8449 42.1076 34.9576C41.7613 35.3037 41.3976 35.6637 41.016 36.0393C40.932 36.122 40.8046 36.1461 40.6959 36.0981C38.9593 35.3318 37.4172 34.2199 36.1615 32.8522C36.0693 32.7518 36.0659 32.6016 36.1491 32.494C37.9761 30.1305 39.0594 27.1887 39.0594 24C39.0594 20.8113 37.9761 17.8695 36.1491 15.506C36.0659 15.3984 36.0693 15.2482 36.1615 15.1478C37.4172 13.7801 38.9593 12.6682 40.6959 11.9019C40.8046 11.8539 40.9322 11.8782 41.0161 11.9608C42.7186 13.6365 44.063 15.0005 45.1122 16.2152C46.5426 17.8713 47.371 19.1912 47.7961 20.5639C48.49 22.8046 48.49 25.1954 47.7961 27.4361C47.62 28.0049 47.3746 28.5647 47.0458 29.143C46.9821 29.255 47.0004 29.3951 47.0932 29.4856L47.3093 29.6965C47.4421 29.826 47.6643 29.7998 47.7568 29.6404C48.1359 28.9867 48.4232 28.3441 48.6284 27.6815C49.3718 25.2808 49.3718 22.7192 48.6284 20.3185C47.8178 17.7008 45.7254 15.3956 41.7574 11.4854L41.085 10.8247C40.6142 10.3633 40.1191 9.88014 39.5989 9.37248L39.592 9.36583L39.5903 9.36417L39.5869 9.3608ZM39.8491 11.3566C40.029 11.2691 40.0718 11.0347 39.9298 10.8959C39.6221 10.5951 39.3041 10.2847 38.9756 9.96414C38.6471 9.64354 38.3291 9.33322 38.0208 9.03291C37.8786 8.89433 37.6384 8.93612 37.5487 9.11167C36.7603 10.6557 35.6907 12.0389 34.4052 13.1974C34.2773 13.3126 34.2773 13.5109 34.4052 13.6261C34.6886 13.8815 34.9614 14.1478 35.2231 14.4244C35.3412 14.5491 35.5444 14.5491 35.6625 14.4244C36.8496 13.1699 38.267 12.126 39.8491 11.3566ZM34.7365 15.506C34.8197 15.3984 34.8163 15.2482 34.7241 15.1478C34.3903 14.7843 34.0364 14.4388 33.6639 14.1132C33.561 14.0232 33.4071 14.0199 33.2968 14.1011C30.8749 15.884 27.8604 16.9412 24.593 16.9412C21.3255 16.9412 18.311 15.884 15.8891 14.1011C15.7788 14.0199 15.6249 14.0232 15.522 14.1132C15.1495 14.4388 14.7956 14.7843 14.4618 15.1478C14.3696 15.2482 14.3662 15.3984 14.4495 15.506C16.2765 17.8695 17.3597 20.8113 17.3597 24C17.3597 27.1887 16.2765 30.1305 14.4495 32.494C14.3662 32.6016 14.3696 32.7518 14.4618 32.8522C14.7956 33.2157 15.1495 33.5612 15.522 33.8868C15.6249 33.9768 15.7788 33.9801 15.8891 33.8989C18.311 32.116 21.3255 31.0588 24.593 31.0588C27.8604 31.0588 30.8749 32.116 33.2968 33.8989C33.4071 33.9801 33.561 33.9768 33.6639 33.8868C34.0364 33.5612 34.3903 33.2157 34.7241 32.8522C34.8163 32.7518 34.8197 32.6016 34.7365 32.494C32.9095 30.1305 31.8262 27.1887 31.8262 24C31.8262 20.8113 32.9095 17.8695 34.7365 15.506ZM24.593 16.0941C27.5349 16.0941 30.2587 15.1824 32.4837 13.6327C32.6399 13.5239 32.6399 13.2996 32.4837 13.1908C30.2587 11.6411 27.5349 10.7294 24.593 10.7294C21.651 10.7294 18.9272 11.6411 16.7022 13.1908C16.546 13.2996 16.546 13.5239 16.7022 13.6327C18.9272 15.1824 21.651 16.0941 24.593 16.0941ZM24.593 9.88235C27.8604 9.88235 30.8749 10.9395 33.2968 12.7225C33.4071 12.8037 33.561 12.8004 33.6639 12.7104C35.0654 11.485 36.2047 9.98 36.99 8.28528C37.0391 8.17926 37.0143 8.05475 36.9296 7.97283C35.2125 6.31136 33.8148 4.9994 32.5701 3.97552C30.8731 2.57958 29.5206 1.77113 28.114 1.3563C25.8179 0.679172 23.368 0.679172 21.072 1.3563C19.6653 1.77113 18.3128 2.57958 16.6158 3.97552C15.3711 4.9994 13.9734 6.31136 12.2563 7.97283C12.1716 8.05476 12.1468 8.17927 12.1959 8.28529C12.9812 9.98001 14.1206 11.485 15.522 12.7104C15.6249 12.8004 15.7788 12.8037 15.8891 12.7225C18.311 10.9395 21.3255 9.88235 24.593 9.88235ZM11.1651 9.03291C11.3073 8.89434 11.5476 8.93613 11.6372 9.11168C12.4256 10.6557 13.4953 12.0389 14.7807 13.1974C14.9086 13.3126 14.9086 13.5109 14.7807 13.6261C14.4974 13.8815 14.2245 14.1478 13.9628 14.4244C13.8447 14.5491 13.6415 14.5491 13.5235 14.4244C12.3363 13.1699 10.9189 12.126 9.33679 11.3566C9.15691 11.2691 9.11408 11.0347 9.25608 10.8959C9.56381 10.5951 9.8818 10.2847 10.2103 9.96414C10.5388 9.64354 10.8568 9.33322 11.1651 9.03291ZM10.9945 24C10.9945 26.871 11.9287 29.5291 13.5167 31.7005C13.6282 31.8529 13.8581 31.8529 13.9695 31.7005C15.5575 29.5291 16.4917 26.871 16.4917 24C16.4917 21.129 15.5575 18.4709 13.9695 16.2995C13.8581 16.1471 13.6282 16.1471 13.5167 16.2995C11.9287 18.4709 10.9945 21.129 10.9945 24ZM9.25608 37.1041C9.11408 36.9653 9.15691 36.7309 9.33679 36.6434C10.9189 35.874 12.3363 34.8301 13.5234 33.5756C13.6415 33.4509 13.8447 33.4509 13.9628 33.5756C14.2245 33.8522 14.4974 34.1185 14.7807 34.3739C14.9086 34.4891 14.9086 34.6874 14.7807 34.8026C13.4953 35.9611 12.4256 37.3443 11.6372 38.8883C11.5476 39.0639 11.3073 39.1057 11.1651 38.9671C10.8568 38.6668 10.5388 38.3565 10.2103 38.0359C9.8818 37.7153 9.56381 37.4049 9.25608 37.1041ZM12.2563 40.0272C12.1716 39.9452 12.1468 39.8207 12.1959 39.7147C12.9812 38.02 14.1206 36.515 15.522 35.2896C15.6249 35.1996 15.7788 35.1963 15.8891 35.2775C18.311 37.0605 21.3255 38.1176 24.593 38.1176C27.8604 38.1176 30.8749 37.0605 33.2968 35.2775C33.4071 35.1963 33.561 35.1996 33.6639 35.2896C35.0654 36.515 36.2048 38.02 36.99 39.7147C37.0391 39.8207 37.0143 39.9452 36.9296 40.0272C35.2125 41.6886 33.8148 43.0006 32.5701 44.0245C30.8731 45.4204 29.5206 46.2289 28.114 46.6437C25.8179 47.3208 23.368 47.3208 21.072 46.6437C19.6653 46.2289 18.3128 45.4204 16.6158 44.0245C15.3711 43.0006 13.9734 41.6886 12.2563 40.0272ZM24.593 31.9059C27.5349 31.9059 30.2587 32.8176 32.4837 34.3673C32.6399 34.4761 32.6399 34.7004 32.4837 34.8092C30.2587 36.3589 27.5349 37.2706 24.593 37.2706C21.651 37.2706 18.9273 36.3589 16.7022 34.8092C16.546 34.7004 16.546 34.4761 16.7022 34.3673C18.9272 32.8176 21.651 31.9059 24.593 31.9059ZM38.0208 38.9671C37.8786 39.1057 37.6384 39.0639 37.5487 38.8883C36.7603 37.3443 35.6907 35.9611 34.4052 34.8026C34.2773 34.6874 34.2773 34.4891 34.4052 34.3739C34.6886 34.1185 34.9614 33.8522 35.2231 33.5756C35.3412 33.4509 35.5444 33.4509 35.6625 33.5756C36.8496 34.8301 38.267 35.874 39.8491 36.6434C40.029 36.7309 40.0718 36.9653 39.9298 37.1041C39.6221 37.4049 39.3041 37.7153 38.9756 38.0359C38.6471 38.3565 38.3291 38.6668 38.0208 38.9671ZM38.1914 24C38.1914 26.871 37.2572 29.5291 35.6692 31.7005C35.5578 31.8529 35.3278 31.8529 35.2164 31.7005C33.6284 29.5291 32.6942 26.871 32.6942 24C32.6942 21.129 33.6284 18.4709 35.2164 16.2995C35.3278 16.1471 35.5578 16.1471 35.6692 16.2995C37.2572 18.4709 38.1914 21.129 38.1914 24Z" fill="url(#paint0_linear)"/>
<defs>
<linearGradient id="paint0_linear" x1="24.593" y1="0" x2="24.593" y2="48" gradientUnits="userSpaceOnUse">
<stop stop-color="#09FEFF"/>
<stop offset="0.494792" stop-color="#2588ED"/>
<stop offset="1" stop-color="#183CC4"/>
</linearGradient>
</defs>
</svg>
