<svg width="42" height="42" viewBox="0 0 42 42" fill="none" xmlns="http://www.w3.org/2000/svg">
<g opacity="0.5">
<path d="M16.3749 21.5002H13.4141C12.5232 21.5002 12.077 20.423 12.707 19.7931L19.5857 12.9144C20.3667 12.1334 21.6331 12.1334 22.4141 12.9144L29.2928 19.7931C29.9228 20.423 29.4766 21.5002 28.5857 21.5002H25.6249C25.0726 21.5002 24.6249 21.9479 24.6249 22.5002V27.0002C24.6249 28.1048 23.7295 29.0002 22.6249 29.0002H19.3749C18.2703 29.0002 17.3749 28.1048 17.3749 27.0002V22.5002C17.3749 21.9479 16.9272 21.5002 16.3749 21.5002Z" fill="#D6D8DF"/>
<path fill-rule="evenodd" clip-rule="evenodd" d="M6.39228 8.49253C6.71489 8.76875 7.19914 8.73007 7.48863 8.4193C9.13883 6.64781 11.1333 5.20123 13.3654 4.18607C13.7501 4.0111 13.9413 3.56763 13.7856 3.17467C13.6282 2.77741 13.1766 2.58304 12.7871 2.7587C10.326 3.8685 8.12982 5.46172 6.31956 7.41734C6.03087 7.72922 6.06947 8.21612 6.39228 8.49253Z" fill="#D6D8DF"/>
<path fill-rule="evenodd" clip-rule="evenodd" d="M8.22034 9.10092C7.58367 9.78439 6.49158 9.89403 5.74189 9.25213C5.00743 8.62326 4.89441 7.48486 5.58571 6.73804C7.48574 4.68543 9.79128 3.01265 12.376 1.8471C13.309 1.42635 14.3574 1.90291 14.7153 2.80635C15.077 3.71932 14.625 4.71179 13.7794 5.09636C11.6687 6.05627 9.78189 7.42459 8.22034 9.10092ZM7.48863 8.4193C7.19914 8.73007 6.71489 8.76875 6.39228 8.49253C6.06947 8.21612 6.03087 7.72922 6.31956 7.41734C8.12982 5.46172 10.326 3.8685 12.7871 2.7587C13.1766 2.58304 13.6282 2.77741 13.7856 3.17467C13.9413 3.56763 13.7501 4.0111 13.3654 4.18607C11.1333 5.20123 9.13883 6.64781 7.48863 8.4193Z" fill="#D6D8DF"/>
<path d="M38.4615 21C38.4615 30.6437 30.6437 38.4615 21 38.4615C11.3563 38.4615 3.53846 30.6437 3.53846 21C3.53846 19.415 3.74941 17.8801 4.14469 16.4212C4.40341 15.4664 3.94186 14.432 3.01214 14.0939C2.10597 13.7643 1.09506 14.2207 0.826774 15.1469C0.288482 17.0052 0 18.9693 0 21C0 32.598 9.40202 42 21 42C32.598 42 42 32.598 42 21C42 9.40202 32.598 0 21 0C20.8109 0 20.6224 0.00250166 20.4345 0.00747437C19.4814 0.0326938 18.7858 0.877333 18.8592 1.8279C18.9361 2.82422 19.8257 3.54912 20.8249 3.53932C20.8832 3.53875 20.9416 3.53846 21 3.53846C30.6437 3.53846 38.4615 11.3563 38.4615 21Z" fill="#D6D8DF"/>
</g>
</svg>
