<svg width="4945" height="1306" viewBox="0 0 4945 1306" fill="none" xmlns="http://www.w3.org/2000/svg">
<path d="M0 777.738C0 546.215 0 430.453 71.9249 358.528C143.85 286.604 259.611 286.604 491.134 286.604H528.262C759.785 286.604 875.547 286.604 947.472 358.528C1019.4 430.453 1019.4 546.215 1019.4 777.738V814.866C1019.4 1046.39 1019.4 1162.15 947.472 1234.08C875.547 1306 759.785 1306 528.262 1306H491.134C259.611 1306 143.85 1306 71.9249 1234.08C0 1162.15 0 1046.39 0 814.866V777.738Z" fill="#339DFF"/>
<path d="M286.604 491.134C286.604 259.611 286.604 143.85 358.529 71.9249C430.454 0 546.215 0 777.738 0H814.866C1046.39 0 1162.15 0 1234.08 71.9249C1306 143.85 1306 259.611 1306 491.134V528.262C1306 759.785 1306 875.547 1234.08 947.472C1162.15 1019.4 1046.39 1019.4 814.866 1019.4H777.738C546.215 1019.4 430.454 1019.4 358.529 947.472C286.604 875.547 286.604 759.785 286.604 528.262V491.134Z" fill="#7018FF"/>
<path d="M289.574 289.574C286.604 344.91 286.604 411.106 286.604 491.134V528.262C286.604 759.785 286.604 875.547 358.529 947.472C430.454 1019.4 546.215 1019.4 777.738 1019.4H814.866C894.894 1019.4 961.091 1019.4 1016.43 1016.43C1019.4 961.09 1019.4 894.894 1019.4 814.866V777.738C1019.4 546.215 1019.4 430.453 947.472 358.528C875.547 286.604 759.786 286.604 528.263 286.604H491.135C411.107 286.604 344.91 286.604 289.574 289.574Z" fill="#4F00CF"/>
<path d="M3339.53 633.432V217.816H3160.73V330.444C3160.73 371.613 3147.36 412.566 3116.02 439.256C3098.71 454.008 3079.32 467.132 3057.86 478.671C3036.39 490.21 3012.92 499.506 2987.45 506.547C2961.96 513.602 2934.97 517.129 2906.45 517.129C2872.81 517.129 2844.12 513.602 2820.42 506.547C2796.71 499.506 2777.39 489.171 2762.5 475.554C2747.6 461.937 2736.7 445.026 2729.81 424.847C2722.92 404.654 2719.48 381.59 2719.48 355.628V217.816H2540.2V373.415C2540.2 417.628 2545.88 457.371 2557.26 492.616C2568.63 527.861 2587.77 567.733 2614.69 592.246C2641.61 616.759 2677.42 635.502 2722.13 648.49C2766.82 661.464 2822.66 667.944 2889.62 667.944C2947.31 667.944 2998.74 660.179 3043.93 644.635C3086.46 630.012 3123.46 602.743 3154.93 579.555C3156.06 578.722 3157.18 577.895 3158.3 577.073L3159.15 576.448C3159.67 576.059 3160.2 575.673 3160.73 575.287V633.432C3160.73 641.771 3159.04 650.74 3155.67 660.351C3152.3 669.962 3146.62 679.655 3138.6 689.43C3130.59 699.205 3120.02 708.652 3106.89 717.784C3093.75 726.917 3077.24 735.01 3057.38 742.064C3037.51 749.105 3014.04 754.724 2986.97 758.88C2959.88 763.05 2928.56 765.128 2893 765.128C2855.18 765.128 2819.38 763.447 2785.57 760.083C2751.76 756.72 2720.12 752.072 2690.64 746.152C2661.17 740.219 2633.83 733.411 2608.69 725.714C2583.54 718.03 2560.7 709.855 2540.2 701.214V861.889C2559.1 868.629 2582.33 874.795 2609.9 880.4C2637.44 886.005 2667 890.968 2698.57 895.302C2730.13 899.622 2762.5 902.985 2795.66 905.391C2828.82 907.797 2860.48 909 2890.59 909C2959.16 909 3021.09 902.903 3076.37 890.735C3131.65 878.554 3178.75 860.85 3217.68 837.622C3256.61 814.394 3286.66 780.958 3307.79 747.312C3328.95 713.667 3339.53 676.374 3339.53 633.432Z" fill="white"/>
<path d="M1884.32 594.598V226.816H1706V670.454C1706 707.941 1711.2 740.301 1721.61 767.534C1732.03 794.768 1748.78 817.285 1771.84 835.071C1794.92 852.844 1824.63 865.982 1861 874.472C1897.38 882.962 1961.94 891.302 2029.96 891.302C2097.98 891.302 2368.34 887.214 2368.34 887.214V728.616H2029.96C2003.04 728.616 1980.37 726.701 1961.94 722.846C1943.52 719.004 1928.54 713.964 1917 703.71C1905.46 693.457 1897.13 679.594 1892.01 662.135C1886.88 644.663 1884.32 622.16 1884.32 594.598Z" fill="white"/>
<path d="M3673.32 225.332H3495V888.729H3673.32V642.426C3673.32 566.831 3704.38 492.618 3763.65 445.698C3800.41 416.602 3834.81 396.647 3888.94 382.145C3948.83 366.095 4007.63 361.702 4060.08 367.345C4064.3 368.14 4075.23 370.189 4082.82 371.514C4090.52 372.857 4102.56 374.813 4102.56 374.813V221.916C4036.33 201.108 3951.79 199.872 3864.94 223.145C3786.73 244.099 3720.09 281.322 3673.32 325.853V225.332Z" fill="white"/>
<path fill-rule="evenodd" clip-rule="evenodd" d="M4766.75 892.389H4945V433.063C4945 390.368 4935.47 353.566 4916.41 322.631C4897.36 291.71 4870.93 266.167 4837.13 246.003C4803.35 225.823 4763.06 210.951 4716.3 201.371C4669.54 191.79 4618.44 187 4563.03 187C4534.84 187 4505.38 188.262 4474.63 190.786C4443.88 193.311 4413.44 196.666 4383.33 200.869C4353.23 205.071 4324.24 210.033 4296.37 215.741C4268.51 221.464 4243.36 227.344 4220.93 233.396V399.776C4242.4 391.042 4266.27 382.637 4292.53 374.577C4318.8 366.503 4346.58 359.447 4375.89 353.394C4405.2 347.342 4435.62 342.552 4467.18 339.024C4498.73 335.496 4530.69 333.732 4563.03 333.732C4604.03 333.732 4637.74 336.414 4664.17 341.792C4690.6 347.17 4711.41 354.154 4726.62 362.716C4741.85 371.293 4752.33 381.203 4758.1 392.476C4763.86 403.734 4766.75 415.078 4766.75 426.509V441.123C4662.32 447.176 4571.92 455.58 4495.52 466.336C4419.13 477.093 4355.95 492.381 4305.98 512.216C4256.02 532.051 4218.86 557.507 4194.52 588.6C4170.18 619.694 4158 658.603 4158 705.329C4158 742.302 4165.76 773.567 4181.3 799.11C4196.84 824.653 4217.42 845.334 4243.05 861.124C4268.67 876.929 4298.05 888.359 4331.21 895.416C4364.36 902.472 4398.71 906 4434.27 906C4464.69 906 4494.88 904.236 4524.84 900.708C4554.78 897.18 4583.85 891.888 4612.04 884.831C4640.22 877.761 4667.36 869.199 4693.48 859.116C4719.58 849.034 4744.01 837.432 4766.75 824.323V892.389ZM4766.75 576.252V667.509C4749.45 680.288 4729.83 692.306 4707.89 703.565C4685.95 714.823 4662.49 724.576 4637.5 732.808C4612.52 741.04 4586.09 747.508 4558.22 752.227C4530.36 756.931 4501.85 759.283 4472.7 759.283C4446.43 759.283 4424.66 757.605 4407.36 754.235C4390.06 750.878 4376.21 746.332 4365.8 740.624C4355.39 734.916 4348.1 728.276 4343.93 720.703C4339.78 713.145 4337.69 705.329 4337.69 697.269C4337.69 690.542 4338.74 683.142 4340.82 675.082C4342.89 667.007 4348.43 658.947 4357.39 650.873C4366.36 642.813 4379.89 634.91 4398 627.18C4416.09 619.45 4440.99 612.221 4472.7 605.495C4504.42 598.769 4544.22 592.889 4592.1 587.855C4639.99 582.806 4698.2 578.948 4766.75 576.252Z" fill="white"/>
<path d="M1831.02 1119.83H1729.65V1022.56H1829.26V1040.14H1758.95V1061.23H1824.57V1079.4H1758.95V1102.25H1831.02V1119.83Z" fill="white"/>
<path d="M2281.79 1119.83H2245.46L2219.68 1088.19C2218.9 1087.41 2217.53 1085.84 2215.58 1083.5C2215.19 1082.72 2214.8 1082.13 2214.41 1081.74C2213.23 1084.09 2211.67 1086.23 2209.72 1088.19L2183.94 1119.83H2149.95L2195.66 1071.2L2152.3 1022.56H2187.45L2209.13 1051.27C2209.52 1052.05 2210.11 1053.03 2210.89 1054.2C2212.06 1055.38 2213.62 1057.13 2215.58 1059.48C2217.53 1056.74 2219.48 1054.01 2221.44 1051.27L2242.53 1022.56H2277.1L2234.33 1071.2L2281.79 1119.83Z" fill="white"/>
<path d="M2719.09 1050.69L2690.96 1055.38C2686.66 1045.22 2677.68 1039.95 2664.01 1039.55C2644.09 1040.34 2633.54 1050.69 2632.37 1070.61C2633.15 1090.92 2643.7 1101.66 2664.01 1102.84C2680.02 1102.45 2689.4 1095.41 2692.13 1081.74L2720.26 1088.19C2714.01 1110.06 2695.26 1121 2664.01 1121C2624.16 1119.44 2603.27 1102.64 2601.31 1070.61C2603.66 1039.36 2624.55 1022.76 2664.01 1020.8C2692.13 1021.59 2710.49 1031.55 2719.09 1050.69Z" fill="white"/>
<path d="M3163.41 1119.83H3134.12V1079.98H3077.87V1119.83H3048.57V1022.56H3077.87V1061.23H3134.12V1022.56H3163.41V1119.83Z" fill="white"/>
<path d="M3618.29 1119.83H3586.06L3576.69 1098.15H3527.47L3518.09 1119.83H3486.45L3534.5 1022.56H3569.66L3618.29 1119.83ZM3571.41 1081.16L3555.01 1048.34C3553.84 1045.22 3552.86 1042.29 3552.08 1039.55H3551.49C3551.1 1042.68 3550.12 1045.61 3548.56 1048.34L3533.91 1081.16H3571.41Z" fill="white"/>
<path d="M4057.34 1119.83H4027.46L3976.48 1058.89C3976.09 1058.5 3975.51 1057.72 3974.73 1056.55C3972.38 1053.42 3970.62 1051.08 3969.45 1049.52C3969.84 1052.25 3970.04 1057.72 3970.04 1065.92V1119.83H3942.5V1022.56H3974.14L4023.36 1081.74C4027.27 1086.82 4029.61 1089.95 4030.39 1091.12C4030 1087.99 4029.8 1083.11 4029.8 1076.47V1022.56H4057.34V1119.83Z" fill="white"/>
<path d="M4508.12 1045.41L4481.16 1053.03C4474.52 1044.05 4463.78 1039.55 4448.94 1039.55C4429.41 1041.12 4418.86 1051.47 4417.3 1070.61C4418.08 1090.92 4429.41 1101.66 4451.28 1102.84C4466.52 1102.84 4476.87 1099.52 4482.34 1092.88V1081.16H4444.25V1062.99H4509.29V1099.32C4501.09 1113.77 4481.36 1121 4450.11 1121C4409.09 1119.83 4387.8 1103.03 4386.24 1070.61C4388.59 1039.36 4409.29 1022.76 4448.35 1020.8C4477.65 1020.8 4497.57 1029.01 4508.12 1045.41Z" fill="white"/>
<path d="M4941.31 1119.83H4839.95V1022.56H4939.55V1040.14H4869.24V1061.23H4934.87V1079.4H4869.24V1102.25H4941.31V1119.83Z" fill="white"/>
</svg>
