<svg width="158" height="36" viewBox="0 0 158 36" fill="none" xmlns="http://www.w3.org/2000/svg">
<g clip-path="url(#clip0)">
<path d="M152.262 27.4089H119.914C118.251 27.4089 117.003 25.8208 117.502 24.1492L120.745 12.6984C121.078 11.6119 122.076 10.8596 123.157 10.8596H155.505C157.169 10.8596 158.416 12.4477 157.917 14.1193L154.674 25.5701C154.341 26.6566 153.343 27.4089 152.262 27.4089Z" fill="#EF4B22"/>
<path d="M128.895 13.4507C127.814 13.4507 126.982 13.4507 125.485 13.6178L124.986 15.4567L122.325 24.7343C123.822 24.9014 124.155 24.9014 125.568 24.9014C128.895 24.9014 131.223 22.7283 132.304 19.2178C133.385 15.5402 132.387 13.4507 128.895 13.4507ZM130.558 19.1343C129.56 22.5611 127.814 23.0626 126.067 23.0626C125.568 23.0626 125.069 23.0626 124.487 23.0626L126.733 15.2059C127.398 15.2059 127.98 15.2059 128.313 15.2059C130.475 15.2059 131.556 15.7074 130.558 19.1343Z" fill="white"/>
<path d="M153.094 13.4507H150.932L147.356 17.5462L146.025 13.4507H144.113L145.942 19.1343L140.87 24.9014H142.949L146.441 20.8895L147.689 24.9014H149.601L147.855 19.3014L153.094 13.4507Z" fill="white"/>
<path d="M136.795 15.206H142.366L142.616 14.2866C142.782 13.7851 142.449 13.3672 141.95 13.3672H137.211H135.547L135.048 15.1224L134.134 18.2149L133.635 19.9702L132.72 23.0627L132.471 23.9821C132.304 24.4836 132.637 24.9015 133.136 24.9015H134.051H139.622L140.121 23.1463H134.549L135.464 20.0538H140.371L140.869 18.2985H135.963L136.795 15.206Z" fill="white"/>
<path d="M73.4283 21.809C73.0125 23.1464 72.264 24.0658 70.8504 24.0658C69.4367 24.0658 69.1872 23.1464 69.603 21.809L71.5156 15.2061H67.6904L65.7777 21.809C64.7798 25.4031 66.1935 27.409 69.8525 27.409C73.5114 27.409 76.0893 25.4031 77.1704 21.809L79.083 15.2061H75.2577L73.4283 21.809Z" fill="#444446"/>
<path d="M93.8853 15.2061C92.3053 15.2061 90.9748 15.624 89.8106 16.2926C89.0621 15.4568 87.8979 15.2061 86.9 15.2061C86.1516 15.2061 85.1537 15.3732 84.0727 16.1255C83.9895 16.209 83.9895 16.209 83.9064 16.2926C83.8232 15.624 83.2411 15.2061 82.4927 15.2061H80.58L77.0874 27.409H80.9127L82.8253 20.8061C83.2411 19.3016 84.3221 18.2986 85.32 18.2986C86.5674 18.2986 87.0664 19.218 86.6506 20.8061L84.7379 27.409H88.5632L90.4758 20.8061C90.8916 19.4687 91.7232 18.2986 93.1369 18.2986C94.5506 18.2986 94.7169 19.4687 94.3011 20.8061L92.3885 27.409H96.2137L98.1264 20.8061C98.9579 17.212 97.5443 15.2061 93.8853 15.2061Z" fill="#444446"/>
<path d="M51.7241 12.7823C52.0567 11.6957 51.3914 10.8599 50.3935 10.8599H48.4809L44.4893 24.8181C44.0735 26.239 44.9051 27.3255 46.3188 27.3255H49.8946L50.9757 23.4808H49.063C48.8967 23.4808 48.8135 23.3136 48.8135 23.1464L50.0609 18.8837H50.4767C51.5578 18.8837 52.6388 18.0479 52.8883 16.9614L53.4704 15.039H51.2251L51.7241 12.7823Z" fill="#444446"/>
<path d="M61.3705 15.2061C60.6221 15.2061 59.7073 15.3733 58.5431 16.1255L59.4579 12.7823C59.7905 11.6957 59.1252 10.8599 58.1273 10.8599H56.2147L51.5579 27.4091H55.3831L57.2958 20.8061C57.7115 19.3017 58.7926 18.2987 59.7905 18.2987C61.0379 18.2987 61.5368 19.2181 61.121 20.8061L59.2084 27.4091H63.0336L64.9463 20.8061C66.1105 16.4599 63.3663 15.2061 61.3705 15.2061Z" fill="#444446"/>
<path d="M34.6768 15.2061C34.0115 15.2061 33.3462 15.2897 32.681 15.4569L33.4294 12.7823C33.762 11.6957 33.0968 10.8599 32.0989 10.8599H30.1862L27.1926 21.3076C26.1115 25.1524 27.442 27.4091 31.1841 27.4091C34.8431 27.4091 37.5041 25.1524 38.5852 21.3076C39.7494 17.4628 38.3357 15.2061 34.6768 15.2061ZM32.0989 24.1494C30.6852 24.1494 30.602 22.8957 31.0178 21.3076C31.4336 19.7196 32.3483 18.4658 33.762 18.4658C35.1757 18.4658 35.2589 19.7196 34.8431 21.3076C34.4273 22.8957 33.5126 24.1494 32.0989 24.1494Z" fill="#444446"/>
<path d="M106.775 15.2061C106.11 15.2061 105.444 15.2897 104.779 15.4569L105.528 12.7823C105.86 11.6957 105.195 10.8599 104.197 10.8599H102.284L99.2907 21.3076C98.2097 25.1524 99.5402 27.4091 103.282 27.4091C106.941 27.4091 109.602 25.1524 110.683 21.3076C111.848 17.4628 110.434 15.2061 106.775 15.2061ZM104.197 24.1494C102.783 24.1494 102.7 22.8957 103.116 21.3076C103.532 19.7196 104.446 18.4658 105.86 18.4658C107.274 18.4658 107.357 19.7196 106.941 21.3076C106.442 22.8957 105.611 24.1494 104.197 24.1494Z" fill="#444446"/>
<path d="M43.5747 15.2061H41.6621L38.1694 27.409H41.9947L44.9052 17.1284C45.1547 16.0419 44.5726 15.2061 43.5747 15.2061Z" fill="#444446"/>
<path d="M45.3112 14.0427C46.2135 13.2566 46.4572 12.0538 45.8555 11.3562C45.2539 10.6586 44.0347 10.7304 43.1325 11.5165C42.2302 12.3027 41.9865 13.5054 42.5881 14.203C43.1898 14.9006 44.4089 14.8288 45.3112 14.0427Z" fill="#444446"/>
<path d="M2.74442 15.9583H2.41179C0.665472 15.9583 -0.332423 14.5374 0.166524 12.7821L1.41389 8.35229H4.98968L2.74442 15.9583Z" fill="#D53026"/>
<path d="M13.6388 8.35224H11.4767L9.31463 15.9582H11.4767C12.8904 15.9582 13.3062 17.0448 12.7241 19.1343C12.142 21.2239 11.0609 22.3104 9.64726 22.3104C8.23357 22.3104 7.81778 21.2239 8.39989 19.1343L12.3915 5.17612C12.8904 3.4209 11.8925 2 10.1462 2H5.73884L0.832521 19.1343C-1.24643 26.3224 1.58094 29.9164 7.48515 29.9164C13.3894 29.9164 18.2125 26.3224 20.2915 19.1343C22.3704 11.9463 19.6262 8.35224 13.6388 8.35224Z" fill="#F27320"/>
<path d="M20.2906 19.1344C22.3695 11.9463 19.5421 8.35229 13.6379 8.35229H11.4758L9.31372 15.9583H11.4758C12.8895 15.9583 13.3053 17.0448 12.7232 19.1344" fill="url(#paint0_linear)"/>
</g>
<defs>
<linearGradient id="paint0_linear" x1="16.8368" y1="15.8479" x2="13.2989" y2="11.9164" gradientUnits="userSpaceOnUse">
<stop stop-color="#D53026" stop-opacity="0"/>
<stop offset="1" stop-color="#D53026"/>
</linearGradient>
<clipPath id="clip0">
<rect width="158" height="28" fill="white" transform="translate(0 2)"/>
</clipPath>
</defs>
</svg>
