<svg width="668" height="360" viewBox="0 0 668 360" fill="none" xmlns="http://www.w3.org/2000/svg">
<mask id="mask0" mask-type="alpha" maskUnits="userSpaceOnUse" x="0" y="0" width="668" height="360">
<rect width="668" height="360" fill="#C4C4C4"/>
</mask>
<g mask="url(#mask0)">
<path fill-rule="evenodd" clip-rule="evenodd" d="M532.44 225.313V150.854H610.875V225.313L571.658 250.778L532.44 225.313Z" fill="#0D4CC7"/>
<path fill-rule="evenodd" clip-rule="evenodd" d="M532.44 225.313V150.854L571.658 159.905V250.778L532.44 225.313Z" fill="#4181FF"/>
<path fill-rule="evenodd" clip-rule="evenodd" d="M532.441 150.854L571.658 125.389L610.876 150.854L571.658 176.319L532.441 150.854Z" fill="#689BFF"/>
<mask id="mask1" mask-type="alpha" maskUnits="userSpaceOnUse" x="540" y="130" width="64" height="42">
<path d="M540.469 150.714L571.966 130.331L603.464 150.714L571.966 171.097L540.469 150.714Z" fill="white"/>
</mask>
<g mask="url(#mask1)">
<path d="M540.469 150.714L571.966 130.331L603.464 150.714L571.966 171.097L540.469 150.714Z" fill="#0D4CC7"/>
<path fill-rule="evenodd" clip-rule="evenodd" d="M540.469 153.802L571.966 133.419L603.464 153.802L571.966 174.186L540.469 153.802Z" fill="#4181FF"/>
<path fill-rule="evenodd" clip-rule="evenodd" d="M609.022 152.164V152.565L571.636 176.761L522.533 144.927V144.537L571.636 176.347L609.022 152.164Z" fill="url(#paint0_linear)"/>
<path fill-rule="evenodd" clip-rule="evenodd" d="M609.022 170.694V171.096L571.636 195.291L522.533 163.457V163.068L571.636 194.877L609.022 170.694Z" fill="url(#paint1_linear)"/>
</g>
<path fill-rule="evenodd" clip-rule="evenodd" d="M400.276 233.174V101.608H498.473V233.174L449.374 264.985L400.276 233.174Z" fill="#0D4CC7"/>
<path opacity="0.3" fill-rule="evenodd" clip-rule="evenodd" d="M451.411 137.326L496.089 108.278V120.014L451.411 149.061V137.326ZM451.411 162.033L496.089 132.985V144.721L451.411 173.769V162.033ZM451.411 180.563L496.089 151.515V163.251L451.411 192.299V180.563Z" fill="#121932"/>
<path fill-rule="evenodd" clip-rule="evenodd" d="M400.276 233.174V101.608L449.374 112.915V264.985L400.276 233.174Z" fill="#4181FF"/>
<path fill-rule="evenodd" clip-rule="evenodd" d="M400.276 101.608L449.374 69.7979L498.473 101.608L449.374 133.419L400.276 101.608Z" fill="#689BFF"/>
<path fill-rule="evenodd" clip-rule="evenodd" d="M401.412 101.608L449.374 132.683L497.337 101.608L487.811 95.4368L449.374 120.326L410.952 95.4271L401.412 101.608Z" stroke="#00EBFF" stroke-width="1.2"/>
<path fill-rule="evenodd" clip-rule="evenodd" d="M401.412 89.2548L449.374 120.329L497.337 89.2548L449.374 58.1801L401.412 89.2548Z" fill="#4181FF" stroke="#00EBFF" stroke-width="1.2"/>
<path opacity="0.4" fill-rule="evenodd" clip-rule="evenodd" d="M439.559 79.3354C439.559 84.0611 439.559 87.0503 439.559 88.3031C439.718 89.8284 440.696 91.3242 442.49 92.4902C446.43 95.05 452.817 95.05 456.757 92.4902C458.563 91.3167 459.541 89.8091 459.691 88.2736C459.691 87.0633 459.691 84.0839 459.691 79.3354C459.577 80.475 459.265 81.4353 458.754 82.2163C458.585 82.4753 458.113 82.9268 457.338 83.5707C456.852 83.2461 456.553 83.0436 456.443 82.9632C454.822 82.2201 453.279 81.7095 451.814 81.4315L449.625 81.2659L445.106 81.9322L443.3 82.6654C442.593 83.2689 442.091 83.5393 441.794 83.4765C441.497 83.4137 440.861 82.6768 439.884 81.2659L439.559 79.3354Z" fill="#00EBFF"/>
<path opacity="0.6" fill-rule="evenodd" clip-rule="evenodd" d="M442.838 84.1473C446.585 86.5821 452.661 86.5821 456.408 84.1473C460.155 81.7125 460.155 77.7649 456.408 75.3301C452.661 72.8953 446.585 72.8953 442.838 75.3301C439.091 77.7649 439.091 81.7125 442.838 84.1473Z" fill="#00EBFF"/>
<path fill-rule="evenodd" clip-rule="evenodd" d="M442.838 84.1473C446.585 86.5821 452.661 86.5821 456.408 84.1473C460.155 81.7125 460.155 77.7649 456.408 75.3301C452.661 72.8953 446.585 72.8953 442.838 75.3301C439.091 77.7649 439.091 81.7125 442.838 84.1473Z" stroke="#00EBFF" stroke-width="1.2"/>
<path d="M449.422 78.8011V36.042" stroke="url(#paint2_linear)" stroke-width="1.2" stroke-linecap="round" stroke-linejoin="round"/>
<path fill-rule="evenodd" clip-rule="evenodd" d="M317.519 239.969V130.639H415.716V239.969L366.617 271.779L317.519 239.969Z" fill="#0D4CC7"/>
<path fill-rule="evenodd" clip-rule="evenodd" d="M317.519 239.969V130.639L366.617 141.946V271.779L317.519 239.969Z" fill="#4181FF"/>
<path fill-rule="evenodd" clip-rule="evenodd" d="M317.52 130.639L366.618 98.8289L415.717 130.639L366.618 162.45L317.52 130.639Z" fill="#689BFF"/>
<path fill-rule="evenodd" clip-rule="evenodd" d="M335.429 131.875V128.81H397.188V131.875L366.308 151.949L335.429 131.875Z" fill="#0D4CC7"/>
<path fill-rule="evenodd" clip-rule="evenodd" d="M335.429 131.875V128.81L366.308 141.14V151.949L335.429 131.875Z" fill="#4181FF"/>
<path fill-rule="evenodd" clip-rule="evenodd" d="M335.429 128.786L366.308 108.712L397.188 128.786L366.308 148.861L335.429 128.786Z" fill="#689BFF"/>
<path opacity="0.1" fill-rule="evenodd" clip-rule="evenodd" d="M317.519 130.721V130.331L366.621 162.14L415.72 130.381V130.778L366.621 162.554L317.519 130.721Z" fill="#121932"/>
<path opacity="0.1" fill-rule="evenodd" clip-rule="evenodd" d="M317.519 149.251V148.861L366.621 180.671L415.72 148.911V149.309L366.621 181.085L317.519 149.251Z" fill="#121932"/>
<path opacity="0.1" fill-rule="evenodd" clip-rule="evenodd" d="M317.519 167.781V167.391L366.621 199.201L415.72 167.442V167.839L366.621 199.615L317.519 167.781Z" fill="#121932"/>
<path opacity="0.1" fill-rule="evenodd" clip-rule="evenodd" d="M317.519 186.312V185.922L366.621 217.731L415.72 185.972V186.37L366.621 218.146L317.519 186.312Z" fill="#121932"/>
<path opacity="0.1" fill-rule="evenodd" clip-rule="evenodd" d="M317.519 204.842V204.452L366.621 236.262L415.72 204.503V204.9L366.621 236.676L317.519 204.842Z" fill="#121932"/>
<path opacity="0.1" fill-rule="evenodd" clip-rule="evenodd" d="M317.519 223.373V222.983L366.621 254.792L415.72 223.033V223.431L366.621 255.207L317.519 223.373Z" fill="#121932"/>
<path fill-rule="evenodd" clip-rule="evenodd" d="M493.533 222.368V137.122H552.204V222.368L522.868 241.513L493.533 222.368Z" fill="#0D4CC7"/>
<path opacity="0.3" fill-rule="evenodd" clip-rule="evenodd" d="M524.412 161.422L551.446 143.92V149.479L524.412 166.981V161.422ZM524.412 173.775L551.446 156.273V161.832L524.412 179.335V173.775ZM524.412 186.129L551.446 168.627V174.186L524.412 191.688V186.129ZM524.412 198.483L551.446 180.98V186.539L524.412 204.042V198.483ZM524.412 210.836L551.446 193.334V198.893L524.412 216.395V210.836ZM524.412 223.19L551.446 205.688V211.247L524.412 228.749V223.19ZM524.412 235.543L551.446 218.041V223.6L524.412 241.103V235.543Z" fill="#121932"/>
<path fill-rule="evenodd" clip-rule="evenodd" d="M493.533 222.368V137.122L522.868 143.927V241.513L493.533 222.368Z" fill="#4181FF"/>
<path fill-rule="evenodd" clip-rule="evenodd" d="M493.533 137.122L522.868 117.977L552.204 137.122L522.868 156.267L493.533 137.122Z" fill="#689BFF"/>
<path fill-rule="evenodd" clip-rule="evenodd" d="M494.663 124.769L522.869 143.176L551.074 124.769L522.869 106.361L494.663 124.769Z" fill="#4181FF" stroke="#00EBFF" stroke-width="1.2"/>
<path fill-rule="evenodd" clip-rule="evenodd" d="M494.663 137.122L522.869 155.53L551.074 137.122L541.609 130.945L522.869 143.181L504.132 130.943L494.663 137.122Z" stroke="#00EBFF" stroke-width="1.2"/>
<path fill-rule="evenodd" clip-rule="evenodd" d="M522.56 277.959V237.186H581.231V277.959L551.895 297.104L522.56 277.959Z" fill="#0D4CC7"/>
<path opacity="0.3" fill-rule="evenodd" clip-rule="evenodd" d="M552.822 260.93L579.856 243.428V248.987L552.822 266.489V260.93ZM552.822 273.284L579.856 255.781V261.341L552.822 278.843V273.284ZM552.822 285.637L579.856 268.135V273.694L552.822 291.196V285.637Z" fill="#121932"/>
<path fill-rule="evenodd" clip-rule="evenodd" d="M522.56 277.959V237.186L551.895 243.991V297.104L522.56 277.959Z" fill="#4181FF"/>
<path fill-rule="evenodd" clip-rule="evenodd" d="M522.56 237.186L551.895 218.041L581.231 237.186L551.895 256.332L522.56 237.186Z" fill="#689BFF"/>
<path fill-rule="evenodd" clip-rule="evenodd" d="M523.689 237.186L551.895 255.594L580.101 237.186L573.011 232.559L551.895 246.347L530.789 232.553L523.689 237.186Z" stroke="#00EBFF" stroke-width="1.2"/>
<path fill-rule="evenodd" clip-rule="evenodd" d="M523.689 227.921L551.895 246.329L580.101 227.921L551.895 209.513L523.689 227.921Z" fill="#689BFF" stroke="#00EBFF" stroke-width="1.2"/>
<path fill-rule="evenodd" clip-rule="evenodd" d="M545.323 231.669C541.322 229.134 541.322 224.861 545.323 222.327C549.142 219.907 555.265 219.907 559.085 222.327C563.085 224.861 563.085 229.134 559.085 231.669C555.265 234.088 549.142 234.088 545.323 231.669Z" stroke="#00EBFF" stroke-width="1.2"/>
<path fill-rule="evenodd" clip-rule="evenodd" d="M548.71 229.49C550.64 230.696 553.768 230.696 555.698 229.49C557.627 228.284 557.627 226.329 555.698 225.123C553.768 223.916 550.64 223.916 548.71 225.123C546.781 226.329 546.781 228.284 548.71 229.49Z" fill="#00EBFF"/>
<path d="M551.891 227.511V198.959" stroke="url(#paint3_linear)" stroke-width="1.2"/>
<path d="M551.576 169.386V137.127" stroke="#00EBFF" stroke-width="1.2"/>
<path opacity="0.2" d="M636.952 266.15L596.07 292.618L580.602 282.624V237.183" stroke="#4181FF" stroke-width="2"/>
<path opacity="0.2" fill-rule="evenodd" clip-rule="evenodd" d="M636.455 265.902C640.917 268.797 648.151 268.797 652.613 265.902C657.075 263.008 657.075 258.315 652.613 255.42C648.151 252.525 640.917 252.525 636.455 255.42C631.993 258.315 631.993 263.008 636.455 265.902Z" stroke="#4181FF" stroke-width="2"/>
<path opacity="0.2" fill-rule="evenodd" clip-rule="evenodd" d="M640.476 263.809C642.888 265.377 646.798 265.377 649.21 263.809C651.622 262.241 651.622 259.699 649.21 258.131C646.798 256.563 642.888 256.563 640.476 258.131C638.064 259.699 638.064 262.241 640.476 263.809Z" fill="#4181FF"/>
<path fill-rule="evenodd" clip-rule="evenodd" d="M452.153 277.232V184.174H522.559V277.232L487.356 300.193L452.153 277.232Z" fill="#0D4CC7"/>
<path fill-rule="evenodd" clip-rule="evenodd" d="M452.153 277.232V184.174L487.356 192.336V300.193L452.153 277.232Z" fill="#4181FF"/>
<path fill-rule="evenodd" clip-rule="evenodd" d="M452.153 184.175L487.356 161.215L522.559 184.175L487.356 207.135L452.153 184.175Z" fill="#689BFF"/>
<path fill-rule="evenodd" clip-rule="evenodd" d="M466.358 184.378V178.209H508.354V184.378L487.356 198.275L466.358 184.378Z" fill="#0D4CC7"/>
<path fill-rule="evenodd" clip-rule="evenodd" d="M466.358 184.378V178.209L487.356 180.363V198.275L466.358 184.378Z" fill="#4181FF"/>
<path fill-rule="evenodd" clip-rule="evenodd" d="M466.358 178.201L487.356 164.303L508.354 178.201L487.356 192.099L466.358 178.201Z" fill="#689BFF"/>
<path opacity="0.1" fill-rule="evenodd" clip-rule="evenodd" d="M452.154 184.335L487.353 207.138L522.559 184.365V184.767L487.353 207.552L452.154 184.732V184.335Z" fill="#121932"/>
<path opacity="0.1" fill-rule="evenodd" clip-rule="evenodd" d="M452.153 202.866L487.353 225.668L522.559 202.896V203.298L487.353 226.083L452.153 203.262V202.866Z" fill="#121932"/>
<path opacity="0.1" fill-rule="evenodd" clip-rule="evenodd" d="M452.153 221.396L487.353 244.199L522.559 221.426V221.828L487.353 244.613L452.153 221.793V221.396Z" fill="#121932"/>
<path opacity="0.1" fill-rule="evenodd" clip-rule="evenodd" d="M452.153 239.926L487.353 262.729L522.559 239.956V240.359L487.353 263.144L452.153 240.323V239.926Z" fill="#121932"/>
<path opacity="0.1" fill-rule="evenodd" clip-rule="evenodd" d="M452.153 258.457L487.353 281.26L522.559 258.487V258.889L487.353 281.674L452.153 258.854V258.457Z" fill="#121932"/>
<path fill-rule="evenodd" clip-rule="evenodd" d="M452.153 276.987L487.353 299.79L522.559 277.017V277.419L487.353 300.204L452.153 277.384V276.987Z" fill="url(#paint4_linear)"/>
<path fill-rule="evenodd" clip-rule="evenodd" d="M366.926 315.326V245.528H465.123V315.326L416.025 347.136L366.926 315.326Z" fill="#0D4CC7"/>
<path opacity="0.3" fill-rule="evenodd" clip-rule="evenodd" d="M418.187 284.004L463.311 254.704V260.263L418.187 289.563V284.004ZM418.187 296.357L463.311 267.057V272.616L418.187 301.916V296.357ZM418.187 308.711L463.311 279.411V284.97L418.187 314.27V308.711ZM418.187 321.064L463.311 291.764V297.324L418.187 326.624V321.064ZM418.187 333.418L463.311 304.118V309.677L418.187 338.977V333.418Z" fill="#121932"/>
<path fill-rule="evenodd" clip-rule="evenodd" d="M366.926 315.326V245.528L416.025 256.834V347.136L366.926 315.326Z" fill="#4181FF"/>
<path fill-rule="evenodd" clip-rule="evenodd" d="M366.926 245.528L416.025 213.717L465.123 245.528L416.025 277.339L366.926 245.528Z" fill="#689BFF"/>
<path fill-rule="evenodd" clip-rule="evenodd" d="M368.062 233.174L416.025 264.249L463.987 233.174L416.025 202.1L368.062 233.174Z" fill="#4181FF" stroke="#00EBFF" stroke-width="1.2"/>
<path fill-rule="evenodd" clip-rule="evenodd" d="M368.062 245.528L416.025 276.603L463.987 245.528L454.454 239.351L416.025 264.264L377.587 239.357L368.062 245.528Z" stroke="#00EAFF" stroke-width="1.2"/>
<path d="M416.003 226.078V186.038" stroke="url(#paint5_linear)" stroke-width="1.2" stroke-linecap="round" stroke-linejoin="round"/>
<path opacity="0.4" fill-rule="evenodd" clip-rule="evenodd" d="M406.209 226.343C406.209 231.069 406.209 234.058 406.209 235.311C406.369 236.836 407.346 238.332 409.14 239.498C413.08 242.058 419.467 242.058 423.407 239.498C425.213 238.325 426.191 236.817 426.341 235.282C426.341 234.071 426.341 231.092 426.341 226.343C426.227 227.483 425.915 228.443 425.405 229.224C425.235 229.483 424.763 229.935 423.988 230.579C423.502 230.254 423.204 230.052 423.093 229.971C421.473 229.228 419.93 228.717 418.464 228.44L416.275 228.274L411.756 228.94L409.951 229.673C409.244 230.277 408.742 230.547 408.445 230.485C408.148 230.422 407.511 229.685 406.535 228.274L406.209 226.343Z" fill="#00EBFF"/>
<path opacity="0.6" fill-rule="evenodd" clip-rule="evenodd" d="M409.489 231.155C413.236 233.59 419.311 233.59 423.058 231.155C426.806 228.721 426.806 224.773 423.058 222.338C419.311 219.903 413.236 219.903 409.489 222.338C405.741 224.773 405.741 228.721 409.489 231.155Z" fill="#00EBFF"/>
<path fill-rule="evenodd" clip-rule="evenodd" d="M409.489 231.155C413.236 233.59 419.311 233.59 423.058 231.155C426.806 228.721 426.806 224.773 423.058 222.338C419.311 219.903 413.236 219.903 409.489 222.338C405.741 224.773 405.741 228.721 409.489 231.155Z" stroke="#00EBFF" stroke-width="1.2"/>
<path fill-rule="evenodd" clip-rule="evenodd" d="M288.492 264.37V198.272H347.163V264.37L317.828 283.515L288.492 264.37Z" fill="#0D4CC7"/>
<path opacity="0.3" fill-rule="evenodd" clip-rule="evenodd" d="M319.989 219.186L345.321 202.638V208.197L319.989 224.745V219.186ZM319.989 231.54L345.321 214.992V220.551L319.989 237.099V231.54ZM319.989 243.893L345.321 227.345V232.905L319.989 249.453V243.893ZM319.989 256.247L345.321 239.699V245.258L319.989 261.806V256.247ZM319.989 268.601L345.321 252.053V257.612L319.989 274.16V268.601Z" fill="#121932"/>
<path fill-rule="evenodd" clip-rule="evenodd" d="M288.492 264.37V198.272L317.828 205.077V283.515L288.492 264.37Z" fill="#4181FF"/>
<path fill-rule="evenodd" clip-rule="evenodd" d="M288.492 198.272L317.828 179.127L347.163 198.272L317.828 217.418L288.492 198.272Z" fill="#689BFF"/>
<path fill-rule="evenodd" clip-rule="evenodd" d="M289.623 189.007L317.828 207.415L346.034 189.007L317.828 170.6L289.623 189.007Z" fill="#4181FF" stroke="#00EBFF" stroke-width="1.2"/>
<path fill-rule="evenodd" clip-rule="evenodd" d="M310.638 193.372C306.638 190.838 306.638 186.564 310.638 184.03C314.458 181.611 320.581 181.611 324.4 184.03C328.401 186.564 328.401 190.838 324.4 193.372C320.581 195.792 314.458 195.792 310.638 193.372Z" stroke="#00EBFF" stroke-width="1.2"/>
<path fill-rule="evenodd" clip-rule="evenodd" d="M314.025 191.194C315.955 192.4 319.083 192.4 321.012 191.194C322.942 189.988 322.942 188.032 321.012 186.826C319.083 185.62 315.955 185.62 314.025 186.826C312.096 188.032 312.096 189.988 314.025 191.194Z" fill="#00EBFF"/>
<path fill-rule="evenodd" clip-rule="evenodd" d="M289.623 198.273L317.828 216.68L346.034 198.273L338.928 193.635L317.828 207.436L296.708 193.649L289.623 198.273Z" stroke="#00EAFF" stroke-width="1.2"/>
<path d="M317.837 187.812V166.672" stroke="url(#paint6_linear)" stroke-width="1.2"/>
<path opacity="0.2" d="M213.201 234.695L253.558 260.823L289.125 237.66V198.272" stroke="#4181FF" stroke-width="2"/>
<path opacity="0.2" fill-rule="evenodd" clip-rule="evenodd" d="M197.346 234.401C201.808 237.295 209.043 237.295 213.504 234.401C217.966 231.506 217.966 226.813 213.504 223.918C209.043 221.024 201.808 221.024 197.346 223.918C192.885 226.813 192.885 231.506 197.346 234.401Z" stroke="#4181FF" stroke-width="2"/>
<path opacity="0.2" fill-rule="evenodd" clip-rule="evenodd" d="M201.367 232.307C203.779 233.875 207.689 233.875 210.101 232.307C212.513 230.739 212.513 228.197 210.101 226.629C207.689 225.061 203.779 225.061 201.367 226.629C198.955 228.197 198.955 230.739 201.367 232.307Z" fill="#4181FF"/>
<g opacity="0.8">
<path fill-rule="evenodd" clip-rule="evenodd" d="M640.298 229.301L639.555 228.897C638.37 230.246 637.431 231.465 636.737 232.554C635.698 234.188 635.873 236.198 638.518 235.579C641.162 234.96 642.704 234.511 643.131 232.295C643.416 230.818 643.824 229.82 644.356 229.301V231.989H644.973C645.117 229.634 645.328 228.057 645.605 227.259C646.019 226.062 646.354 224.603 645.284 223.613C644.571 222.953 642.909 224.849 640.298 229.301Z" fill="black"/>
<path fill-rule="evenodd" clip-rule="evenodd" d="M654.833 218.194C653.724 221.696 652.9 223.859 652.361 224.685C651.553 225.922 652.276 228.409 654.483 227.671C656.69 226.933 658.181 225.341 658.181 223.404C658.181 221.467 658.776 219.005 659.392 219.599L660.154 221.848H660.896C660.401 220.139 660.154 218.922 660.154 218.194C660.154 217.104 659.177 214.249 657.005 214.249C655.557 214.249 654.833 215.564 654.833 218.194Z" fill="black"/>
<path fill-rule="evenodd" clip-rule="evenodd" d="M646.752 206.74C648.66 209.402 650.282 211.472 651.617 212.951C653.618 215.17 654.881 216.729 654.409 219.258C653.937 221.788 653.39 224.309 654.82 224.309C656.25 224.309 657.657 221.223 657.657 218.462C657.657 215.701 658.111 214.831 656.81 213.637C655.509 212.444 655.036 210.376 653.823 208.103C652.61 205.831 651.656 200.761 648.397 199.397C646.225 198.487 645.676 200.935 646.752 206.74Z" fill="#BBFAFF"/>
<path fill-rule="evenodd" clip-rule="evenodd" d="M648.436 200.349C648.619 207.142 648.2 212.097 647.179 215.214C645.648 219.889 645.21 222.391 645.21 224.487C645.21 226.583 643.013 231.903 640.779 232.402C638.545 232.901 637.294 232.644 639.264 229.456C641.234 226.269 642.651 221.559 642.651 217.377C642.651 213.195 641.208 200.783 643.38 199.433C644.829 198.533 646.514 198.838 648.436 200.349Z" fill="#BBFAFF"/>
<path fill-rule="evenodd" clip-rule="evenodd" d="M636.392 160.317C633.632 160.744 631.4 160.744 629.693 160.317C627.987 159.89 628.365 160.985 630.826 163.602C633.658 164.316 636.161 164.316 638.335 163.602C640.509 162.888 639.861 161.793 636.392 160.317Z" fill="#00EBFF"/>
<path fill-rule="evenodd" clip-rule="evenodd" d="M650.974 201.541C647.662 203.404 644.217 203.404 640.639 201.541C635.028 186.562 634.306 175.668 638.473 168.858L650.465 169.137C654.888 173.18 656.026 178.411 653.879 184.83C651.732 191.249 650.764 196.819 650.974 201.541Z" fill="url(#paint7_linear)"/>
<path fill-rule="evenodd" clip-rule="evenodd" d="M637.563 169.584C638.072 165.789 637.718 163.22 636.501 161.879C634.677 159.867 633.339 156.745 635.12 153.368C636.901 149.991 636.772 147.812 637.168 146.518C637.563 145.224 639.904 145.039 642.661 145.132C645.417 145.224 649.161 146.767 651.342 148.419C653.522 150.07 655.724 151.385 655.724 159.262C654.527 160.078 652.99 160.218 651.112 159.683C650.186 161.373 649.87 163.092 650.164 164.841C650.457 166.59 650.773 168.171 651.112 169.584C649.567 170.839 647.53 171.586 645.003 171.824C642.475 172.063 639.995 171.317 637.563 169.584Z" fill="url(#paint8_linear)"/>
<path fill-rule="evenodd" clip-rule="evenodd" d="M639.617 173.385L635.581 153.521L622.141 145.916L626.223 165.565L639.617 173.385Z" fill="#4181FF"/>
<path fill-rule="evenodd" clip-rule="evenodd" d="M639.093 169.776C637.792 170.029 636.883 170.181 635.893 169.497C634.903 168.812 633.938 168.181 633.708 166.906C633.478 165.632 633.564 165.247 633.895 165.247C634.227 165.247 634.53 166.358 635.652 166.906C636.773 167.454 638.401 167.066 638.142 166.323C637.969 165.827 637.83 165.379 637.723 164.977C639.049 164.871 639.961 165.116 640.457 165.712C640.953 166.307 641.497 167.148 642.395 167.427L649.804 167.915L650.971 161.72L655.209 164.977L654.066 169.776C652.935 171.635 651.047 172.324 648.403 171.843C644.436 171.122 639.96 169.608 639.093 169.776Z" fill="#BBFAFF"/>
<path fill-rule="evenodd" clip-rule="evenodd" d="M635.552 137.694C634.057 136.604 633.443 135.114 633.709 133.221C634.109 130.383 637.588 127.963 642.704 128.892C647.82 129.822 650.082 134.44 649.371 137.694C648.661 140.947 646.091 144.381 644.397 144.381C643.268 144.381 640.32 142.152 635.552 137.694Z" fill="black"/>
<path fill-rule="evenodd" clip-rule="evenodd" d="M649.877 164.895C650.164 159.721 650.487 156.131 650.844 154.125C651.38 151.116 654.693 149.32 655.71 153.594C656.388 156.444 656.194 160.69 655.13 166.332L649.877 164.895Z" fill="url(#paint9_linear)"/>
<path fill-rule="evenodd" clip-rule="evenodd" d="M637.89 132.908C636.988 132.908 639.591 132.515 638.664 132.908C637.737 133.301 634.431 135.956 635.47 137.606C636.51 139.256 636.08 140.694 636.869 142.542C637.657 144.39 637.638 146.284 641.22 145.995C641.204 146.362 641.027 147.024 640.69 147.979C640.185 149.412 638.687 150.859 638.98 154.442C642.221 152.877 644.178 151.584 644.85 150.565C645.858 149.036 647.56 148.286 646.94 145.414C646.32 142.542 646.251 142.285 646.595 140.591C646.94 138.897 647.473 137.374 645.951 136.899C644.429 136.424 643.793 136.052 642.703 134.964C641.613 133.876 638.792 132.908 637.89 132.908Z" fill="#BBFAFF"/>
<path fill-rule="evenodd" clip-rule="evenodd" d="M624.945 157.665C625.99 157.463 626.708 158.131 627.097 159.668C627.682 161.973 626.66 162.252 626.021 162.252C625.382 162.252 624.848 162.385 624.241 160.381C623.836 159.045 624.071 158.139 624.945 157.665Z" fill="#BBFAFF"/>
<path fill-rule="evenodd" clip-rule="evenodd" d="M634.49 134.339C635.626 136.527 637.345 137.621 639.646 137.621C643.097 137.621 644.892 136.959 644.892 139.544C644.892 142.129 642.447 148.786 647.081 148.786C651.716 148.786 654.798 150.48 655.551 153.952C656.303 157.424 659.363 155.799 656.576 152.069C653.79 148.339 649.144 144.945 649.652 139.927C650.16 134.91 650.139 129.904 644.892 128.402C639.646 126.9 636.721 127.502 634.888 129.905C633.667 131.507 633.534 132.985 634.49 134.339Z" fill="black"/>
</g>
<path opacity="0.6" fill-rule="evenodd" clip-rule="evenodd" d="M415.543 159.387C420.803 162.754 425.352 168.716 427.517 174.531C427.979 174.759 428.45 175.026 428.93 175.333C434.252 178.739 438.567 185.818 438.567 191.143C438.567 196.446 434.287 198.011 428.995 194.658L403.772 178.514C403.58 178.384 403.386 178.267 403.19 178.141C398.511 175.147 394.718 168.923 394.718 164.241C394.718 159.719 398.257 158.289 402.714 160.896C404.288 156.295 409.435 155.478 415.543 159.387Z" fill="url(#paint10_linear)"/>
<path fill-rule="evenodd" clip-rule="evenodd" d="M415.543 159.387C420.803 162.754 425.352 168.716 427.517 174.531C427.979 174.759 428.45 175.026 428.93 175.333C434.252 178.739 438.567 185.818 438.567 191.143C438.567 196.446 434.287 198.011 428.995 194.658L403.772 178.514C403.58 178.384 403.386 178.267 403.19 178.141C398.511 175.147 394.718 168.923 394.718 164.241C394.718 159.719 398.257 158.289 402.714 160.896C404.288 156.295 409.435 155.478 415.543 159.387Z" stroke="#FCC842" stroke-width="1.2"/>
<path opacity="0.6" fill-rule="evenodd" clip-rule="evenodd" d="M396.206 160.478C400.456 156.978 402.842 154.968 403.364 154.446C404.775 153.036 407.26 153.043 410.126 154.719C411.699 150.118 416.847 149.301 422.954 153.21C428.215 156.577 432.763 162.539 434.929 168.355C435.39 168.582 435.862 168.849 436.342 169.156C441.664 172.562 445.978 179.641 445.978 184.966C445.978 187.093 445.29 188.619 444.124 189.467C443.022 190.268 440.872 191.953 437.674 194.522C437.606 194.577 440.721 185.106 431.017 177.118C430.334 176.556 428.387 175.854 427.667 174.368C422.954 164.638 418.308 159.787 410.126 157.179C406.867 156.14 404.212 158.339 402.272 160.478C400.261 159.418 398.239 159.418 396.206 160.478Z" fill="url(#paint11_linear)"/>
<path d="M396.206 160.478C400.456 156.978 402.842 154.968 403.364 154.446C404.775 153.036 407.26 153.043 410.126 154.719C411.699 150.118 416.847 149.301 422.954 153.21C428.215 156.577 432.763 162.539 434.929 168.355C435.39 168.582 435.862 168.849 436.342 169.156C441.664 172.562 445.978 179.641 445.978 184.966C445.978 187.093 445.29 188.619 444.124 189.467C443.022 190.268 440.872 191.953 437.674 194.522" stroke="#FCC842" stroke-width="1.2"/>
<path opacity="0.6" fill-rule="evenodd" clip-rule="evenodd" d="M548.382 175.542C552.565 178.226 556.182 182.979 557.904 187.616C558.271 187.797 558.646 188.01 559.027 188.255C563.259 190.971 566.69 196.615 566.69 200.86C566.69 205.089 563.287 206.336 559.079 203.663L539.022 190.792C538.869 190.688 538.715 190.594 538.559 190.495C534.839 188.107 531.822 183.145 531.822 179.412C531.822 175.807 534.636 174.666 538.181 176.745C539.432 173.076 543.525 172.425 548.382 175.542Z" fill="url(#paint12_linear)"/>
<path fill-rule="evenodd" clip-rule="evenodd" d="M548.382 175.542C552.565 178.226 556.182 182.979 557.904 187.616C558.271 187.797 558.646 188.01 559.027 188.255C563.259 190.971 566.69 196.615 566.69 200.86C566.69 205.089 563.287 206.336 559.079 203.663L539.022 190.792C538.869 190.688 538.715 190.594 538.559 190.495C534.839 188.107 531.822 183.145 531.822 179.412C531.822 175.807 534.636 174.666 538.181 176.745C539.432 173.076 543.525 172.425 548.382 175.542Z" stroke="#FCC842" stroke-width="1.2"/>
<path opacity="0.6" fill-rule="evenodd" clip-rule="evenodd" d="M533.005 176.411C536.384 173.621 538.282 172.018 538.697 171.602C539.818 170.478 541.795 170.484 544.074 171.82C545.325 168.152 549.418 167.5 554.275 170.617C558.458 173.301 562.074 178.055 563.797 182.691C564.163 182.873 564.539 183.086 564.92 183.33C569.152 186.046 572.583 191.69 572.583 195.936C572.583 197.632 572.036 198.848 571.108 199.524C570.232 200.163 568.523 201.507 565.979 203.555C565.925 203.598 568.403 196.047 560.686 189.679C560.143 189.231 558.594 188.671 558.022 187.486C554.275 179.728 550.58 175.86 544.074 173.781C541.482 172.953 539.371 174.706 537.828 176.411C536.23 175.566 534.622 175.566 533.005 176.411Z" fill="url(#paint13_linear)"/>
<path d="M533.005 176.411C536.384 173.621 538.282 172.018 538.697 171.602C539.818 170.478 541.795 170.484 544.074 171.82C545.325 168.152 549.418 167.5 554.275 170.617C558.458 173.301 562.074 178.055 563.797 182.691C564.163 182.873 564.539 183.086 564.92 183.33C569.152 186.046 572.583 191.69 572.583 195.936C572.583 197.632 572.036 198.848 571.108 199.524C570.232 200.163 568.523 201.507 565.979 203.555" stroke="#FCC842" stroke-width="1.2"/>
<path opacity="0.6" fill-rule="evenodd" clip-rule="evenodd" d="M314.315 142.805C318.498 145.489 322.115 150.242 323.837 154.879C324.204 155.06 324.579 155.273 324.961 155.518C329.193 158.234 332.623 163.878 332.623 168.123C332.623 172.352 329.22 173.599 325.012 170.926L304.955 158.055C304.802 157.951 304.648 157.857 304.492 157.758C300.772 155.37 297.755 150.408 297.755 146.675C297.755 143.07 300.569 141.929 304.114 144.008C305.365 140.339 309.459 139.688 314.315 142.805Z" fill="url(#paint14_linear)"/>
<path fill-rule="evenodd" clip-rule="evenodd" d="M314.315 142.805C318.498 145.489 322.115 150.242 323.837 154.879C324.204 155.06 324.579 155.273 324.961 155.518C329.193 158.234 332.623 163.878 332.623 168.123C332.623 172.352 329.22 173.599 325.012 170.926L304.955 158.055C304.802 157.951 304.648 157.857 304.492 157.758C300.772 155.37 297.755 150.408 297.755 146.675C297.755 143.07 300.569 141.929 304.114 144.008C305.365 140.339 309.459 139.688 314.315 142.805Z" stroke="#FCC842" stroke-width="1.2"/>
<path opacity="0.6" fill-rule="evenodd" clip-rule="evenodd" d="M298.938 143.674C302.317 140.884 304.215 139.281 304.63 138.865C305.751 137.741 307.728 137.747 310.007 139.083C311.258 135.415 315.351 134.763 320.208 137.88C324.391 140.564 328.008 145.318 329.73 149.954C330.096 150.136 330.472 150.349 330.853 150.594C335.085 153.309 338.516 158.953 338.516 163.199C338.516 164.895 337.969 166.111 337.042 166.787C336.165 167.426 334.456 168.77 331.912 170.818C331.858 170.861 334.336 163.31 326.619 156.942C326.076 156.494 324.527 155.934 323.955 154.749C320.208 146.991 316.513 143.123 310.007 141.044C307.416 140.216 305.304 141.969 303.762 143.674C302.163 142.829 300.555 142.829 298.938 143.674Z" fill="url(#paint15_linear)"/>
<path d="M298.938 143.674C302.317 140.884 304.215 139.281 304.63 138.865C305.751 137.741 307.728 137.747 310.007 139.083C311.258 135.415 315.351 134.763 320.208 137.88C324.391 140.564 328.008 145.318 329.73 149.954C330.096 150.136 330.472 150.349 330.853 150.594C335.085 153.309 338.516 158.953 338.516 163.199C338.516 164.895 337.969 166.111 337.042 166.787C336.165 167.426 334.456 168.77 331.912 170.818" stroke="#FCC842" stroke-width="1.2"/>
<path opacity="0.6" fill-rule="evenodd" clip-rule="evenodd" d="M448.892 8.67292C454.153 12.0399 458.701 18.0017 460.867 23.8174C461.328 24.0448 461.8 24.3117 462.28 24.6189C467.602 28.0253 471.916 35.1037 471.916 40.4288C471.916 45.7324 467.637 47.2967 462.345 43.9441L437.122 27.8001C436.929 27.6704 436.735 27.5528 436.54 27.4275C431.861 24.4326 428.067 18.2094 428.067 13.5275C428.067 9.0054 431.606 7.57535 436.064 10.1818C437.637 5.58095 442.785 4.7638 448.892 8.67292Z" fill="url(#paint16_linear)"/>
<path fill-rule="evenodd" clip-rule="evenodd" d="M448.892 8.67292C454.153 12.0399 458.701 18.0017 460.867 23.8174C461.328 24.0448 461.8 24.3117 462.28 24.6189C467.602 28.0253 471.916 35.1037 471.916 40.4288C471.916 45.7324 467.637 47.2967 462.345 43.9441L437.122 27.8001C436.929 27.6704 436.735 27.5528 436.54 27.4275C431.861 24.4326 428.067 18.2094 428.067 13.5275C428.067 9.0054 431.606 7.57535 436.064 10.1818C437.637 5.58095 442.785 4.7638 448.892 8.67292Z" stroke="#FCC842" stroke-width="1.2"/>
<path opacity="0.6" fill-rule="evenodd" clip-rule="evenodd" d="M429.556 9.7636C433.806 6.26446 436.192 4.25381 436.714 3.73166C438.124 2.32198 440.61 2.32947 443.476 4.00501C445.049 -0.595872 450.197 -1.41302 456.304 2.49611C461.565 5.86311 466.113 11.8249 468.279 17.6406C468.74 17.868 469.212 18.1348 469.692 18.4421C475.014 21.8485 479.328 28.9269 479.328 34.252C479.328 36.379 478.64 37.9046 477.474 38.7528C476.372 39.5542 474.222 41.2394 471.023 43.8082C470.956 43.8626 474.071 34.3919 464.366 26.404C463.684 25.8425 461.736 25.1402 461.017 23.6543C456.304 13.9237 451.658 9.07283 443.476 6.46483C440.217 5.42612 437.561 7.6254 435.622 9.7636C433.611 8.70387 431.589 8.70387 429.556 9.7636Z" fill="url(#paint17_linear)"/>
<path d="M429.556 9.7636C433.806 6.26446 436.192 4.25381 436.714 3.73166C438.124 2.32198 440.61 2.32947 443.476 4.00501C445.049 -0.595872 450.197 -1.41302 456.304 2.49611C461.565 5.86311 466.113 11.8249 468.279 17.6406C468.74 17.868 469.212 18.1348 469.692 18.4421C475.014 21.8485 479.328 28.9269 479.328 34.252C479.328 36.379 478.64 37.9046 477.474 38.7528C476.372 39.5543 474.222 41.2394 471.023 43.8082" stroke="#FCC842" stroke-width="1.2"/>
<g opacity="0.8">
<path fill-rule="evenodd" clip-rule="evenodd" d="M251.815 221.321C251.945 222.891 251.839 223.992 251.498 224.625C251.158 225.257 250.994 225.846 251.008 226.39C252.5 226.944 253.986 227.22 255.467 227.22L255.586 226.817C256.719 226.898 257.809 227.257 258.856 227.894C260.427 228.851 263.306 229.444 264.888 228.946C266.47 228.449 266.437 227.097 265.489 226.161C264.541 225.224 261.297 223.825 259.658 223.22C258.566 222.816 257.355 221.232 256.024 218.466L251.815 221.321Z" fill="black"/>
<path fill-rule="evenodd" clip-rule="evenodd" d="M245.145 229.558C245.688 230.655 246.486 231.757 247.536 232.864C249.113 234.525 251.069 237.306 249.47 239.019C247.87 240.731 242.786 238.155 242.132 236.132C241.479 234.109 241.125 233.023 240.729 232.651L240.537 233.15C239.37 232.065 238.787 231.336 238.787 230.963C238.787 230.59 238.787 228.901 238.787 225.897L245.145 229.558Z" fill="black"/>
<path fill-rule="evenodd" clip-rule="evenodd" d="M249.729 195.86C251.168 213.023 251.887 221.992 251.887 222.765C251.887 223.926 255.881 224.82 258.893 223.508C258.464 214.587 258.47 207.917 258.91 203.497C259.571 196.868 261.108 187.646 260.009 181.619C259.277 177.6 254.702 176.759 246.285 179.095L249.729 195.86Z" fill="url(#paint18_linear)"/>
<path fill-rule="evenodd" clip-rule="evenodd" d="M240.374 188.263C239.258 209.842 238.701 222.303 238.701 225.647C238.701 230.662 240.921 231.781 242.751 231.781C243.971 231.781 245.074 231.653 246.061 231.398C246.092 222.349 246.504 215.486 247.297 210.808C248.488 203.791 250.437 197.934 252.317 189.998C253.57 184.708 254.587 181.287 255.37 179.736L243.905 181.636L240.374 188.263Z" fill="url(#paint19_linear)"/>
<path fill-rule="evenodd" clip-rule="evenodd" d="M259.641 181.4C255.545 182.403 252.286 182.905 249.865 182.905C246.234 182.905 242.783 158.104 242.783 157.457C242.783 157.025 242.942 154.079 243.26 148.618L243.761 147.792L244.91 147.422L250.3 148.618L253.584 149.086C255.534 153.368 256.904 157.754 257.694 162.245C258.484 166.735 259.133 173.12 259.641 181.4Z" fill="url(#paint20_linear)"/>
<path fill-rule="evenodd" clip-rule="evenodd" d="M254.641 139.986C256.423 139.429 257.09 138.308 256.642 136.623C256.064 137.003 255.414 136.692 254.693 135.688C253.612 134.183 249.07 130.573 243.974 135.217C242.71 135.217 242.175 135.851 242.368 137.118C242.658 139.019 243.691 142.451 243.519 144.317C243.346 146.184 244.095 146.353 245.579 146.268C246.568 146.212 249.589 144.118 254.641 139.986Z" fill="black"/>
<path fill-rule="evenodd" clip-rule="evenodd" d="M262.057 180.35C262.059 181.584 262.281 182.705 262.723 183.714C263.386 185.227 264.023 186.199 264.023 186.895C264.023 187.59 264.538 187.523 265.49 187.318C266.443 187.113 267.861 187.449 267.861 185.676C267.861 183.904 268.497 183.238 267.389 181.966C266.281 180.694 265.161 179.521 264.592 178.167C264.213 177.264 263.368 177.992 262.057 180.35Z" fill="#BBFAFF"/>
<path fill-rule="evenodd" clip-rule="evenodd" d="M261.18 181.552L265.494 178.788C261.439 170.191 259.078 164.236 258.411 160.924L257.88 166.781L261.18 181.552Z" fill="url(#paint21_linear)"/>
<path fill-rule="evenodd" clip-rule="evenodd" d="M250.186 154.781L251.883 156.435L252.891 177.751L254.898 179.795L257.299 176.189C255.988 168.178 255.01 163.099 254.368 160.953C253.725 158.806 253.233 157.225 252.891 156.21L253.743 153.914L252.218 152.03L250.186 152.699V154.781Z" fill="black"/>
<path fill-rule="evenodd" clip-rule="evenodd" d="M245.368 152.17C247.041 154.285 248.704 155.534 250.356 155.916L251.642 152.718L253.67 155.063C254.109 154.025 254.329 153.06 254.329 152.17C254.329 151.28 253.524 149.965 251.913 148.224L244.77 147.466L243.701 147.824L245.368 152.17Z" fill="url(#paint22_linear)"/>
<mask id="mask2" mask-type="alpha" maskUnits="userSpaceOnUse" x="234" y="147" width="18" height="46">
<path d="M238.139 189.345C241.506 191.565 244.348 192.524 246.666 192.222C250.142 191.769 251.996 189.751 251.996 185.16C251.996 180.569 251.679 175.031 251.679 171.297C251.679 167.563 250.706 162.323 247.934 156.564C246.086 152.725 244.698 149.8 243.769 147.788C240.96 150.335 239.083 152.011 238.139 152.817C236.723 154.026 232.949 155.878 235.726 162.037C236.909 164.662 240.069 169.488 240.397 176.2C240.52 178.723 239.767 183.105 238.139 189.345Z" fill="white"/>
</mask>
<g mask="url(#mask2)">
<path d="M238.139 189.345C241.506 191.565 244.348 192.524 246.666 192.222C250.142 191.769 251.996 189.751 251.996 185.16C251.996 180.569 251.679 175.031 251.679 171.297C251.679 167.563 250.706 162.323 247.934 156.564C246.086 152.725 244.698 149.8 243.769 147.788C240.96 150.335 239.083 152.011 238.139 152.817C236.723 154.026 232.949 155.878 235.726 162.037C236.909 164.662 240.069 169.488 240.397 176.2C240.52 178.723 239.767 183.105 238.139 189.345Z" fill="url(#paint23_linear)"/>
<path fill-rule="evenodd" clip-rule="evenodd" d="M243.567 147.469C242.711 150.517 242.811 153.398 243.865 156.111L245.521 156.264L244.056 158.388C249.846 167.237 252.97 172.605 253.428 174.49C253.885 176.375 253.647 171.683 252.713 160.412L247.308 150.29L243.567 147.469Z" fill="url(#paint24_linear)"/>
</g>
<mask id="mask3" mask-type="alpha" maskUnits="userSpaceOnUse" x="252" y="147" width="10" height="42">
<path d="M261.244 180.691C261.812 184.261 261.812 186.653 261.244 187.867C260.391 189.689 258.548 188.553 258.548 185.543C258.548 182.534 258.289 178.152 257.727 175.5C257.166 172.849 256.209 168.853 256.209 164.419C256.209 159.984 255.043 154.294 252.212 149.297L253.484 147.983C257.047 148.008 258.94 149.415 259.164 152.202C259.499 156.383 259.059 168.005 259.823 172.472C260.333 175.45 260.806 178.19 261.244 180.691Z" fill="white"/>
</mask>
<g mask="url(#mask3)">
<path d="M261.244 180.691C261.812 184.261 261.812 186.653 261.244 187.867C260.391 189.689 258.548 188.553 258.548 185.543C258.548 182.534 258.289 178.152 257.727 175.5C257.166 172.849 256.209 168.853 256.209 164.419C256.209 159.984 255.043 154.294 252.212 149.297L253.484 147.983C257.047 148.008 258.94 149.415 259.164 152.202C259.499 156.383 259.059 168.005 259.823 172.472C260.333 175.45 260.806 178.19 261.244 180.691Z" fill="url(#paint25_linear)"/>
<path fill-rule="evenodd" clip-rule="evenodd" d="M253.69 147.192C255.245 150.359 256.328 152.616 256.937 153.964L256.122 155.069L257.536 155.665C257.75 162.299 257.162 166.938 255.773 169.581C254.384 172.225 252.567 166.233 250.323 151.604C250.078 149.158 249.955 147.936 249.955 147.936C249.955 147.936 251.2 147.688 253.69 147.192Z" fill="url(#paint26_linear)"/>
</g>
<path fill-rule="evenodd" clip-rule="evenodd" d="M253.919 183.807L259.605 166.1L269.314 162.076L263.77 179.639L253.919 183.807Z" fill="#4181FF"/>
<path fill-rule="evenodd" clip-rule="evenodd" d="M252.841 178.366C253.984 177.747 255.06 177.541 256.07 177.747C257.583 178.056 258.641 178.242 259.792 177.405C260.944 176.568 262.068 175.796 262.335 174.238C262.603 172.679 262.502 172.209 262.117 172.209C261.731 172.209 261.378 173.568 260.073 174.238C258.769 174.908 256.874 174.432 257.176 173.524C257.377 172.918 257.539 172.37 257.663 171.878C256.12 171.749 255.06 172.048 254.482 172.777C253.905 173.505 253.094 174.04 252.049 174.381L252.841 178.366Z" fill="#BBFAFF"/>
<path fill-rule="evenodd" clip-rule="evenodd" d="M262.893 183.753C263.007 184.96 262.951 185.789 262.726 186.24C262.389 186.917 263.625 187.049 263.835 185.289C263.975 184.115 263.661 183.603 262.893 183.753Z" fill="#BBFAFF"/>
<path fill-rule="evenodd" clip-rule="evenodd" d="M244.571 147.535L244.864 145.498C243.707 144.585 243.26 143.667 243.523 142.743C243.917 141.357 245.333 142.625 245.643 143.1C245.953 143.575 246.99 144.049 246.99 142.928C246.99 141.807 246.711 138.991 248.724 139.506C250.737 140.02 253.278 140.823 254.835 139.506C255.182 141.277 255.182 142.947 254.835 144.514C254.315 146.865 254.315 149.77 252.484 149.77C252.41 151.529 251.711 152.287 250.388 152.044C249.064 151.801 247.125 150.298 244.571 147.535Z" fill="#BBFAFF"/>
<path fill-rule="evenodd" clip-rule="evenodd" d="M253.016 173.789C246.482 172.999 242.6 172.523 241.368 172.36C241.218 165.133 240.929 160.322 240.501 157.927C239.859 154.335 235.891 152.191 234.673 157.294C233.455 162.396 234.962 169.98 235.689 172.73C236.416 175.48 237.019 177.246 241.163 177.71C243.925 178.019 247.876 178.335 253.016 178.659V173.789Z" fill="url(#paint27_linear)"/>
</g>
</g>
<defs>
<linearGradient id="paint0_linear" x1="605.783" y1="151.381" x2="524.064" y2="151.381" gradientUnits="userSpaceOnUse">
<stop stop-color="#245DF5" stop-opacity="0"/>
<stop offset="0.0636746" stop-color="#2A66F6"/>
<stop offset="0.499582" stop-color="#00EBFF"/>
<stop offset="0.933669" stop-color="#7AD3FF"/>
<stop offset="1" stop-color="#7DD7FF" stop-opacity="0"/>
</linearGradient>
<linearGradient id="paint1_linear" x1="605.783" y1="169.912" x2="599.945" y2="198.366" gradientUnits="userSpaceOnUse">
<stop stop-color="#245DF5" stop-opacity="0"/>
<stop offset="0.0636746" stop-color="#2A66F6"/>
<stop offset="0.499582" stop-color="#00EBFF"/>
<stop offset="0.933669" stop-color="#7AD3FF"/>
<stop offset="1" stop-color="#7DD7FF" stop-opacity="0"/>
</linearGradient>
<linearGradient id="paint2_linear" x1="449.922" y1="36.042" x2="449.922" y2="78.8011" gradientUnits="userSpaceOnUse">
<stop stop-color="#FCC842"/>
<stop offset="1" stop-color="#00EBFF"/>
</linearGradient>
<linearGradient id="paint3_linear" x1="552.391" y1="198.959" x2="552.391" y2="227.511" gradientUnits="userSpaceOnUse">
<stop stop-color="#FCC842"/>
<stop offset="1" stop-color="#00EBFF"/>
</linearGradient>
<linearGradient id="paint4_linear" x1="520.359" y1="281.918" x2="454.132" y2="281.918" gradientUnits="userSpaceOnUse">
<stop stop-color="#245DF5" stop-opacity="0"/>
<stop offset="0.0636746" stop-color="#2A66F6"/>
<stop offset="0.499582" stop-color="#00EBFF"/>
<stop offset="0.816534" stop-color="#7AD3FF"/>
<stop offset="1" stop-color="#7DD7FF" stop-opacity="0"/>
</linearGradient>
<linearGradient id="paint5_linear" x1="416.503" y1="186.038" x2="416.503" y2="226.078" gradientUnits="userSpaceOnUse">
<stop stop-color="#FCC842"/>
<stop offset="1" stop-color="#00EBFF"/>
</linearGradient>
<linearGradient id="paint6_linear" x1="318.337" y1="166.672" x2="318.337" y2="187.812" gradientUnits="userSpaceOnUse">
<stop stop-color="#FCC842"/>
<stop offset="1" stop-color="#00EBFF"/>
</linearGradient>
<linearGradient id="paint7_linear" x1="654.932" y1="195.843" x2="599.855" y2="182.713" gradientUnits="userSpaceOnUse">
<stop stop-color="#001C96"/>
<stop offset="1" stop-color="#157EFF"/>
</linearGradient>
<linearGradient id="paint8_linear" x1="630.957" y1="167.491" x2="679.829" y2="153.617" gradientUnits="userSpaceOnUse">
<stop stop-color="#001C96"/>
<stop offset="1" stop-color="#157EFF"/>
</linearGradient>
<linearGradient id="paint9_linear" x1="659.749" y1="177.917" x2="641.043" y2="169.609" gradientUnits="userSpaceOnUse">
<stop stop-color="#093CC3"/>
<stop offset="1" stop-color="#27A6FF"/>
</linearGradient>
<linearGradient id="paint10_linear" x1="416.642" y1="158.854" x2="416.642" y2="189.659" gradientUnits="userSpaceOnUse">
<stop stop-color="#FCC842" stop-opacity="0"/>
<stop offset="1" stop-color="#FCC842"/>
</linearGradient>
<linearGradient id="paint11_linear" x1="421.092" y1="152.889" x2="421.092" y2="187.027" gradientUnits="userSpaceOnUse">
<stop stop-color="#FCC842" stop-opacity="0"/>
<stop offset="1" stop-color="#FCC842"/>
</linearGradient>
<linearGradient id="paint12_linear" x1="549.256" y1="175.116" x2="549.256" y2="199.677" gradientUnits="userSpaceOnUse">
<stop stop-color="#FCC842" stop-opacity="0"/>
<stop offset="1" stop-color="#FCC842"/>
</linearGradient>
<linearGradient id="paint13_linear" x1="552.794" y1="170.361" x2="552.794" y2="197.579" gradientUnits="userSpaceOnUse">
<stop stop-color="#FCC842" stop-opacity="0"/>
<stop offset="1" stop-color="#FCC842"/>
</linearGradient>
<linearGradient id="paint14_linear" x1="315.189" y1="142.379" x2="315.189" y2="166.94" gradientUnits="userSpaceOnUse">
<stop stop-color="#FCC842" stop-opacity="0"/>
<stop offset="1" stop-color="#FCC842"/>
</linearGradient>
<linearGradient id="paint15_linear" x1="318.727" y1="137.624" x2="318.727" y2="164.842" gradientUnits="userSpaceOnUse">
<stop stop-color="#FCC842" stop-opacity="0"/>
<stop offset="1" stop-color="#FCC842"/>
</linearGradient>
<linearGradient id="paint16_linear" x1="449.992" y1="8.13959" x2="449.992" y2="38.9447" gradientUnits="userSpaceOnUse">
<stop stop-color="#FCC842" stop-opacity="0"/>
<stop offset="1" stop-color="#FCC842"/>
</linearGradient>
<linearGradient id="paint17_linear" x1="454.442" y1="2.17512" x2="454.442" y2="36.313" gradientUnits="userSpaceOnUse">
<stop stop-color="#FCC842" stop-opacity="0"/>
<stop offset="1" stop-color="#FCC842"/>
</linearGradient>
<linearGradient id="paint18_linear" x1="251.181" y1="203.118" x2="289.115" y2="198.032" gradientUnits="userSpaceOnUse">
<stop stop-color="#001C96"/>
<stop offset="1" stop-color="#157EFF"/>
</linearGradient>
<linearGradient id="paint19_linear" x1="236.306" y1="212.597" x2="299.275" y2="206.474" gradientUnits="userSpaceOnUse">
<stop stop-color="#001C96"/>
<stop offset="1" stop-color="#157EFF"/>
</linearGradient>
<linearGradient id="paint20_linear" x1="232.923" y1="209.822" x2="280.738" y2="185.082" gradientUnits="userSpaceOnUse">
<stop stop-color="#093CC3"/>
<stop offset="1" stop-color="#27A6FF"/>
</linearGradient>
<linearGradient id="paint21_linear" x1="256.284" y1="165.691" x2="270.798" y2="168.271" gradientUnits="userSpaceOnUse">
<stop stop-color="#001C96"/>
<stop offset="1" stop-color="#157EFF"/>
</linearGradient>
<linearGradient id="paint22_linear" x1="254.754" y1="162.811" x2="252.818" y2="150.839" gradientUnits="userSpaceOnUse">
<stop stop-color="#093CC3"/>
<stop offset="1" stop-color="#27A6FF"/>
</linearGradient>
<linearGradient id="paint23_linear" x1="232.054" y1="184.999" x2="273.787" y2="179.262" gradientUnits="userSpaceOnUse">
<stop stop-color="#001C96"/>
<stop offset="1" stop-color="#157EFF"/>
</linearGradient>
<linearGradient id="paint24_linear" x1="241.339" y1="170.409" x2="267.108" y2="166.86" gradientUnits="userSpaceOnUse">
<stop stop-color="#001C96"/>
<stop offset="1" stop-color="#157EFF"/>
</linearGradient>
<linearGradient id="paint25_linear" x1="250.746" y1="182.076" x2="273.883" y2="180.174" gradientUnits="userSpaceOnUse">
<stop stop-color="#001C96"/>
<stop offset="1" stop-color="#157EFF"/>
</linearGradient>
<linearGradient id="paint26_linear" x1="248.773" y1="166.426" x2="267.295" y2="164.251" gradientUnits="userSpaceOnUse">
<stop stop-color="#001C96"/>
<stop offset="1" stop-color="#157EFF"/>
</linearGradient>
<linearGradient id="paint27_linear" x1="223.215" y1="197.161" x2="262.87" y2="163.865" gradientUnits="userSpaceOnUse">
<stop stop-color="#093CC3"/>
<stop offset="1" stop-color="#27A6FF"/>
</linearGradient>
</defs>
</svg>
