<svg width="668" height="360" viewBox="0 0 668 360" fill="none" xmlns="http://www.w3.org/2000/svg">
<mask id="mask0" mask-type="alpha" maskUnits="userSpaceOnUse" x="0" y="0" width="668" height="360">
<rect width="668" height="360" fill="#C4C4C4"/>
</mask>
<g mask="url(#mask0)">
<path opacity="0.2" fill-rule="evenodd" clip-rule="evenodd" d="M26.1021 286.494L82.3109 250.016L144.756 290.347L88.5469 326.825L26.1021 286.494Z" stroke="#4181FF"/>
<path opacity="0.2" fill-rule="evenodd" clip-rule="evenodd" d="M279.992 286.494L336.201 250.016L398.645 290.347L342.437 326.825L279.992 286.494Z" stroke="#4181FF"/>
<path opacity="0.2" fill-rule="evenodd" clip-rule="evenodd" d="M28.3135 119.582L84.5223 83.1042L146.967 123.435L90.7583 159.913L28.3135 119.582Z" stroke="#4181FF"/>
<path opacity="0.2" d="M121.69 139.854L335.165 277.772" stroke="#4181FF"/>
<path opacity="0.2" fill-rule="evenodd" clip-rule="evenodd" d="M143.847 252.026C183.514 277.904 247.867 277.904 287.534 252.026C327.101 226.214 327.101 184.454 287.534 158.642C247.867 132.764 183.514 132.764 143.847 158.642C104.28 184.454 104.28 226.214 143.847 252.026Z" stroke="#4181FF" stroke-opacity="0.2" stroke-width="1.6"/>
<path opacity="0.4" fill-rule="evenodd" clip-rule="evenodd" d="M155.41 242.188C188.385 263.74 241.889 263.74 274.865 242.188C307.74 220.702 307.74 185.956 274.865 164.47C241.889 142.919 188.385 142.919 155.41 164.47C122.535 185.956 122.535 220.702 155.41 242.188Z" stroke="#4181FF" stroke-opacity="0.2" stroke-width="1.6"/>
<path opacity="0.2" d="M309.819 138.991L95.0096 277.772" stroke="#4181FF"/>
<path opacity="0.2" d="M370.434 141.516L425.533 176.856L382.991 205.957L431 238.056L374.748 274.398" stroke="#4181FF"/>
<path opacity="0.2" d="M61.5655 141.45L6.46678 176.79L49.0095 205.891L1 237.99L57.2518 274.332" stroke="#4181FF"/>
<path opacity="0.2" d="M113.546 310.708L153.65 336.618L215.138 296.161L277.779 336.618L317.319 310.905" stroke="#4181FF"/>
<path opacity="0.2" d="M113.434 102.737L153.538 76.8267L215.026 117.283L277.668 76.8267L317.207 102.539" stroke="#4181FF"/>
<path opacity="0.2" fill-rule="evenodd" clip-rule="evenodd" d="M279.992 119.582L336.201 83.1042L398.645 123.435L342.437 159.913L279.992 119.582Z" stroke="#4181FF"/>
<path fill-rule="evenodd" clip-rule="evenodd" d="M67.6948 276.176V202.154L108.347 228.506V302.612L67.6948 276.176Z" fill="url(#paint0_linear)"/>
<path fill-rule="evenodd" clip-rule="evenodd" d="M48.8643 289.965V265.101L99.2828 270.056L89.516 316.401L48.8643 289.965Z" fill="url(#paint1_linear)"/>
<path fill-rule="evenodd" clip-rule="evenodd" d="M70.5758 235.328L111.228 261.765V226.723L70.4373 200.344L67.7104 202.179L70.5758 235.328Z" fill="url(#paint2_linear)"/>
<path fill-rule="evenodd" clip-rule="evenodd" d="M67.6953 237.105L48.8643 259.519L89.516 285.872L108.347 263.542V228.5L67.6953 202.218V237.105Z" fill="#689BFF"/>
<path opacity="0.3" fill-rule="evenodd" clip-rule="evenodd" d="M69.8791 241.7L60.6426 252.642L93.2669 273.859L102.58 262.867L69.8791 241.7Z" fill="#4181FF"/>
<path fill-rule="evenodd" clip-rule="evenodd" d="M71.646 238.829L104.347 259.994V230.264L71.646 209.223V238.829Z" fill="#FCC842"/>
<path fill-rule="evenodd" clip-rule="evenodd" d="M76.5606 269.863C76.0879 270.42 76.1558 271.254 76.7123 271.727C76.7455 271.755 76.78 271.781 76.8157 271.806L76.8307 271.817C77.5109 272.287 78.4371 272.166 78.9736 271.537C79.4465 270.982 79.38 270.149 78.825 269.676C78.792 269.647 78.7578 269.621 78.7222 269.596L78.704 269.584C78.0242 269.111 77.0966 269.232 76.5606 269.863Z" fill="#4181FF"/>
<path fill-rule="evenodd" clip-rule="evenodd" d="M82.0753 273.536C81.6025 274.092 81.6704 274.927 82.227 275.399C82.2601 275.427 82.2946 275.454 82.3304 275.479L82.3454 275.489C83.0255 275.96 83.9517 275.839 84.4882 275.209C84.9612 274.654 84.8946 273.821 84.3396 273.348C84.3067 273.32 84.2724 273.294 84.2369 273.269L84.2186 273.256C83.5388 272.784 82.6113 272.905 82.0753 273.536Z" fill="#4181FF"/>
<path fill-rule="evenodd" clip-rule="evenodd" d="M87.4718 277.012C86.999 277.568 87.0669 278.403 87.6234 278.876C87.6566 278.904 87.6911 278.93 87.7269 278.955L87.7419 278.965C88.422 279.436 89.3482 279.315 89.8847 278.686C90.3577 278.131 90.2911 277.297 89.7361 276.824C89.7032 276.796 89.6689 276.77 89.6334 276.745L89.6151 276.733C88.9353 276.26 88.0078 276.381 87.4718 277.012Z" fill="#4181FF"/>
<path fill-rule="evenodd" clip-rule="evenodd" d="M76.5606 269.506C76.0879 270.063 76.1558 270.897 76.7123 271.37C76.7455 271.398 76.78 271.425 76.8157 271.45L76.8307 271.46C77.5109 271.931 78.4371 271.81 78.9736 271.18C79.4465 270.625 79.38 269.792 78.825 269.319C78.792 269.291 78.7578 269.265 78.7222 269.24L78.704 269.227C78.0242 268.755 77.0966 268.875 76.5606 269.506Z" fill="#FCC842"/>
<path fill-rule="evenodd" clip-rule="evenodd" d="M82.0753 273.178C81.6025 273.735 81.6704 274.569 82.227 275.042C82.2601 275.07 82.2946 275.097 82.3304 275.121L82.3454 275.132C83.0255 275.603 83.9517 275.482 84.4882 274.852C84.9612 274.297 84.8946 273.464 84.3396 272.991C84.3067 272.963 84.2724 272.936 84.2369 272.912L84.2186 272.899C83.5388 272.426 82.6113 272.547 82.0753 273.178Z" fill="#FCC842"/>
<path fill-rule="evenodd" clip-rule="evenodd" d="M87.4718 276.655C86.999 277.211 87.0669 278.046 87.6234 278.518C87.6566 278.546 87.6911 278.573 87.7269 278.598L87.7419 278.608C88.422 279.079 89.3482 278.958 89.8847 278.328C90.3577 277.773 90.2911 276.94 89.7361 276.467C89.7032 276.439 89.6689 276.413 89.6334 276.388L89.6151 276.375C88.9353 275.903 88.0078 276.024 87.4718 276.655Z" fill="#FCC842"/>
<path fill-rule="evenodd" clip-rule="evenodd" d="M48.8643 289.965V259.519L89.516 285.872V316.401L48.8643 289.965Z" fill="#4181FF"/>
<path fill-rule="evenodd" clip-rule="evenodd" d="M126.718 292.086V258.435L111.235 226.703L108.34 228.54V263.544L89.5161 285.872V316.404L126.718 292.086Z" fill="#0D4CC7"/>
<path fill-rule="evenodd" clip-rule="evenodd" d="M341.373 143.471L304.002 119.592V89.0516L328.453 29.8322L331.349 28.0079L371.884 49.9896V91.1891L381.756 97.1109V117.659L341.373 143.471Z" fill="url(#paint3_linear)"/>
<path fill-rule="evenodd" clip-rule="evenodd" d="M304.02 119.574V89.0181L328.455 29.8315L331.349 28.0082L371.878 50.0157L369.004 51.8324L341.386 143.473L304.02 119.574Z" fill="#0D4CC7"/>
<path fill-rule="evenodd" clip-rule="evenodd" d="M341.373 143.471V112.915L368.99 51.8131L371.884 49.9897V91.1893L381.756 97.1111V117.659L341.373 143.471Z" fill="#0D4CC7"/>
<g opacity="0.2">
<path fill-rule="evenodd" clip-rule="evenodd" d="M351.966 122.679L344.987 127.243V128.439L351.966 123.875V122.679Z" fill="#001C96"/>
<path fill-rule="evenodd" clip-rule="evenodd" d="M351.966 125.67L344.987 130.234V131.43L351.966 126.866V125.67Z" fill="#001C96"/>
<path fill-rule="evenodd" clip-rule="evenodd" d="M351.966 129.583L344.987 134.147V135.344L351.966 130.78V129.583Z" fill="#001C96"/>
<path fill-rule="evenodd" clip-rule="evenodd" d="M351.966 132.574L344.987 137.138V138.335L351.966 133.77V132.574Z" fill="#001C96"/>
</g>
<mask id="mask1" mask-type="alpha" maskUnits="userSpaceOnUse" x="354" y="126" width="4" height="8">
<path d="M357.81 126.221L354.81 128.195V133.365L357.81 131.391V126.221Z" fill="white"/>
</mask>
<g mask="url(#mask1)">
<path opacity="0.2" d="M357.81 126.221L354.81 128.195V133.365L357.81 131.391V126.221Z" fill="url(#paint4_linear)"/>
<path fill-rule="evenodd" clip-rule="evenodd" d="M357.209 125.921L354.209 127.895V133.066L357.209 131.092V125.921Z" fill="#FCC842"/>
</g>
<mask id="mask2" mask-type="alpha" maskUnits="userSpaceOnUse" x="354" y="119" width="4" height="8">
<path d="M357.81 119.3L354.81 121.274V126.445L357.81 124.471V119.3Z" fill="white"/>
</mask>
<g mask="url(#mask2)">
<path opacity="0.2" d="M357.81 119.3L354.81 121.274V126.445L357.81 124.471V119.3Z" fill="url(#paint5_linear)"/>
<path fill-rule="evenodd" clip-rule="evenodd" d="M357.209 119.001L354.209 120.975V126.146L357.209 124.172V119.001Z" fill="#FCC842"/>
</g>
<path fill-rule="evenodd" clip-rule="evenodd" d="M341.385 113.582L304.02 89.708V119.574L341.385 143.473V113.582ZM341.464 112.537C341.486 112.466 341.513 112.396 341.544 112.328L369.004 51.8324L328.455 29.8315L304.152 88.6979L341.464 112.537Z" fill="#4181FF"/>
<path fill-rule="evenodd" clip-rule="evenodd" d="M362.1 54.3172L331.178 37.5188L330.98 37.898L361.929 54.7119L362.1 54.3172ZM359.468 60.1512L328.511 43.3323L328.348 43.732L359.275 60.533L359.468 60.1512ZM356.871 65.9095L325.904 49.0849L325.75 49.4902L356.676 66.2902L356.871 65.9095ZM354.273 71.6677L323.298 54.838L323.153 55.2485L354.1 72.0611L354.273 71.6677Z" fill="url(#paint6_linear)"/>
<path fill-rule="evenodd" clip-rule="evenodd" d="M362.234 54.0081L331.312 37.2097L331.114 37.5889L362.063 54.4028L362.234 54.0081ZM359.603 59.8421L328.645 43.0232L328.482 43.4229L359.409 60.224L359.603 59.8421ZM357.005 65.6004L326.038 48.7758L325.885 49.1812L356.81 65.9812L357.005 65.6004ZM354.408 71.3586L323.432 54.5289L323.287 54.9394L354.234 71.752L354.408 71.3586Z" fill="url(#paint7_linear)"/>
<path fill-rule="evenodd" clip-rule="evenodd" d="M322.196 120.712C319.802 119.209 317.862 116.128 317.862 113.83C317.862 111.532 319.802 110.887 322.196 112.39C324.589 113.893 326.529 116.974 326.529 119.272C326.529 121.57 324.589 122.215 322.196 120.712Z" fill="#0D4CC7"/>
<path fill-rule="evenodd" clip-rule="evenodd" d="M324.61 119.805C324.647 117.888 324.257 116.394 323.441 115.325C322.624 114.256 321.334 113.549 319.569 113.204C319.772 113.068 320.391 112.657 321.425 111.971C321.675 112.085 321.933 112.224 322.196 112.389C324.366 113.752 326.164 116.413 326.479 118.611C326.094 118.871 325.47 119.269 324.61 119.805Z" fill="#0D4CC7"/>
<path fill-rule="evenodd" clip-rule="evenodd" d="M322.077 119.062C323.608 119.989 324.85 119.591 324.85 118.173C324.85 116.755 323.608 114.854 322.077 113.926C320.545 112.999 319.303 113.397 319.303 114.815C319.303 116.233 320.545 118.134 322.077 119.062Z" fill="#FCC842"/>
<path fill-rule="evenodd" clip-rule="evenodd" d="M322.56 118.673C321.079 117.761 319.852 115.849 319.852 114.555C319.852 113.756 320.398 113.578 321.593 114.314C323.074 115.227 324.301 117.139 324.301 118.433C324.301 119.232 323.755 119.41 322.56 118.673ZM322.077 119.459C323.814 120.53 325.223 120.071 325.223 118.433C325.223 116.795 323.814 114.599 322.077 113.529C320.339 112.458 318.931 112.917 318.931 114.555C318.931 116.193 320.339 118.388 322.077 119.459Z" fill="#4181FF"/>
<path fill-rule="evenodd" clip-rule="evenodd" d="M328.455 29.8315L331.349 28.0082L371.878 50.0157L369.004 51.8324L328.455 29.8315Z" fill="#689BFF"/>
<path opacity="0.2" d="M309.64 139.08V124.693L322.574 116.218" stroke="#4181FF" stroke-width="0.6"/>
<path fill-rule="evenodd" clip-rule="evenodd" d="M89.4607 143.559L126.832 119.68V89.139L102.381 29.9197L99.4853 28.0953L58.9499 50.077V91.2765L49.0776 97.1983V117.746L89.4607 143.559Z" fill="url(#paint8_linear)"/>
<path fill-rule="evenodd" clip-rule="evenodd" d="M126.813 119.662V89.1054L102.378 29.9188L99.4836 28.0955L58.9546 50.1029L61.8289 51.9197L89.4475 143.56L126.813 119.662Z" fill="url(#paint9_linear)"/>
<path fill-rule="evenodd" clip-rule="evenodd" d="M89.4597 143.559V113.002L61.8434 51.9003L58.949 50.0769V91.2765L49.0767 97.1982V117.746L89.4597 143.559Z" fill="#4181FF"/>
<g opacity="0.2">
<path fill-rule="evenodd" clip-rule="evenodd" d="M78.8677 122.766L85.8469 127.33V128.527L78.8677 123.962V122.766Z" fill="#001C96"/>
<path fill-rule="evenodd" clip-rule="evenodd" d="M78.8677 125.757L85.8469 130.321V131.517L78.8677 126.953V125.757Z" fill="#001C96"/>
<path fill-rule="evenodd" clip-rule="evenodd" d="M78.8677 129.67L85.8469 134.235V135.431L78.8677 130.867V129.67Z" fill="#001C96"/>
<path fill-rule="evenodd" clip-rule="evenodd" d="M78.8677 132.661L85.8469 137.225V138.422L78.8677 133.857V132.661Z" fill="#001C96"/>
</g>
<mask id="mask3" mask-type="alpha" maskUnits="userSpaceOnUse" x="73" y="126" width="4" height="8">
<path d="M73.0234 126.308L76.0235 128.282V133.452L73.0234 131.478V126.308Z" fill="white"/>
</mask>
<g mask="url(#mask3)">
<path d="M73.0234 126.308L76.0235 128.282V133.452L73.0234 131.478V126.308Z" fill="#0D4CC7"/>
<path fill-rule="evenodd" clip-rule="evenodd" d="M73.624 126.009L76.6241 127.983V133.153L73.624 131.179V126.009Z" fill="#FCC842"/>
</g>
<mask id="mask4" mask-type="alpha" maskUnits="userSpaceOnUse" x="73" y="119" width="4" height="8">
<path d="M73.0234 119.388L76.0235 121.362V126.532L73.0234 124.558V119.388Z" fill="white"/>
</mask>
<g mask="url(#mask4)">
<path d="M73.0234 119.388L76.0235 121.362V126.532L73.0234 124.558V119.388Z" fill="#0D4CC7"/>
<path fill-rule="evenodd" clip-rule="evenodd" d="M73.624 119.089L76.6241 121.063V126.233L73.624 124.259V119.089Z" fill="#FCC842"/>
</g>
<path fill-rule="evenodd" clip-rule="evenodd" d="M89.4477 113.669L126.813 89.7951V119.662L89.4477 143.56V113.669ZM89.3689 112.624C89.3469 112.553 89.3204 112.483 89.2894 112.415L61.8291 51.9195L102.378 29.9187L126.681 88.785L89.3689 112.624Z" fill="#0D4CC7"/>
<path fill-rule="evenodd" clip-rule="evenodd" d="M68.7329 54.4045L99.6555 37.6061L99.8533 37.9853L68.9044 54.7992L68.7329 54.4045ZM71.3646 60.2385L102.322 43.4196L102.485 43.8193L71.558 60.6203L71.3646 60.2385ZM73.9622 65.9967L104.929 49.1722L105.083 49.5775L74.1573 66.3775L73.9622 65.9967ZM76.5597 71.755L107.535 54.9253L107.68 55.3358L76.7335 72.1484L76.5597 71.755Z" fill="url(#paint10_linear)"/>
<path fill-rule="evenodd" clip-rule="evenodd" d="M68.5991 54.0954L99.5217 37.297L99.7195 37.6762L68.7706 54.4901L68.5991 54.0954ZM71.2308 59.9294L102.188 43.1105L102.351 43.5102L71.4242 60.3112L71.2308 59.9294ZM73.8284 65.6877L104.795 48.8631L104.949 49.2684L74.0235 66.0684L73.8284 65.6877ZM76.4259 71.4459L107.402 54.6162L107.546 55.0267L76.5997 71.8393L76.4259 71.4459Z" fill="url(#paint11_linear)"/>
<path fill-rule="evenodd" clip-rule="evenodd" d="M108.637 120.799C111.031 119.297 112.971 116.216 112.971 113.917C112.971 111.619 111.031 110.975 108.637 112.477C106.244 113.98 104.304 117.061 104.304 119.359C104.304 121.657 106.244 122.302 108.637 120.799Z" fill="url(#paint12_linear)"/>
<path fill-rule="evenodd" clip-rule="evenodd" d="M106.224 119.892C106.187 117.975 106.576 116.481 107.393 115.412C108.209 114.343 109.5 113.636 111.265 113.291C111.062 113.155 110.443 112.745 109.408 112.058C109.158 112.172 108.901 112.311 108.638 112.476C106.468 113.839 104.67 116.5 104.354 118.698C104.74 118.958 105.363 119.356 106.224 119.892Z" fill="#0D4CC7"/>
<path fill-rule="evenodd" clip-rule="evenodd" d="M108.757 119.149C107.225 120.076 105.983 119.678 105.983 118.26C105.983 116.842 107.225 114.941 108.757 114.014C110.289 113.086 111.53 113.484 111.53 114.902C111.53 116.32 110.289 118.221 108.757 119.149Z" fill="#FCC842"/>
<path fill-rule="evenodd" clip-rule="evenodd" d="M108.274 118.761C109.755 117.848 110.981 115.936 110.981 114.642C110.981 113.843 110.435 113.665 109.24 114.401C107.759 115.314 106.532 117.226 106.532 118.52C106.532 119.319 107.078 119.497 108.274 118.761ZM108.757 119.546C107.019 120.617 105.611 120.158 105.611 118.52C105.611 116.882 107.019 114.687 108.757 113.616C110.494 112.545 111.903 113.004 111.903 114.642C111.903 116.28 110.494 118.475 108.757 119.546Z" fill="#4181FF"/>
<path fill-rule="evenodd" clip-rule="evenodd" d="M102.378 29.9188L99.4836 28.0955L58.9546 50.1029L61.8289 51.9197L102.378 29.9188Z" fill="#689BFF"/>
<path fill-rule="evenodd" clip-rule="evenodd" d="M362.687 276.176V202.154L322.035 228.506V302.613L362.687 276.176Z" fill="url(#paint13_linear)"/>
<path fill-rule="evenodd" clip-rule="evenodd" d="M381.517 289.965V265.101L331.099 270.056L340.865 316.401L381.517 289.965Z" fill="url(#paint14_linear)"/>
<path fill-rule="evenodd" clip-rule="evenodd" d="M359.806 235.328L319.154 261.765V226.723L359.944 200.344L362.671 202.179L359.806 235.328Z" fill="#689BFF"/>
<path fill-rule="evenodd" clip-rule="evenodd" d="M362.686 237.105L381.517 259.519L340.865 285.872L322.034 263.542V228.5L362.686 202.218V237.105Z" fill="url(#paint15_linear)"/>
<path opacity="0.3" fill-rule="evenodd" clip-rule="evenodd" d="M360.502 241.7L369.739 252.642L337.114 273.859L327.801 262.867L360.502 241.7Z" fill="#0D4CC7"/>
<path fill-rule="evenodd" clip-rule="evenodd" d="M358.736 238.829L326.035 259.994V230.264L358.736 209.223V238.829Z" fill="#FCC842"/>
<path fill-rule="evenodd" clip-rule="evenodd" d="M353.822 269.863C354.294 270.42 354.227 271.254 353.67 271.727C353.637 271.755 353.602 271.782 353.567 271.806L353.552 271.817C352.871 272.288 351.945 272.167 351.409 271.537C350.936 270.982 351.002 270.149 351.557 269.676C351.59 269.648 351.625 269.621 351.66 269.597L351.678 269.584C352.358 269.111 353.286 269.232 353.822 269.863Z" fill="#0D4CC7"/>
<path fill-rule="evenodd" clip-rule="evenodd" d="M348.307 273.536C348.78 274.092 348.712 274.927 348.155 275.399C348.122 275.428 348.088 275.454 348.052 275.479L348.037 275.489C347.357 275.96 346.431 275.839 345.894 275.21C345.421 274.655 345.488 273.821 346.043 273.348C346.076 273.32 346.11 273.294 346.145 273.269L346.164 273.256C346.843 272.784 347.771 272.905 348.307 273.536Z" fill="#0D4CC7"/>
<path fill-rule="evenodd" clip-rule="evenodd" d="M342.911 277.012C343.384 277.569 343.316 278.403 342.759 278.876C342.726 278.904 342.692 278.93 342.656 278.955L342.641 278.966C341.961 279.436 341.035 279.315 340.498 278.686C340.025 278.131 340.092 277.298 340.647 276.825C340.68 276.796 340.714 276.77 340.749 276.745L340.768 276.733C341.447 276.26 342.375 276.381 342.911 277.012Z" fill="#0D4CC7"/>
<path fill-rule="evenodd" clip-rule="evenodd" d="M353.821 269.507C354.294 270.063 354.226 270.898 353.67 271.37C353.636 271.399 353.602 271.425 353.566 271.45L353.551 271.46C352.871 271.931 351.945 271.81 351.408 271.181C350.935 270.626 351.002 269.792 351.557 269.319C351.59 269.291 351.624 269.265 351.66 269.24L351.678 269.227C352.358 268.755 353.285 268.876 353.821 269.507Z" fill="#FCC842"/>
<path fill-rule="evenodd" clip-rule="evenodd" d="M348.307 273.178C348.78 273.735 348.712 274.569 348.155 275.042C348.122 275.07 348.088 275.097 348.052 275.122L348.037 275.132C347.357 275.603 346.431 275.482 345.894 274.852C345.421 274.297 345.488 273.464 346.043 272.991C346.076 272.963 346.11 272.937 346.145 272.912L346.164 272.899C346.843 272.427 347.771 272.547 348.307 273.178Z" fill="#FCC842"/>
<path fill-rule="evenodd" clip-rule="evenodd" d="M342.911 276.655C343.384 277.211 343.316 278.046 342.759 278.518C342.726 278.546 342.692 278.573 342.656 278.598L342.641 278.608C341.961 279.079 341.035 278.958 340.498 278.329C340.025 277.773 340.092 276.94 340.647 276.467C340.68 276.439 340.714 276.413 340.749 276.388L340.768 276.375C341.447 275.903 342.375 276.024 342.911 276.655Z" fill="#FCC842"/>
<path fill-rule="evenodd" clip-rule="evenodd" d="M381.517 289.965V259.519L340.865 285.872V316.401L381.517 289.965Z" fill="#0D4CC7"/>
<path fill-rule="evenodd" clip-rule="evenodd" d="M303.664 292.086V258.435L319.147 226.703L322.041 228.54V263.544L340.866 285.872V316.404L303.664 292.086Z" fill="#4181FF"/>
<path fill-rule="evenodd" clip-rule="evenodd" d="M144.683 195.614C144.538 195.381 144.538 199.259 144.683 207.249C144.894 218.868 151.808 230.445 165.423 239.31C193.083 257.32 237.929 257.32 265.589 239.31C279.255 230.412 286.169 218.782 286.331 207.12C286.442 199.159 286.442 196.316 286.331 198.593L144.683 195.614Z" fill="#0D4CC7"/>
<path fill-rule="evenodd" clip-rule="evenodd" d="M165.421 233.841C193.081 251.851 237.927 251.851 265.587 233.841C293.247 215.83 293.247 186.63 265.587 168.62C237.927 150.61 193.081 150.61 165.421 168.62C137.761 186.63 137.761 215.83 165.421 233.841Z" fill="url(#paint16_linear)"/>
<path fill-rule="evenodd" clip-rule="evenodd" d="M175.379 225.537C197.54 239.958 233.471 239.958 255.632 225.537C277.793 211.116 277.793 187.735 255.632 173.314C233.471 158.893 197.54 158.893 175.379 173.314C153.218 187.735 153.218 211.116 175.379 225.537Z" fill="#0D4CC7"/>
<path fill-rule="evenodd" clip-rule="evenodd" d="M175.379 221.845C197.54 236.266 233.471 236.266 255.632 221.845C277.793 207.423 277.793 184.042 255.632 169.621C233.471 155.2 197.54 155.2 175.379 169.621C153.218 184.042 153.218 207.423 175.379 221.845Z" fill="url(#paint17_linear)"/>
<path fill-rule="evenodd" clip-rule="evenodd" d="M183.457 216.622C201.157 228.159 229.855 228.159 247.555 216.622C265.256 205.085 265.256 186.38 247.555 174.844C229.855 163.307 201.157 163.307 183.457 174.844C165.757 186.38 165.757 205.085 183.457 216.622Z" fill="#00EBFF"/>
<path opacity="0.5" fill-rule="evenodd" clip-rule="evenodd" d="M183.457 216.622C201.157 228.159 229.855 228.159 247.555 216.622C257.006 210.462 261.411 202.258 260.769 194.193C260.396 189.5 250.593 161.658 231.361 110.667H201.832C181.171 161.619 170.644 189.432 170.251 194.104C169.569 202.198 173.971 210.439 183.457 216.622Z" fill="url(#paint18_linear)"/>
<path opacity="0.5" fill-rule="evenodd" clip-rule="evenodd" d="M190.025 206.913C204.2 216.132 227.181 216.132 241.356 206.913C248.924 201.991 252.451 195.436 251.937 188.991C251.638 185.241 243.397 160.782 227.214 115.615H205.322C188.388 160.751 179.764 185.186 179.449 188.92C178.903 195.387 182.428 201.973 190.025 206.913Z" fill="url(#paint19_linear)"/>
<path fill-rule="evenodd" clip-rule="evenodd" d="M195.141 70.3274C177.245 81.6978 171.045 100.906 176.54 127.953L179.545 129.376L184.872 99.8519L195.141 91.6946V70.3274Z" fill="url(#paint20_linear)"/>
<path fill-rule="evenodd" clip-rule="evenodd" d="M198.088 71.8027C180.193 83.1731 173.992 102.382 179.488 129.428C181.976 119.606 184.753 112.855 187.82 109.177C190.887 105.498 194.31 102.645 198.088 100.615V71.8027Z" fill="#00EBFF"/>
<path fill-rule="evenodd" clip-rule="evenodd" d="M236.608 70.3274C254.504 81.6978 260.704 100.906 255.209 127.953L252.204 129.376L246.877 99.8519L236.608 91.6946V70.3274Z" fill="url(#paint21_linear)"/>
<path fill-rule="evenodd" clip-rule="evenodd" d="M233.66 71.8027C251.556 83.1731 257.756 102.382 252.261 129.428C249.773 119.606 246.996 112.855 243.929 109.177C240.862 105.498 237.439 102.645 233.66 100.615V71.8027Z" fill="#00EBFF"/>
<path fill-rule="evenodd" clip-rule="evenodd" d="M216.464 75.3384C217.82 75.3384 218.961 76.3547 219.117 77.7018C219.903 84.4816 220.296 92.1842 220.296 100.81C220.296 110.454 219.805 119.963 218.822 129.338H214.105C213.123 118.875 212.631 109.366 212.631 100.81C212.631 93.0512 213.035 85.3468 213.843 77.6966L213.843 77.6966C213.985 76.3559 215.116 75.3384 216.464 75.3384Z" fill="#0D4CC7"/>
<path fill-rule="evenodd" clip-rule="evenodd" d="M234.75 120.243C239.096 95.3683 240.115 77.8223 237.807 67.6048C235.5 57.3872 228.336 45.6902 216.317 32.5138C204.363 45.5675 197.223 57.2645 194.897 67.6048C192.571 77.945 193.59 95.491 197.954 120.243C202.199 124.235 208.32 126.231 216.317 126.231C224.313 126.231 230.458 124.235 234.75 120.243Z" fill="#00EBFF"/>
<mask id="mask5" mask-type="alpha" maskUnits="userSpaceOnUse" x="188" y="2" width="57" height="122">
<path d="M239.325 111.65C244.737 80.5602 246.007 58.6299 243.133 45.8593C240.259 33.0886 231.336 18.4689 216.365 2C201.476 18.3155 192.582 32.9353 189.685 45.8593C186.787 58.7833 188.057 80.7135 193.493 111.65C198.781 119.474 206.405 123.387 216.365 123.387C226.325 123.387 233.978 119.474 239.325 111.65Z" fill="white"/>
</mask>
<g mask="url(#mask5)">
<path d="M239.325 111.65C244.737 80.5602 246.007 58.6299 243.133 45.8593C240.259 33.0886 231.336 18.4689 216.365 2C201.476 18.3155 192.582 32.9353 189.685 45.8593C186.787 58.7833 188.057 80.7135 193.493 111.65C198.781 119.474 206.405 123.387 216.365 123.387C226.325 123.387 233.978 119.474 239.325 111.65Z" fill="url(#paint22_linear)"/>
<path fill-rule="evenodd" clip-rule="evenodd" d="M244.839 97.5457C239.216 112.053 229.892 119.306 216.866 119.306C203.841 119.306 193.818 112.053 186.798 97.5457V135.534H244.839V97.5457Z" fill="#0D4CC7"/>
<path opacity="0.2" fill-rule="evenodd" clip-rule="evenodd" d="M255.401 40.6722C233.468 54.9365 197.843 54.9365 175.911 40.6722C154.141 26.5135 154.141 3.7047 175.911 -10.454C197.843 -24.7184 233.468 -24.7184 255.401 -10.454C277.171 3.7047 277.171 26.5135 255.401 40.6722ZM255.722 41.167C277.85 26.7756 277.85 3.44254 255.722 -10.9489C233.594 -25.3403 197.718 -25.3403 175.59 -10.9489C153.461 3.44254 153.461 26.7756 175.59 41.167C197.718 55.5584 233.594 55.5584 255.722 41.167Z" fill="url(#paint23_linear)"/>
</g>
<path d="M216.464 64.7155C224.442 64.7155 230.909 58.2421 230.909 50.2567C230.909 42.2713 224.442 35.7979 216.464 35.7979C208.487 35.7979 202.02 42.2713 202.02 50.2567C202.02 58.2421 208.487 64.7155 216.464 64.7155Z" fill="url(#paint24_linear)"/>
<path d="M216.465 62.355C223.14 62.355 228.551 56.9384 228.551 50.2568C228.551 43.5751 223.14 38.1586 216.465 38.1586C209.79 38.1586 204.378 43.5751 204.378 50.2568C204.378 56.9384 209.79 62.355 216.465 62.355Z" fill="#FCC842"/>
<path opacity="0.2" d="M121.794 139.848V125.461L108.86 116.986" stroke="#4181FF" stroke-width="0.6"/>
<path fill-rule="evenodd" clip-rule="evenodd" d="M52.1305 302.486C52.0665 304.022 51.8295 305.47 51.4193 306.83C50.8041 308.868 50.6 314.709 50.6 317.76C50.6 320.81 50.2203 322.565 49.8509 323.257C49.4814 323.949 50.4856 327.994 52.1305 329.352C53.7754 330.709 55.0042 331.303 56.3853 331.006C57.7663 330.709 57.9853 330.804 57.8758 330.261C57.8028 329.899 57.4761 329.518 56.8958 329.117C55.3432 328.939 54.4453 327.287 54.2021 324.162C53.8373 319.473 55.5018 311.824 56.8958 308.6C58.2899 305.376 60.2717 298.563 58.7883 297.038C57.7995 296.022 55.5802 297.837 52.1305 302.486Z" fill="#BBFAFF"/>
<path fill-rule="evenodd" clip-rule="evenodd" d="M46.0318 297.899C46.0318 297.899 45.6672 301.551 44.8642 304.132C44.0612 306.713 44.8114 311.23 45.1893 314.24C45.5673 317.249 45.6749 320.474 45.2695 321.916C44.9993 322.878 46.4375 323.277 49.584 323.114C49.1032 319.544 48.983 316.811 49.2234 314.915C49.584 312.07 51.1669 303.939 50.3754 299.573C49.584 295.207 46.0318 297.899 46.0318 297.899Z" fill="#BBFAFF"/>
<path fill-rule="evenodd" clip-rule="evenodd" d="M43.9354 257.631L43.3302 256.915C42.618 259.726 42.44 262.477 42.7961 265.167C43.3302 269.203 44.9024 269.306 47.1231 267.841C48.6036 266.864 47.541 263.461 43.9354 257.631Z" fill="url(#paint25_linear)"/>
<path fill-rule="evenodd" clip-rule="evenodd" d="M60.5596 283.41C60.371 294.096 59.8414 300.14 58.9707 301.542C57.6647 303.646 54.0565 305.138 50.1478 303.004C47.5421 301.582 46.0291 300.518 45.6088 299.812C45.8022 295.129 45.6907 292.059 45.2744 290.6C44.65 288.412 42.9666 281.515 44.4484 278.116L60.5596 283.41Z" fill="black"/>
<path fill-rule="evenodd" clip-rule="evenodd" d="M59.1477 285.63L60.4803 283.502C60.6692 282.173 60.4471 280.74 59.814 279.203C58.8643 276.897 58.8518 273.249 59.1477 271.283C59.4436 269.317 60.2583 261.29 57.67 259.326C55.0816 257.362 46.3542 253.042 44.3345 254.506C42.3147 255.97 42.601 261.23 44.3345 264.538C46.0679 267.846 45.031 273.242 44.3345 275.722C43.6379 278.202 44.8024 282.135 48.7772 283.502C51.427 284.414 54.8839 285.123 59.1477 285.63Z" fill="url(#paint26_linear)"/>
<path fill-rule="evenodd" clip-rule="evenodd" d="M53.34 257.759C53.9417 257.627 54.4042 257.436 54.7273 257.186C55.2121 256.81 54.5083 255.404 53.6019 255.654C52.6955 255.905 49.6983 255.414 48.8217 254.883C47.9452 254.353 47.3737 254.459 47.3737 255.224C47.3737 255.988 47.2719 256.857 48.8217 257.186C49.855 257.405 51.361 257.596 53.34 257.759Z" stroke="#979797" stroke-width="0.5"/>
<path fill-rule="evenodd" clip-rule="evenodd" d="M49.4899 332.571H50.1797V328.284C50.9918 329.604 51.5694 330.523 51.9123 331.039C52.4267 331.814 53.9644 332.41 56.9202 331.724C59.8759 331.039 59.6952 329.816 58.1714 329.453C57.1555 329.211 56.5536 329.055 56.3655 328.985C56.9832 329.417 57.0667 329.765 56.616 330.03C55.9398 330.427 53.8183 330.686 52.8653 328.284C51.9123 325.882 50.3475 321.393 49.4899 323.236C48.6323 325.079 48.5791 326.864 48.95 328.284C49.1972 329.23 49.3772 330.659 49.4899 332.571Z" fill="black"/>
<path fill-rule="evenodd" clip-rule="evenodd" d="M49.7682 323.378C49.0931 320.945 48.3158 319.728 47.4365 319.728C46.1175 319.728 44.7751 320.108 44.7751 322.134C44.7751 324.159 45.9255 325.818 46.2791 327.297C46.5147 328.283 46.6581 329.185 46.709 330.004H47.4365V327.297L49.2802 328.352L50.0991 324.866L49.7682 323.378Z" fill="black"/>
<path fill-rule="evenodd" clip-rule="evenodd" d="M65.594 267.71C65.7337 267.086 66.0198 266.596 66.4524 266.24C67.1013 265.705 67.6907 265.211 67.9099 264.759C68.129 264.307 68.6496 264.31 68.9285 264.632C69.2074 264.954 68.7525 265.87 68.4674 266.24C68.2773 266.487 68.1506 266.678 68.0873 266.813C69.1459 266.154 69.871 265.602 70.2625 265.158C70.6541 264.714 70.9762 264.354 71.2288 264.079C71.3346 264.55 71.3346 265.028 71.2288 265.513C71.0701 266.24 71.2623 267.379 70.6272 267.949C69.9921 268.519 67.6233 270.167 66.4524 270.167C65.6718 270.167 65.3857 269.348 65.594 267.71Z" fill="#BBFAFF"/>
<path fill-rule="evenodd" clip-rule="evenodd" d="M67.0356 270.439C63.5521 273.106 61.0765 274.686 59.609 275.179C57.4076 275.919 55.4249 276.19 55.4249 273.449C55.4249 270.708 54.8612 262.399 55.9396 260.512C57.0181 258.626 59.3247 258.812 59.609 261.42C59.7985 263.158 59.948 265.977 60.0575 269.878L64.1619 267.468C65.2883 266.991 66.0488 267.108 66.4435 267.818C66.8383 268.528 67.0356 269.402 67.0356 270.439Z" fill="url(#paint27_linear)"/>
<path fill-rule="evenodd" clip-rule="evenodd" d="M53.9635 250.618C53.9635 251.776 54.6457 253.564 56.0101 255.984C56.2696 254.728 56.5667 253.87 56.9016 253.41C57.4039 252.721 58.1429 251.008 57.7602 249.914C57.3775 248.82 57.6032 247.367 57.7602 246.391C57.9172 245.416 57.8901 243.248 55.8605 242.996C53.8309 242.744 53.9635 248.882 53.9635 250.618Z" fill="#BBFAFF"/>
<path fill-rule="evenodd" clip-rule="evenodd" d="M56.8096 242.581C57.8337 244.078 57.9793 245.548 57.2463 246.993C56.1469 249.159 55.8747 256.672 57.9053 261.487C52.4482 262.3 48.1844 261.503 45.1138 259.097C44.0674 254.272 43.9255 249.999 44.6879 246.277C45.8316 240.693 49.9666 240.403 52.1949 240.403C53.6804 240.403 55.2187 241.129 56.8096 242.581Z" fill="black"/>
</g>
<defs>
<linearGradient id="paint0_linear" x1="138.728" y1="356.606" x2="33.5317" y2="321.589" gradientUnits="userSpaceOnUse">
<stop stop-color="#093CC3"/>
<stop offset="1" stop-color="#2787FF"/>
</linearGradient>
<linearGradient id="paint1_linear" x1="99.2828" y1="297.527" x2="48.5846" y2="275.635" gradientUnits="userSpaceOnUse">
<stop stop-color="#003D96"/>
<stop offset="1" stop-color="#1169B4"/>
</linearGradient>
<linearGradient id="paint2_linear" x1="158.076" y1="277.447" x2="10.3171" y2="229.341" gradientUnits="userSpaceOnUse">
<stop stop-color="#001C96"/>
<stop offset="1" stop-color="#157EFF"/>
</linearGradient>
<linearGradient id="paint3_linear" x1="542.611" y1="110.952" x2="25.6645" y2="93.3594" gradientUnits="userSpaceOnUse">
<stop stop-color="#00128C"/>
<stop offset="1" stop-color="#157EFF"/>
</linearGradient>
<linearGradient id="paint4_linear" x1="357.81" y1="130.524" x2="344.266" y2="128.568" gradientUnits="userSpaceOnUse">
<stop stop-color="#001C96"/>
<stop offset="1" stop-color="#157EFF"/>
</linearGradient>
<linearGradient id="paint5_linear" x1="357.81" y1="123.604" x2="344.266" y2="121.648" gradientUnits="userSpaceOnUse">
<stop stop-color="#001C96"/>
<stop offset="1" stop-color="#157EFF"/>
</linearGradient>
<linearGradient id="paint6_linear" x1="352.411" y1="64.4617" x2="427.318" y2="147.182" gradientUnits="userSpaceOnUse">
<stop stop-color="#093CC3"/>
<stop offset="1" stop-color="#27A6FF"/>
</linearGradient>
<linearGradient id="paint7_linear" x1="318.806" y1="64.9421" x2="383.504" y2="36" gradientUnits="userSpaceOnUse">
<stop stop-color="#187EEC"/>
<stop offset="1" stop-color="#7DD7FF"/>
</linearGradient>
<linearGradient id="paint8_linear" x1="-111.777" y1="111.04" x2="405.17" y2="93.4468" gradientUnits="userSpaceOnUse">
<stop stop-color="#00128C"/>
<stop offset="1" stop-color="#157EFF"/>
</linearGradient>
<linearGradient id="paint9_linear" x1="138.184" y1="152.607" x2="32.6906" y2="100.634" gradientUnits="userSpaceOnUse">
<stop stop-color="#093CC3"/>
<stop offset="1" stop-color="#2787FF"/>
</linearGradient>
<linearGradient id="paint10_linear" x1="78.4224" y1="64.549" x2="3.51497" y2="147.269" gradientUnits="userSpaceOnUse">
<stop stop-color="#093CC3"/>
<stop offset="1" stop-color="#27A6FF"/>
</linearGradient>
<linearGradient id="paint11_linear" x1="112.027" y1="65.0294" x2="47.329" y2="36.0873" gradientUnits="userSpaceOnUse">
<stop stop-color="#187EEC"/>
<stop offset="1" stop-color="#7DD7FF"/>
</linearGradient>
<linearGradient id="paint12_linear" x1="86.3757" y1="118.81" x2="143.948" y2="116.274" gradientUnits="userSpaceOnUse">
<stop stop-color="#00128C"/>
<stop offset="1" stop-color="#157EFF"/>
</linearGradient>
<linearGradient id="paint13_linear" x1="291.653" y1="356.606" x2="396.85" y2="321.589" gradientUnits="userSpaceOnUse">
<stop stop-color="#093CC3"/>
<stop offset="1" stop-color="#2787FF"/>
</linearGradient>
<linearGradient id="paint14_linear" x1="331.099" y1="297.527" x2="381.797" y2="275.635" gradientUnits="userSpaceOnUse">
<stop stop-color="#003D96"/>
<stop offset="1" stop-color="#1169B4"/>
</linearGradient>
<linearGradient id="paint15_linear" x1="277.579" y1="330.834" x2="404.976" y2="256.318" gradientUnits="userSpaceOnUse">
<stop stop-color="#093CC3"/>
<stop offset="1" stop-color="#2787FF"/>
</linearGradient>
<linearGradient id="paint16_linear" x1="286.332" y1="247.348" x2="177.063" y2="69.2944" gradientUnits="userSpaceOnUse">
<stop stop-color="#0D4CC7"/>
<stop offset="1" stop-color="#4181FF"/>
</linearGradient>
<linearGradient id="paint17_linear" x1="286.696" y1="251.827" x2="218.431" y2="143.439" gradientUnits="userSpaceOnUse">
<stop stop-color="#0D4CC7"/>
<stop offset="1" stop-color="#4181FF"/>
</linearGradient>
<linearGradient id="paint18_linear" x1="215.506" y1="122.057" x2="212.116" y2="174.003" gradientUnits="userSpaceOnUse">
<stop stop-color="#02C9F4"/>
<stop offset="1" stop-color="#00EBFF" stop-opacity="0"/>
</linearGradient>
<linearGradient id="paint19_linear" x1="215.69" y1="132.987" x2="215.69" y2="193.836" gradientUnits="userSpaceOnUse">
<stop stop-color="#02C9F4"/>
<stop offset="1" stop-color="#00EBFF" stop-opacity="0"/>
</linearGradient>
<linearGradient id="paint20_linear" x1="185.588" y1="123.238" x2="144.422" y2="95.4009" gradientUnits="userSpaceOnUse">
<stop stop-color="#0D4CC7"/>
<stop offset="1" stop-color="#4181FF"/>
</linearGradient>
<linearGradient id="paint21_linear" x1="246.161" y1="123.238" x2="287.327" y2="95.4009" gradientUnits="userSpaceOnUse">
<stop stop-color="#0D4CC7"/>
<stop offset="1" stop-color="#4181FF"/>
</linearGradient>
<linearGradient id="paint22_linear" x1="255.371" y1="85.1134" x2="174.292" y2="71.965" gradientUnits="userSpaceOnUse">
<stop stop-color="#0D4BC9"/>
<stop offset="1" stop-color="#27A6FF"/>
</linearGradient>
<linearGradient id="paint23_linear" x1="133.25" y1="84.1745" x2="212.844" y2="-50.5101" gradientUnits="userSpaceOnUse">
<stop stop-color="#001C96"/>
<stop offset="1" stop-color="#157EFF"/>
</linearGradient>
<linearGradient id="paint24_linear" x1="217.472" y1="61.7096" x2="199.791" y2="27.3666" gradientUnits="userSpaceOnUse">
<stop stop-color="#0D4CC7"/>
<stop offset="1" stop-color="#4181FF"/>
</linearGradient>
<linearGradient id="paint25_linear" x1="43.5025" y1="265.614" x2="54.0923" y2="263.932" gradientUnits="userSpaceOnUse">
<stop stop-color="#001C96"/>
<stop offset="1" stop-color="#157EFF"/>
</linearGradient>
<linearGradient id="paint26_linear" x1="40.1927" y1="280.49" x2="81.9428" y2="272.196" gradientUnits="userSpaceOnUse">
<stop stop-color="#001C96"/>
<stop offset="1" stop-color="#157EFF"/>
</linearGradient>
<linearGradient id="paint27_linear" x1="49.8294" y1="277.836" x2="81.5872" y2="268.092" gradientUnits="userSpaceOnUse">
<stop stop-color="#001C96"/>
<stop offset="1" stop-color="#157EFF"/>
</linearGradient>
</defs>
</svg>
