<svg width="668" height="360" viewBox="0 0 668 360" fill="none" xmlns="http://www.w3.org/2000/svg">
<mask id="mask0" mask-type="alpha" maskUnits="userSpaceOnUse" x="0" y="0" width="668" height="360">
<rect width="668" height="360" fill="#C4C4C4"/>
</mask>
<g mask="url(#mask0)">
<path opacity="0.5" fill-rule="evenodd" clip-rule="evenodd" d="M136.389 257.623C179.008 285.359 248.108 285.359 290.727 257.623C333.347 229.886 333.347 184.916 290.727 157.18C248.108 129.443 179.008 129.443 136.389 157.18C93.7695 184.916 93.7695 229.886 136.389 257.623Z" fill="url(#paint0_radial)"/>
<g opacity="0.2">
<path opacity="0.2" d="M189.498 100.108L213.957 116.015L238.415 100.108L213.957 84.2015L189.498 100.108ZM214.05 83.7768L238.882 99.9264C239.006 100.007 239.006 100.21 238.882 100.29L214.05 116.44C213.992 116.478 213.921 116.478 213.863 116.44L189.031 100.29C188.907 100.21 188.907 100.007 189.031 99.9264L213.863 83.7768C213.921 83.7393 213.992 83.7393 214.05 83.7768Z" fill="#4181FF"/>
<path opacity="0.2" d="M214.125 116.08L238.584 131.987L263.042 116.08L238.584 100.173L214.125 116.08ZM238.677 99.7487L263.509 115.898C263.633 115.979 263.633 116.181 263.509 116.262L238.677 132.412C238.619 132.449 238.548 132.449 238.49 132.412L213.658 116.262C213.534 116.181 213.534 115.979 213.658 115.898L238.49 99.7487C238.548 99.7112 238.619 99.7112 238.677 99.7487Z" fill="#4181FF"/>
<path opacity="0.2" d="M263.21 116.145L238.752 132.052L263.21 147.959L287.669 132.052L263.21 116.145ZM263.304 115.721L288.136 131.87C288.26 131.951 288.26 132.153 288.136 132.234L263.304 148.384C263.246 148.421 263.175 148.421 263.117 148.384L238.285 132.234C238.161 132.153 238.161 131.951 238.285 131.87L263.117 115.721C263.175 115.683 263.246 115.683 263.304 115.721Z" fill="#4181FF"/>
<path opacity="0.2" d="M287.837 132.117L263.378 148.024L287.837 163.931L312.296 148.024L287.837 132.117ZM287.93 131.693L312.762 147.842C312.887 147.923 312.887 148.125 312.762 148.206L287.93 164.356C287.873 164.393 287.801 164.393 287.744 164.356L262.912 148.206C262.787 148.125 262.787 147.923 262.912 147.842L287.744 131.693C287.801 131.655 287.873 131.655 287.93 131.693Z" fill="#4181FF"/>
<path opacity="0.2" d="M288.005 163.996L312.464 179.903L336.923 163.996L312.464 148.089L288.005 163.996ZM312.557 147.665L337.389 163.814C337.514 163.895 337.514 164.097 337.389 164.178L312.557 180.328C312.499 180.365 312.428 180.365 312.371 180.328L287.539 164.178C287.414 164.097 287.414 163.895 287.539 163.814L312.371 147.665C312.428 147.627 312.499 147.627 312.557 147.665Z" fill="#4181FF"/>
<path opacity="0.2" d="M312.631 179.968L337.09 195.875L361.549 179.968L337.09 164.061L312.631 179.968ZM337.184 163.637L362.016 179.786C362.14 179.867 362.14 180.069 362.016 180.15L337.184 196.3C337.126 196.337 337.055 196.337 336.997 196.3L312.165 180.15C312.041 180.069 312.041 179.867 312.165 179.786L336.997 163.637C337.055 163.599 337.126 163.599 337.184 163.637Z" fill="#4181FF"/>
<path opacity="0.2" d="M337.258 195.94L361.717 211.847L386.176 195.94L361.717 180.033L337.258 195.94ZM361.811 179.608L386.643 195.758C386.767 195.839 386.767 196.041 386.643 196.122L361.811 212.272C361.753 212.309 361.682 212.309 361.624 212.272L336.792 196.122C336.668 196.041 336.668 195.839 336.792 195.758L361.624 179.608C361.682 179.571 361.753 179.571 361.811 179.608Z" fill="#4181FF"/>
<path opacity="0.2" d="M164.871 116.08L189.33 131.987L213.789 116.08L189.33 100.173L164.871 116.08ZM189.423 99.7487L214.255 115.898C214.38 115.979 214.38 116.181 214.255 116.262L189.423 132.412C189.366 132.449 189.295 132.449 189.237 132.412L164.405 116.262C164.28 116.181 164.28 115.979 164.405 115.898L189.237 99.7487C189.295 99.7112 189.366 99.7112 189.423 99.7487Z" fill="#4181FF"/>
<path opacity="0.2" d="M189.498 132.052L213.957 147.959L238.415 132.052L213.957 116.145L189.498 132.052ZM214.05 115.721L238.882 131.87C239.006 131.951 239.006 132.153 238.882 132.234L214.05 148.384C213.992 148.421 213.921 148.421 213.863 148.384L189.031 132.234C188.907 132.153 188.907 131.951 189.031 131.87L213.863 115.721C213.921 115.683 213.992 115.683 214.05 115.721Z" fill="#4181FF"/>
<path opacity="0.2" d="M214.125 148.024L238.584 163.931L263.042 148.024L238.584 132.117L214.125 148.024ZM238.677 131.693L263.509 147.842C263.633 147.923 263.633 148.125 263.509 148.206L238.677 164.356C238.619 164.393 238.548 164.393 238.49 164.356L213.658 148.206C213.534 148.125 213.534 147.923 213.658 147.842L238.49 131.693C238.548 131.655 238.619 131.655 238.677 131.693Z" fill="#4181FF"/>
<path opacity="0.2" d="M238.752 163.996L263.21 179.903L287.669 163.996L263.21 148.089L238.752 163.996ZM263.304 147.665L288.136 163.814C288.26 163.895 288.26 164.097 288.136 164.178L263.304 180.328C263.246 180.365 263.175 180.365 263.117 180.328L238.285 164.178C238.161 164.097 238.161 163.895 238.285 163.814L263.117 147.665C263.175 147.627 263.246 147.627 263.304 147.665Z" fill="#4181FF"/>
<path opacity="0.2" d="M263.378 179.968L287.837 195.875L312.296 179.968L287.837 164.061L263.378 179.968ZM287.93 163.637L312.762 179.786C312.887 179.867 312.887 180.069 312.762 180.15L287.93 196.3C287.873 196.337 287.801 196.337 287.744 196.3L262.912 180.15C262.787 180.069 262.787 179.867 262.912 179.786L287.744 163.637C287.801 163.599 287.873 163.599 287.93 163.637Z" fill="#4181FF"/>
<path opacity="0.2" d="M288.005 195.94L312.464 211.847L336.923 195.94L312.464 180.033L288.005 195.94ZM312.557 179.608L337.389 195.758C337.514 195.839 337.514 196.041 337.389 196.122L312.557 212.272C312.499 212.309 312.428 212.309 312.371 212.272L287.539 196.122C287.414 196.041 287.414 195.839 287.539 195.758L312.371 179.608C312.428 179.571 312.499 179.571 312.557 179.608Z" fill="#4181FF"/>
<path opacity="0.2" d="M312.631 211.912L337.09 227.819L361.549 211.912L337.09 196.005L312.631 211.912ZM337.184 195.58L362.016 211.73C362.14 211.811 362.14 212.013 362.016 212.094L337.184 228.244C337.126 228.281 337.055 228.281 336.997 228.244L312.165 212.094C312.041 212.013 312.041 211.811 312.165 211.73L336.997 195.58C337.055 195.543 337.126 195.543 337.184 195.58Z" fill="#4181FF"/>
<path opacity="0.2" d="M140.244 132.052L164.703 147.959L189.162 132.052L164.703 116.145L140.244 132.052ZM164.796 115.721L189.628 131.87C189.753 131.951 189.753 132.153 189.628 132.234L164.796 148.384C164.739 148.421 164.668 148.421 164.61 148.384L139.778 132.234C139.653 132.153 139.653 131.951 139.778 131.87L164.61 115.721C164.668 115.683 164.739 115.683 164.796 115.721Z" fill="#4181FF"/>
<path opacity="0.2" d="M189.33 132.117L164.871 148.024L189.33 163.931L213.789 148.024L189.33 132.117ZM189.423 131.693L214.255 147.842C214.38 147.923 214.38 148.125 214.255 148.206L189.423 164.356C189.366 164.393 189.295 164.393 189.237 164.356L164.405 148.206C164.28 148.125 164.28 147.923 164.405 147.842L189.237 131.693C189.295 131.655 189.366 131.655 189.423 131.693Z" fill="#4181FF"/>
<path opacity="0.2" d="M189.498 163.996L213.957 179.903L238.415 163.996L213.957 148.089L189.498 163.996ZM214.05 147.665L238.882 163.814C239.006 163.895 239.006 164.097 238.882 164.178L214.05 180.328C213.992 180.365 213.921 180.365 213.863 180.328L189.031 164.178C188.907 164.097 188.907 163.895 189.031 163.814L213.863 147.665C213.921 147.627 213.992 147.627 214.05 147.665Z" fill="#4181FF"/>
<path opacity="0.2" d="M214.125 179.968L238.584 195.875L263.042 179.968L238.584 164.061L214.125 179.968ZM238.677 163.637L263.509 179.786C263.633 179.867 263.633 180.069 263.509 180.15L238.677 196.3C238.619 196.337 238.548 196.337 238.49 196.3L213.658 180.15C213.534 180.069 213.534 179.867 213.658 179.786L238.49 163.637C238.548 163.599 238.619 163.599 238.677 163.637Z" fill="#4181FF"/>
<path opacity="0.2" d="M238.752 195.94L263.21 211.847L287.669 195.94L263.21 180.033L238.752 195.94ZM263.304 179.608L288.136 195.758C288.26 195.839 288.26 196.041 288.136 196.122L263.304 212.272C263.246 212.309 263.175 212.309 263.117 212.272L238.285 196.122C238.161 196.041 238.161 195.839 238.285 195.758L263.117 179.608C263.175 179.571 263.246 179.571 263.304 179.608Z" fill="#4181FF"/>
<path opacity="0.2" d="M263.378 211.912L287.837 227.819L312.296 211.912L287.837 196.005L263.378 211.912ZM287.93 195.58L312.762 211.73C312.887 211.811 312.887 212.013 312.762 212.094L287.93 228.244C287.873 228.281 287.801 228.281 287.744 228.244L262.912 212.094C262.787 212.013 262.787 211.811 262.912 211.73L287.744 195.58C287.801 195.543 287.873 195.543 287.93 195.58Z" fill="#4181FF"/>
<path opacity="0.2" d="M288.005 227.884L312.464 243.791L336.923 227.884L312.464 211.977L288.005 227.884ZM312.557 211.552L337.389 227.702C337.514 227.783 337.514 227.985 337.389 228.066L312.557 244.216C312.499 244.253 312.428 244.253 312.371 244.216L287.539 228.066C287.414 227.985 287.414 227.783 287.539 227.702L312.371 211.552C312.428 211.515 312.499 211.515 312.557 211.552Z" fill="#4181FF"/>
<path opacity="0.2" d="M140.076 132.117L115.617 148.024L140.076 163.931L164.535 148.024L140.076 132.117ZM140.169 131.693L165.001 147.842C165.126 147.923 165.126 148.125 165.001 148.206L140.169 164.356C140.112 164.393 140.041 164.393 139.983 164.356L115.151 148.206C115.027 148.125 115.027 147.923 115.151 147.842L139.983 131.693C140.041 131.655 140.112 131.655 140.169 131.693Z" fill="#4181FF"/>
<path opacity="0.2" d="M140.244 163.996L164.703 179.903L189.162 163.996L164.703 148.089L140.244 163.996ZM164.796 147.665L189.628 163.814C189.753 163.895 189.753 164.097 189.628 164.178L164.796 180.328C164.739 180.365 164.668 180.365 164.61 180.328L139.778 164.178C139.653 164.097 139.653 163.895 139.778 163.814L164.61 147.665C164.668 147.627 164.739 147.627 164.796 147.665Z" fill="#4181FF"/>
<path opacity="0.2" d="M164.871 179.968L189.33 195.875L213.789 179.968L189.33 164.061L164.871 179.968ZM189.423 163.637L214.255 179.786C214.38 179.867 214.38 180.069 214.255 180.15L189.423 196.3C189.366 196.337 189.295 196.337 189.237 196.3L164.405 180.15C164.28 180.069 164.28 179.867 164.405 179.786L189.237 163.637C189.295 163.599 189.366 163.599 189.423 163.637Z" fill="#4181FF"/>
<path opacity="0.2" d="M189.498 195.94L213.957 211.847L238.415 195.94L213.957 180.033L189.498 195.94ZM214.05 179.608L238.882 195.758C239.006 195.839 239.006 196.041 238.882 196.122L214.05 212.272C213.992 212.309 213.921 212.309 213.863 212.272L189.031 196.122C188.907 196.041 188.907 195.839 189.031 195.758L213.863 179.608C213.921 179.571 213.992 179.571 214.05 179.608Z" fill="#4181FF"/>
<path opacity="0.2" d="M214.125 211.912L238.584 227.819L263.042 211.912L238.584 196.005L214.125 211.912ZM238.677 195.58L263.509 211.73C263.633 211.811 263.633 212.013 263.509 212.094L238.677 228.244C238.619 228.281 238.548 228.281 238.49 228.244L213.658 212.094C213.534 212.013 213.534 211.811 213.658 211.73L238.49 195.58C238.548 195.543 238.619 195.543 238.677 195.58Z" fill="#4181FF"/>
<path opacity="0.2" d="M238.752 227.884L263.21 243.791L287.669 227.884L263.21 211.977L238.752 227.884ZM263.304 211.552L288.136 227.702C288.26 227.783 288.26 227.985 288.136 228.066L263.304 244.216C263.246 244.253 263.175 244.253 263.117 244.216L238.285 228.066C238.161 227.985 238.161 227.783 238.285 227.702L263.117 211.552C263.175 211.515 263.246 211.515 263.304 211.552Z" fill="#4181FF"/>
<path opacity="0.2" d="M263.378 243.856L287.837 259.763L312.296 243.856L287.837 227.949L263.378 243.856ZM287.93 227.524L312.762 243.674C312.887 243.755 312.887 243.957 312.762 244.038L287.93 260.187C287.873 260.225 287.801 260.225 287.744 260.187L262.912 244.038C262.787 243.957 262.787 243.755 262.912 243.674L287.744 227.524C287.801 227.487 287.873 227.487 287.93 227.524Z" fill="#4181FF"/>
<path opacity="0.2" d="M90.9904 163.996L115.449 179.903L139.908 163.996L115.449 148.089L90.9904 163.996ZM115.543 147.665L140.375 163.814C140.499 163.895 140.499 164.097 140.375 164.178L115.543 180.328C115.485 180.365 115.414 180.365 115.356 180.328L90.5239 164.178C90.3996 164.097 90.3996 163.895 90.5239 163.814L115.356 147.665C115.414 147.627 115.485 147.627 115.543 147.665Z" fill="#4181FF"/>
<path opacity="0.2" d="M115.617 179.968L140.076 195.875L164.535 179.968L140.076 164.061L115.617 179.968ZM140.169 163.637L165.001 179.786C165.126 179.867 165.126 180.069 165.001 180.15L140.169 196.3C140.112 196.337 140.041 196.337 139.983 196.3L115.151 180.15C115.027 180.069 115.027 179.867 115.151 179.786L139.983 163.637C140.041 163.599 140.112 163.599 140.169 163.637Z" fill="#4181FF"/>
<path opacity="0.2" d="M140.244 195.94L164.703 211.847L189.162 195.94L164.703 180.033L140.244 195.94ZM164.796 179.608L189.628 195.758C189.753 195.839 189.753 196.041 189.628 196.122L164.796 212.272C164.739 212.309 164.668 212.309 164.61 212.272L139.778 196.122C139.653 196.041 139.653 195.839 139.778 195.758L164.61 179.608C164.668 179.571 164.739 179.571 164.796 179.608Z" fill="#4181FF"/>
<path opacity="0.2" d="M164.871 211.912L189.33 227.819L213.789 211.912L189.33 196.005L164.871 211.912ZM189.423 195.58L214.255 211.73C214.38 211.811 214.38 212.013 214.255 212.094L189.423 228.244C189.366 228.281 189.295 228.281 189.237 228.244L164.405 212.094C164.28 212.013 164.28 211.811 164.405 211.73L189.237 195.58C189.295 195.543 189.366 195.543 189.423 195.58Z" fill="#4181FF"/>
<path opacity="0.2" d="M189.498 227.884L213.957 243.791L238.415 227.884L213.957 211.977L189.498 227.884ZM214.05 211.552L238.882 227.702C239.006 227.783 239.006 227.985 238.882 228.066L214.05 244.216C213.992 244.253 213.921 244.253 213.863 244.216L189.031 228.066C188.907 227.985 188.907 227.783 189.031 227.702L213.863 211.552C213.921 211.515 213.992 211.515 214.05 211.552Z" fill="#4181FF"/>
<path opacity="0.2" d="M214.125 243.856L238.584 259.763L263.042 243.856L238.584 227.949L214.125 243.856ZM238.677 227.524L263.509 243.674C263.633 243.755 263.633 243.957 263.509 244.038L238.677 260.187C238.619 260.225 238.548 260.225 238.49 260.187L213.658 244.038C213.534 243.957 213.534 243.755 213.658 243.674L238.49 227.524C238.548 227.487 238.619 227.487 238.677 227.524Z" fill="#4181FF"/>
<path opacity="0.2" d="M238.752 259.828L263.21 275.735L287.669 259.828L263.21 243.921L238.752 259.828ZM263.304 243.496L288.136 259.646C288.26 259.727 288.26 259.929 288.136 260.01L263.304 276.159C263.246 276.197 263.175 276.197 263.117 276.159L238.285 260.01C238.161 259.929 238.161 259.727 238.285 259.646L263.117 243.496C263.175 243.459 263.246 243.459 263.304 243.496Z" fill="#4181FF"/>
<path opacity="0.2" d="M66.3639 179.968L90.8228 195.875L115.282 179.968L90.8228 164.061L66.3639 179.968ZM90.9161 163.637L115.748 179.786C115.872 179.867 115.872 180.069 115.748 180.15L90.9161 196.3C90.8583 196.337 90.7872 196.337 90.7295 196.3L65.8975 180.15C65.7731 180.069 65.7731 179.867 65.8975 179.786L90.7295 163.637C90.7872 163.599 90.8583 163.599 90.9161 163.637Z" fill="#4181FF"/>
<path opacity="0.2" d="M90.9904 195.94L115.449 211.847L139.908 195.94L115.449 180.033L90.9904 195.94ZM115.543 179.608L140.375 195.758C140.499 195.839 140.499 196.041 140.375 196.122L115.543 212.272C115.485 212.309 115.414 212.309 115.356 212.272L90.5239 196.122C90.3996 196.041 90.3996 195.839 90.5239 195.758L115.356 179.608C115.414 179.571 115.485 179.571 115.543 179.608Z" fill="#4181FF"/>
<path opacity="0.2" d="M115.617 211.912L140.076 227.819L164.535 211.912L140.076 196.005L115.617 211.912ZM140.169 195.58L165.001 211.73C165.126 211.811 165.126 212.013 165.001 212.094L140.169 228.244C140.112 228.281 140.041 228.281 139.983 228.244L115.151 212.094C115.027 212.013 115.027 211.811 115.151 211.73L139.983 195.58C140.041 195.543 140.112 195.543 140.169 195.58Z" fill="#4181FF"/>
<path opacity="0.2" d="M140.244 227.884L164.703 243.791L189.162 227.884L164.703 211.977L140.244 227.884ZM164.796 211.552L189.628 227.702C189.753 227.783 189.753 227.985 189.628 228.066L164.796 244.216C164.739 244.253 164.668 244.253 164.61 244.216L139.778 228.066C139.653 227.985 139.653 227.783 139.778 227.702L164.61 211.552C164.668 211.515 164.739 211.515 164.796 211.552Z" fill="#4181FF"/>
<path opacity="0.2" d="M164.871 243.856L189.33 259.763L213.789 243.856L189.33 227.949L164.871 243.856ZM189.423 227.524L214.255 243.674C214.38 243.755 214.38 243.957 214.255 244.038L189.423 260.187C189.366 260.225 189.295 260.225 189.237 260.187L164.405 244.038C164.28 243.957 164.28 243.755 164.405 243.674L189.237 227.524C189.295 227.487 189.366 227.487 189.423 227.524Z" fill="#4181FF"/>
<path opacity="0.2" d="M189.498 259.828L213.957 275.735L238.415 259.828L213.957 243.921L189.498 259.828ZM214.05 243.496L238.882 259.646C239.006 259.727 239.006 259.929 238.882 260.01L214.05 276.159C213.992 276.197 213.921 276.197 213.863 276.159L189.031 260.01C188.907 259.929 188.907 259.727 189.031 259.646L213.863 243.496C213.921 243.459 213.992 243.459 214.05 243.496Z" fill="#4181FF"/>
<path opacity="0.2" d="M214.125 275.8L238.584 291.707L263.042 275.8L238.584 259.893L214.125 275.8ZM238.677 259.468L263.509 275.618C263.633 275.699 263.633 275.901 263.509 275.982L238.677 292.131C238.619 292.169 238.548 292.169 238.49 292.131L213.658 275.982C213.534 275.901 213.534 275.699 213.658 275.618L238.49 259.468C238.548 259.431 238.619 259.431 238.677 259.468Z" fill="#4181FF"/>
<path opacity="0.2" d="M66.1958 180.033L41.7369 195.94L66.1958 211.847L90.6547 195.94L66.1958 180.033ZM66.2891 179.608L91.1211 195.758C91.2455 195.839 91.2455 196.041 91.1211 196.122L66.2891 212.272C66.2314 212.309 66.1603 212.309 66.1025 212.272L41.2705 196.122C41.1462 196.041 41.1462 195.839 41.2705 195.758L66.1025 179.608C66.1603 179.571 66.2314 179.571 66.2891 179.608Z" fill="#4181FF"/>
<path opacity="0.2" d="M66.3639 211.912L90.8228 227.819L115.282 211.912L90.8228 196.005L66.3639 211.912ZM90.9161 195.58L115.748 211.73C115.872 211.811 115.872 212.013 115.748 212.094L90.9161 228.244C90.8583 228.281 90.7872 228.281 90.7295 228.244L65.8975 212.094C65.7731 212.013 65.7731 211.811 65.8975 211.73L90.7295 195.58C90.7872 195.543 90.8583 195.543 90.9161 195.58Z" fill="#4181FF"/>
<path opacity="0.2" d="M90.9904 227.884L115.449 243.791L139.908 227.884L115.449 211.977L90.9904 227.884ZM115.543 211.552L140.375 227.702C140.499 227.783 140.499 227.985 140.375 228.066L115.543 244.216C115.485 244.253 115.414 244.253 115.356 244.216L90.5239 228.066C90.3996 227.985 90.3996 227.783 90.5239 227.702L115.356 211.552C115.414 211.515 115.485 211.515 115.543 211.552Z" fill="#4181FF"/>
<path opacity="0.2" d="M115.617 243.856L140.076 259.763L164.535 243.856L140.076 227.949L115.617 243.856ZM140.169 227.524L165.001 243.674C165.126 243.755 165.126 243.957 165.001 244.038L140.169 260.187C140.112 260.225 140.041 260.225 139.983 260.187L115.151 244.038C115.027 243.957 115.027 243.755 115.151 243.674L139.983 227.524C140.041 227.487 140.112 227.487 140.169 227.524Z" fill="#4181FF"/>
<path opacity="0.2" d="M140.244 259.828L164.703 275.735L189.162 259.828L164.703 243.921L140.244 259.828ZM164.796 243.496L189.628 259.646C189.753 259.727 189.753 259.929 189.628 260.01L164.796 276.159C164.739 276.197 164.668 276.197 164.61 276.159L139.778 260.01C139.653 259.929 139.653 259.727 139.778 259.646L164.61 243.496C164.668 243.459 164.739 243.459 164.796 243.496Z" fill="#4181FF"/>
<path opacity="0.2" d="M164.871 275.8L189.33 291.707L213.789 275.8L189.33 259.893L164.871 275.8ZM189.423 259.468L214.255 275.618C214.38 275.699 214.38 275.901 214.255 275.982L189.423 292.131C189.366 292.169 189.295 292.169 189.237 292.131L164.405 275.982C164.28 275.901 164.28 275.699 164.405 275.618L189.237 259.468C189.295 259.431 189.366 259.431 189.423 259.468Z" fill="#4181FF"/>
<path opacity="0.2" d="M189.498 291.772L213.957 307.679L238.415 291.772L213.957 275.865L189.498 291.772ZM214.05 275.44L238.882 291.59C239.006 291.671 239.006 291.873 238.882 291.954L214.05 308.103C213.992 308.141 213.921 308.141 213.863 308.103L189.031 291.954C188.907 291.873 188.907 291.671 189.031 291.59L213.863 275.44C213.921 275.403 213.992 275.403 214.05 275.44Z" fill="#4181FF"/>
</g>
<path d="M226.054 203.556L300.072 251.88L250.711 283.696" stroke="#4181FF" stroke-opacity="0.2" stroke-width="1.2"/>
<path d="M201.786 203.556L127.768 251.88L177.129 283.696" stroke="#4181FF" stroke-opacity="0.2" stroke-width="1.2"/>
<path d="M90.5444 195.765L115.467 211.876L164.754 179.868L189.491 195.979" stroke="#4181FF" stroke-opacity="0.2" stroke-width="1.2"/>
<path d="M337.044 195.765L312.121 211.876L262.834 179.868L238.097 195.979" stroke="#4181FF" stroke-opacity="0.2" stroke-width="1.2"/>
<path d="M189.424 99.7281L115.406 148.052L164.766 179.868" stroke="#4181FF" stroke-opacity="0.2" stroke-width="1.2"/>
<path d="M238.097 99.8705L312.115 148.194L262.754 180.01" stroke="#4181FF" stroke-opacity="0.2" stroke-width="1.2"/>
<path fill-rule="evenodd" clip-rule="evenodd" d="M12 196.196V174.772H90.8619V196.196L51.431 221.855L12 196.196Z" fill="#0D4CC7"/>
<path fill-rule="evenodd" clip-rule="evenodd" d="M12 196.196V174.772L51.431 183.892V221.855L12 196.196Z" fill="#4181FF"/>
<path fill-rule="evenodd" clip-rule="evenodd" d="M12 174.773L51.431 149.114L90.8619 174.773L51.431 200.431L12 174.773Z" fill="#689BFF"/>
<path opacity="0.2" fill-rule="evenodd" clip-rule="evenodd" d="M12.0186 186.131V185.178L51.4344 211.476V212.448L12.0186 186.131Z" fill="url(#paint1_linear)"/>
<path fill-rule="evenodd" clip-rule="evenodd" d="M86.3979 193.248L87.3857 181.502L86.5397 180.923L54.6547 201.584V213.739L55.6331 214.38L86.3979 193.248Z" fill="#4181FF"/>
<path fill-rule="evenodd" clip-rule="evenodd" d="M87.3901 193.746V181.499L55.647 202.082V214.381L87.3901 193.746Z" fill="#0D4CC7"/>
<path fill-rule="evenodd" clip-rule="evenodd" d="M65.0708 199.013L65.8859 198.476V204.953L65.0708 205.49V199.013Z" fill="#FCC842"/>
<path fill-rule="evenodd" clip-rule="evenodd" d="M67.5508 197.371L68.3659 196.834V203.311L67.5508 203.848V197.371Z" fill="#FCC842"/>
<path fill-rule="evenodd" clip-rule="evenodd" d="M70.0303 195.761L70.8453 195.224V201.701L70.0303 202.238V195.761Z" fill="#FCC842"/>
<path fill-rule="evenodd" clip-rule="evenodd" d="M72.5103 194.161L73.3253 193.624V200.101L72.5103 200.638V194.161Z" fill="#FCC842"/>
<path fill-rule="evenodd" clip-rule="evenodd" d="M74.9902 192.542L75.8053 192.005V198.482L74.9902 199.019V192.542Z" fill="#FCC842"/>
<path fill-rule="evenodd" clip-rule="evenodd" d="M77.4707 190.936L78.2858 190.399V196.841L77.4707 197.413V190.936Z" fill="#FCC842"/>
<path fill-rule="evenodd" clip-rule="evenodd" d="M79.9502 189.328L80.7653 188.791V195.268L79.9502 195.805V189.328Z" fill="#FCC842"/>
<path fill-rule="evenodd" clip-rule="evenodd" d="M82.4297 187.734L83.2448 187.196V193.673L82.4297 194.211V187.734Z" fill="#FCC842"/>
<path fill-rule="evenodd" clip-rule="evenodd" d="M84.9102 186.105L85.7252 185.568V192.045L84.9102 192.582V186.105Z" fill="#FCC842"/>
<path fill-rule="evenodd" clip-rule="evenodd" d="M60.6069 207.394C61.9765 206.494 63.0868 204.649 63.0868 203.273C63.0868 201.898 61.9765 201.512 60.6069 202.411C59.2373 203.311 58.127 205.156 58.127 206.531C58.127 207.907 59.2373 208.293 60.6069 207.394Z" fill="#FCC842"/>
<path fill-rule="evenodd" clip-rule="evenodd" d="M16.96 175.294V158.812H25.3917V175.294L21.1758 178.011L16.96 175.294Z" fill="#7CF5FF"/>
<path fill-rule="evenodd" clip-rule="evenodd" d="M21.1758 158.812H25.3917V175.294L21.1758 178.011V158.812Z" fill="#00EBFF"/>
<path fill-rule="evenodd" clip-rule="evenodd" d="M16.9609 158.806L21.1768 156.089L25.3927 158.806L21.1768 161.523L16.9609 158.806Z" fill="#00EBFF"/>
<path fill-rule="evenodd" clip-rule="evenodd" d="M47.2153 194.227V177.744H55.6471V194.227L51.4312 196.944L47.2153 194.227Z" fill="#7CF5FF"/>
<path fill-rule="evenodd" clip-rule="evenodd" d="M51.4312 183.255L47.2153 177.744H55.6471V194.227L51.4312 196.944V183.255Z" fill="#00EBFF"/>
<path fill-rule="evenodd" clip-rule="evenodd" d="M47.2163 177.739L51.4322 175.022L55.6481 177.739L51.4322 180.455L47.2163 177.739Z" fill="#00EBFF"/>
<path fill-rule="evenodd" clip-rule="evenodd" d="M77.4702 174.796V158.314H85.902V174.796L81.6861 177.513L77.4702 174.796Z" fill="#7CF5FF"/>
<path fill-rule="evenodd" clip-rule="evenodd" d="M81.6861 163.825L77.4702 158.314H85.902V174.796L81.6861 177.513V163.825Z" fill="#00EBFF"/>
<path fill-rule="evenodd" clip-rule="evenodd" d="M77.4702 158.308L81.6861 155.591L85.902 158.308L81.6861 161.025L77.4702 158.308Z" fill="#00EBFF"/>
<path fill-rule="evenodd" clip-rule="evenodd" d="M12 161.321V139.897H90.8619V161.321L51.431 186.979L12 161.321Z" fill="#0D4CC7"/>
<path fill-rule="evenodd" clip-rule="evenodd" d="M12 161.321V139.897L51.431 149.017V186.979L12 161.321Z" fill="#4181FF"/>
<path fill-rule="evenodd" clip-rule="evenodd" d="M12 139.897L51.431 114.239L90.8619 139.897L51.431 165.556L12 139.897Z" fill="#689BFF"/>
<path opacity="0.2" fill-rule="evenodd" clip-rule="evenodd" d="M12.0186 151.255V150.303L51.4344 176.601V177.573L12.0186 151.255Z" fill="url(#paint2_linear)"/>
<path opacity="0.2" fill-rule="evenodd" clip-rule="evenodd" d="M24.5679 140.347L51.9757 122.411L52.342 122.635L24.9201 140.58L24.5679 140.347ZM29.8558 143.8L57.2822 125.852L57.63 126.088L30.2197 144.026L29.8558 143.8ZM35.0751 147.208L62.5066 129.257L62.8492 129.496L35.4399 147.433L35.0751 147.208ZM40.2944 150.616L67.7305 132.662L68.0685 132.905L40.6478 150.849L40.2944 150.616ZM45.5136 154.025L72.9322 136.082L73.2878 136.313L45.8643 154.259L45.5136 154.025ZM50.7329 157.433L78.1583 139.485L78.507 139.721L51.0822 157.67L50.7329 157.433Z" fill="url(#paint3_linear)"/>
<path fill-rule="evenodd" clip-rule="evenodd" d="M86.3979 158.372L87.3857 146.627L86.5397 146.048L54.6547 166.709V178.863L55.6331 179.504L86.3979 158.372Z" fill="#4181FF"/>
<path fill-rule="evenodd" clip-rule="evenodd" d="M87.3901 158.871V146.623L55.647 167.207V179.506L87.3901 158.871Z" fill="#0D4CC7"/>
<path fill-rule="evenodd" clip-rule="evenodd" d="M65.0708 164.138L65.8859 163.601V170.078L65.0708 170.615V164.138Z" fill="#FCC842"/>
<path fill-rule="evenodd" clip-rule="evenodd" d="M67.5508 162.496L68.3659 161.958V168.435L67.5508 168.972V162.496Z" fill="#FCC842"/>
<path fill-rule="evenodd" clip-rule="evenodd" d="M70.0303 160.886L70.8453 160.348V166.825L70.0303 167.363V160.886Z" fill="#FCC842"/>
<path fill-rule="evenodd" clip-rule="evenodd" d="M72.5103 159.286L73.3253 158.749V165.226L72.5103 165.763V159.286Z" fill="#FCC842"/>
<path fill-rule="evenodd" clip-rule="evenodd" d="M74.9902 157.667L75.8053 157.13V163.606L74.9902 164.144V157.667Z" fill="#FCC842"/>
<path fill-rule="evenodd" clip-rule="evenodd" d="M77.4707 156.061L78.2858 155.524V161.966L77.4707 162.538V156.061Z" fill="#FCC842"/>
<path fill-rule="evenodd" clip-rule="evenodd" d="M79.9502 154.452L80.7653 153.915V160.392L79.9502 160.929V154.452Z" fill="#FCC842"/>
<path fill-rule="evenodd" clip-rule="evenodd" d="M82.4297 152.858L83.2448 152.321V158.798L82.4297 159.335V152.858Z" fill="#FCC842"/>
<path fill-rule="evenodd" clip-rule="evenodd" d="M84.9102 151.23L85.7252 150.692V157.169L84.9102 157.707V151.23Z" fill="#FCC842"/>
<path fill-rule="evenodd" clip-rule="evenodd" d="M60.6069 172.518C61.9765 171.619 63.0868 169.774 63.0868 168.398C63.0868 167.022 61.9765 166.636 60.6069 167.536C59.2373 168.436 58.127 170.28 58.127 171.656C58.127 173.032 59.2373 173.418 60.6069 172.518Z" fill="#FCC842"/>
<path fill-rule="evenodd" clip-rule="evenodd" d="M174.515 90.9574V69.5335H253.377V90.9574L213.946 116.616L174.515 90.9574Z" fill="#0D4CC7"/>
<path fill-rule="evenodd" clip-rule="evenodd" d="M174.515 90.9574V69.5335L213.946 78.6536V116.616L174.515 90.9574Z" fill="#4181FF"/>
<path fill-rule="evenodd" clip-rule="evenodd" d="M174.516 69.5339L213.947 43.8755L253.378 69.5339L213.947 95.1922L174.516 69.5339Z" fill="#689BFF"/>
<path opacity="0.2" fill-rule="evenodd" clip-rule="evenodd" d="M174.533 80.8918V79.9393L213.949 106.237V107.209L174.533 80.8918Z" fill="url(#paint4_linear)"/>
<path fill-rule="evenodd" clip-rule="evenodd" d="M248.913 88.0091L249.9 76.2633L249.054 75.6843L217.169 96.3454V108.5L218.148 109.141L248.913 88.0091Z" fill="#4181FF"/>
<path fill-rule="evenodd" clip-rule="evenodd" d="M249.905 88.5073V76.2598L218.162 96.8436V109.142L249.905 88.5073Z" fill="#0D4CC7"/>
<path fill-rule="evenodd" clip-rule="evenodd" d="M227.585 93.7744L228.401 93.2373V99.7141L227.585 100.251V93.7744Z" fill="#FCC842"/>
<path fill-rule="evenodd" clip-rule="evenodd" d="M230.065 92.1321L230.881 91.595V98.0718L230.065 98.609V92.1321Z" fill="#FCC842"/>
<path fill-rule="evenodd" clip-rule="evenodd" d="M232.545 90.5222L233.36 89.985V96.4619L232.545 96.9991V90.5222Z" fill="#FCC842"/>
<path fill-rule="evenodd" clip-rule="evenodd" d="M235.025 88.9225L235.84 88.3853V94.8622L235.025 95.3993V88.9225Z" fill="#FCC842"/>
<path fill-rule="evenodd" clip-rule="evenodd" d="M237.505 87.3033L238.32 86.7661V93.243L237.505 93.7802V87.3033Z" fill="#FCC842"/>
<path fill-rule="evenodd" clip-rule="evenodd" d="M239.985 85.6975L240.8 85.1603V91.6025L239.985 92.1744V85.6975Z" fill="#FCC842"/>
<path fill-rule="evenodd" clip-rule="evenodd" d="M242.465 84.089L243.28 83.5518V90.0287L242.465 90.5659V84.089Z" fill="#FCC842"/>
<path fill-rule="evenodd" clip-rule="evenodd" d="M244.945 82.4948L245.76 81.9577V88.4345L244.945 88.9717V82.4948Z" fill="#FCC842"/>
<path fill-rule="evenodd" clip-rule="evenodd" d="M247.425 80.8662L248.24 80.3291V86.8059L247.425 87.3431V80.8662Z" fill="#FCC842"/>
<path fill-rule="evenodd" clip-rule="evenodd" d="M223.122 102.155C224.491 101.255 225.601 99.4105 225.601 98.0347C225.601 96.6589 224.491 96.2729 223.122 97.1726C221.752 98.0722 220.642 99.9168 220.642 101.293C220.642 102.668 221.752 103.054 223.122 102.155Z" fill="#FCC842"/>
<path fill-rule="evenodd" clip-rule="evenodd" d="M179.475 70.0555V53.5732H187.906V70.0555L183.69 72.7722L179.475 70.0555Z" fill="#7CF5FF"/>
<path fill-rule="evenodd" clip-rule="evenodd" d="M183.69 53.5732H187.906V70.0555L183.69 72.7722V53.5732Z" fill="#00EBFF"/>
<path fill-rule="evenodd" clip-rule="evenodd" d="M179.475 53.5672L183.691 50.8505L187.907 53.5672L183.691 56.284L179.475 53.5672Z" fill="#00EBFF"/>
<path fill-rule="evenodd" clip-rule="evenodd" d="M209.73 88.9879V72.5056H218.162V88.9879L213.946 91.7046L209.73 88.9879Z" fill="#7CF5FF"/>
<path fill-rule="evenodd" clip-rule="evenodd" d="M213.946 78.0165L209.73 72.5056H218.162V88.9879L213.946 91.7046V78.0165Z" fill="#00EBFF"/>
<path fill-rule="evenodd" clip-rule="evenodd" d="M209.73 72.4997L213.946 69.783L218.162 72.4997L213.946 75.2164L209.73 72.4997Z" fill="#00EBFF"/>
<path fill-rule="evenodd" clip-rule="evenodd" d="M239.985 69.5573V53.075H248.417V69.5573L244.201 72.274L239.985 69.5573Z" fill="#7CF5FF"/>
<path fill-rule="evenodd" clip-rule="evenodd" d="M244.201 58.5859L239.985 53.075H248.417V69.5573L244.201 72.274V58.5859Z" fill="#00EBFF"/>
<path fill-rule="evenodd" clip-rule="evenodd" d="M239.985 53.069L244.201 50.3523L248.417 53.069L244.201 55.7858L239.985 53.069Z" fill="#00EBFF"/>
<path fill-rule="evenodd" clip-rule="evenodd" d="M174.515 56.0819V34.658H253.377V56.0819L213.946 81.7402L174.515 56.0819Z" fill="#0D4CC7"/>
<path fill-rule="evenodd" clip-rule="evenodd" d="M174.515 56.0819V34.658L213.946 43.7781V81.7402L174.515 56.0819Z" fill="#4181FF"/>
<path fill-rule="evenodd" clip-rule="evenodd" d="M174.516 34.6584L213.947 9L253.378 34.6584L213.947 60.3167L174.516 34.6584Z" fill="#689BFF"/>
<path opacity="0.2" fill-rule="evenodd" clip-rule="evenodd" d="M174.533 46.0164V45.0638L213.949 71.3618V72.3339L174.533 46.0164Z" fill="url(#paint5_linear)"/>
<path opacity="0.2" fill-rule="evenodd" clip-rule="evenodd" d="M187.083 35.1076L214.49 17.1716L214.857 17.396L187.435 35.3413L187.083 35.1076ZM192.37 38.5608L219.797 20.6126L220.145 20.8492L192.734 38.7868L192.37 38.5608ZM197.59 41.9691L225.021 24.0176L225.364 24.2575L197.955 42.1945L197.59 41.9691ZM202.809 45.3774L230.245 27.4229L230.583 27.6659L203.162 45.6103L202.809 45.3774ZM208.028 48.7858L235.447 30.8427L235.802 31.0742L208.379 49.0205L208.028 48.7858ZM213.248 52.1941L240.673 34.2466L241.022 34.4825L213.597 52.4314L213.248 52.1941Z" fill="url(#paint6_linear)"/>
<path fill-rule="evenodd" clip-rule="evenodd" d="M248.913 53.1335L249.9 41.3877L249.054 40.8088L217.169 61.4699V73.6243L218.148 74.2654L248.913 53.1335Z" fill="#4181FF"/>
<path fill-rule="evenodd" clip-rule="evenodd" d="M249.905 53.6318V41.3843L218.162 61.9681V74.2669L249.905 53.6318Z" fill="#0D4CC7"/>
<path fill-rule="evenodd" clip-rule="evenodd" d="M227.585 58.8989L228.401 58.3618V64.8386L227.585 65.3758V58.8989Z" fill="#FCC842"/>
<path fill-rule="evenodd" clip-rule="evenodd" d="M230.065 57.2566L230.881 56.7195V63.1963L230.065 63.7335V57.2566Z" fill="#FCC842"/>
<path fill-rule="evenodd" clip-rule="evenodd" d="M232.545 55.6467L233.36 55.1095V61.5864L232.545 62.1236V55.6467Z" fill="#FCC842"/>
<path fill-rule="evenodd" clip-rule="evenodd" d="M235.025 54.0469L235.84 53.5098V59.9866L235.025 60.5238V54.0469Z" fill="#FCC842"/>
<path fill-rule="evenodd" clip-rule="evenodd" d="M237.505 52.4278L238.32 51.8906V58.3675L237.505 58.9046V52.4278Z" fill="#FCC842"/>
<path fill-rule="evenodd" clip-rule="evenodd" d="M239.985 50.822L240.8 50.2848V56.7269L239.985 57.2988V50.822Z" fill="#FCC842"/>
<path fill-rule="evenodd" clip-rule="evenodd" d="M242.465 49.2135L243.28 48.6763V55.1532L242.465 55.6904V49.2135Z" fill="#FCC842"/>
<path fill-rule="evenodd" clip-rule="evenodd" d="M244.945 47.6194L245.76 47.0822V53.5591L244.945 54.0962V47.6194Z" fill="#FCC842"/>
<path fill-rule="evenodd" clip-rule="evenodd" d="M247.425 45.9907L248.24 45.4536V51.9304L247.425 52.4676V45.9907Z" fill="#FCC842"/>
<path fill-rule="evenodd" clip-rule="evenodd" d="M223.122 67.2792C224.491 66.3796 225.601 64.535 225.601 63.1592C225.601 61.7834 224.491 61.3974 223.122 62.297C221.752 63.1967 220.642 65.0413 220.642 66.4171C220.642 67.7929 221.752 68.1789 223.122 67.2792Z" fill="#FCC842"/>
<path fill-rule="evenodd" clip-rule="evenodd" d="M174.515 325.342V303.918H253.377V325.342L213.946 351L174.515 325.342Z" fill="#0D4CC7"/>
<path fill-rule="evenodd" clip-rule="evenodd" d="M174.515 325.342V303.918L213.946 313.038V351L174.515 325.342Z" fill="#4181FF"/>
<path fill-rule="evenodd" clip-rule="evenodd" d="M174.516 303.918L213.947 278.26L253.378 303.918L213.947 329.577L174.516 303.918Z" fill="#689BFF"/>
<path opacity="0.2" fill-rule="evenodd" clip-rule="evenodd" d="M174.533 315.276V314.324L213.949 340.622V341.594L174.533 315.276Z" fill="url(#paint7_linear)"/>
<path fill-rule="evenodd" clip-rule="evenodd" d="M248.913 322.393L249.9 310.648L249.054 310.069L217.169 330.73V342.884L218.148 343.525L248.913 322.393Z" fill="#4181FF"/>
<path fill-rule="evenodd" clip-rule="evenodd" d="M249.905 322.892V310.644L218.162 331.228V343.527L249.905 322.892Z" fill="#0D4CC7"/>
<path fill-rule="evenodd" clip-rule="evenodd" d="M227.585 328.159L228.401 327.622V334.098L227.585 334.636V328.159Z" fill="#FCC842"/>
<path fill-rule="evenodd" clip-rule="evenodd" d="M230.065 326.516L230.881 325.979V332.456L230.065 332.993V326.516Z" fill="#FCC842"/>
<path fill-rule="evenodd" clip-rule="evenodd" d="M232.545 324.907L233.36 324.369V330.846L232.545 331.383V324.907Z" fill="#FCC842"/>
<path fill-rule="evenodd" clip-rule="evenodd" d="M235.025 323.307L235.84 322.77V329.246L235.025 329.784V323.307Z" fill="#FCC842"/>
<path fill-rule="evenodd" clip-rule="evenodd" d="M237.505 321.688L238.32 321.15V327.627L237.505 328.164V321.688Z" fill="#FCC842"/>
<path fill-rule="evenodd" clip-rule="evenodd" d="M239.985 320.082L240.8 319.545V325.987L239.985 326.559V320.082Z" fill="#FCC842"/>
<path fill-rule="evenodd" clip-rule="evenodd" d="M242.465 318.473L243.28 317.936V324.413L242.465 324.95V318.473Z" fill="#FCC842"/>
<path fill-rule="evenodd" clip-rule="evenodd" d="M244.945 316.879L245.76 316.342V322.819L244.945 323.356V316.879Z" fill="#FCC842"/>
<path fill-rule="evenodd" clip-rule="evenodd" d="M247.425 315.251L248.24 314.713V321.19L247.425 321.727V315.251Z" fill="#FCC842"/>
<path fill-rule="evenodd" clip-rule="evenodd" d="M223.122 336.539C224.491 335.639 225.601 333.795 225.601 332.419C225.601 331.043 224.491 330.657 223.122 331.557C221.752 332.456 220.642 334.301 220.642 335.677C220.642 337.053 221.752 337.439 223.122 336.539Z" fill="#FCC842"/>
<path fill-rule="evenodd" clip-rule="evenodd" d="M179.475 304.44V287.958H187.906V304.44L183.69 307.157L179.475 304.44Z" fill="#7CF5FF"/>
<path fill-rule="evenodd" clip-rule="evenodd" d="M183.69 287.958H187.906V304.44L183.69 307.157V287.958Z" fill="#00EBFF"/>
<path fill-rule="evenodd" clip-rule="evenodd" d="M179.475 287.952L183.691 285.235L187.907 287.952L183.691 290.668L179.475 287.952Z" fill="#00EBFF"/>
<path fill-rule="evenodd" clip-rule="evenodd" d="M209.73 323.372V306.89H218.162V323.372L213.946 326.089L209.73 323.372Z" fill="#7CF5FF"/>
<path fill-rule="evenodd" clip-rule="evenodd" d="M213.946 312.401L209.73 306.89H218.162V323.372L213.946 326.089V312.401Z" fill="#00EBFF"/>
<path fill-rule="evenodd" clip-rule="evenodd" d="M209.73 306.884L213.946 304.167L218.162 306.884L213.946 309.601L209.73 306.884Z" fill="#00EBFF"/>
<path fill-rule="evenodd" clip-rule="evenodd" d="M239.985 303.942V287.459H248.417V303.942L244.201 306.658L239.985 303.942Z" fill="#7CF5FF"/>
<path fill-rule="evenodd" clip-rule="evenodd" d="M244.201 292.97L239.985 287.459H248.417V303.942L244.201 306.658V292.97Z" fill="#00EBFF"/>
<path fill-rule="evenodd" clip-rule="evenodd" d="M239.985 287.453L244.201 284.737L248.417 287.453L244.201 290.17L239.985 287.453Z" fill="#00EBFF"/>
<path fill-rule="evenodd" clip-rule="evenodd" d="M174.515 290.466V269.042H253.377V290.466L213.946 316.125L174.515 290.466Z" fill="#0D4CC7"/>
<path fill-rule="evenodd" clip-rule="evenodd" d="M174.515 290.466V269.042L213.946 278.162V316.125L174.515 290.466Z" fill="#4181FF"/>
<path fill-rule="evenodd" clip-rule="evenodd" d="M174.516 269.043L213.947 243.384L253.378 269.043L213.947 294.701L174.516 269.043Z" fill="#689BFF"/>
<path opacity="0.2" fill-rule="evenodd" clip-rule="evenodd" d="M174.533 280.401V279.448L213.949 305.746V306.718L174.533 280.401Z" fill="url(#paint8_linear)"/>
<path opacity="0.2" fill-rule="evenodd" clip-rule="evenodd" d="M187.083 269.492L214.49 251.556L214.857 251.78L187.435 269.726L187.083 269.492ZM192.37 272.945L219.797 254.997L220.145 255.234L192.734 273.171L192.37 272.945ZM197.59 276.353L225.021 258.402L225.364 258.642L197.955 276.579L197.59 276.353ZM202.809 279.762L230.245 261.807L230.583 262.05L203.162 279.995L202.809 279.762ZM208.028 283.17L235.447 265.227L235.802 265.459L208.379 283.405L208.028 283.17ZM213.248 286.578L240.673 268.631L241.022 268.867L213.597 286.816L213.248 286.578Z" fill="url(#paint9_linear)"/>
<path fill-rule="evenodd" clip-rule="evenodd" d="M248.913 287.518L249.9 275.772L249.054 275.193L217.169 295.854V308.009L218.148 308.65L248.913 287.518Z" fill="#4181FF"/>
<path fill-rule="evenodd" clip-rule="evenodd" d="M249.905 288.016V275.769L218.162 296.352V308.651L249.905 288.016Z" fill="#0D4CC7"/>
<path fill-rule="evenodd" clip-rule="evenodd" d="M227.585 293.283L228.401 292.746V299.223L227.585 299.76V293.283Z" fill="#FCC842"/>
<path fill-rule="evenodd" clip-rule="evenodd" d="M230.065 291.641L230.881 291.104V297.581L230.065 298.118V291.641Z" fill="#FCC842"/>
<path fill-rule="evenodd" clip-rule="evenodd" d="M232.545 290.031L233.36 289.494V295.971L232.545 296.508V290.031Z" fill="#FCC842"/>
<path fill-rule="evenodd" clip-rule="evenodd" d="M235.025 288.431L235.84 287.894V294.371L235.025 294.908V288.431Z" fill="#FCC842"/>
<path fill-rule="evenodd" clip-rule="evenodd" d="M237.505 286.812L238.32 286.275V292.752L237.505 293.289V286.812Z" fill="#FCC842"/>
<path fill-rule="evenodd" clip-rule="evenodd" d="M239.985 285.206L240.8 284.669V291.111L239.985 291.683V285.206Z" fill="#FCC842"/>
<path fill-rule="evenodd" clip-rule="evenodd" d="M242.465 283.598L243.28 283.061V289.538L242.465 290.075V283.598Z" fill="#FCC842"/>
<path fill-rule="evenodd" clip-rule="evenodd" d="M244.945 282.004L245.76 281.466V287.943L244.945 288.481V282.004Z" fill="#FCC842"/>
<path fill-rule="evenodd" clip-rule="evenodd" d="M247.425 280.375L248.24 279.838V286.315L247.425 286.852V280.375Z" fill="#FCC842"/>
<path fill-rule="evenodd" clip-rule="evenodd" d="M223.122 301.664C224.491 300.764 225.601 298.919 225.601 297.544C225.601 296.168 224.491 295.782 223.122 296.681C221.752 297.581 220.642 299.426 220.642 300.801C220.642 302.177 221.752 302.563 223.122 301.664Z" fill="#FCC842"/>
<path fill-rule="evenodd" clip-rule="evenodd" d="M337.16 196.495V175.071H416.022V196.495L376.591 222.153L337.16 196.495Z" fill="#0D4CC7"/>
<path fill-rule="evenodd" clip-rule="evenodd" d="M337.16 196.495V175.071L376.591 184.191V222.153L337.16 196.495Z" fill="#4181FF"/>
<path fill-rule="evenodd" clip-rule="evenodd" d="M337.16 175.072L376.591 149.413L416.022 175.072L376.591 200.73L337.16 175.072Z" fill="#689BFF"/>
<path opacity="0.2" fill-rule="evenodd" clip-rule="evenodd" d="M337.179 186.429V185.477L376.595 211.775V212.747L337.179 186.429Z" fill="url(#paint10_linear)"/>
<path fill-rule="evenodd" clip-rule="evenodd" d="M411.558 193.547L412.546 181.801L411.7 181.222L379.815 201.883V214.038L380.793 214.679L411.558 193.547Z" fill="#4181FF"/>
<path fill-rule="evenodd" clip-rule="evenodd" d="M412.55 194.045V181.798L380.807 202.381V214.68L412.55 194.045Z" fill="#0D4CC7"/>
<path fill-rule="evenodd" clip-rule="evenodd" d="M390.231 199.312L391.046 198.775V205.252L390.231 205.789V199.312Z" fill="#FCC842"/>
<path fill-rule="evenodd" clip-rule="evenodd" d="M392.711 197.67L393.526 197.133V203.609L392.711 204.147V197.67Z" fill="#FCC842"/>
<path fill-rule="evenodd" clip-rule="evenodd" d="M395.191 196.06L396.006 195.523V202L395.191 202.537V196.06Z" fill="#FCC842"/>
<path fill-rule="evenodd" clip-rule="evenodd" d="M397.67 194.46L398.485 193.923V200.4L397.67 200.937V194.46Z" fill="#FCC842"/>
<path fill-rule="evenodd" clip-rule="evenodd" d="M400.15 192.841L400.965 192.304V198.781L400.15 199.318V192.841Z" fill="#FCC842"/>
<path fill-rule="evenodd" clip-rule="evenodd" d="M402.631 191.235L403.446 190.698V197.14L402.631 197.712V191.235Z" fill="#FCC842"/>
<path fill-rule="evenodd" clip-rule="evenodd" d="M405.11 189.627L405.925 189.09V195.566L405.11 196.104V189.627Z" fill="#FCC842"/>
<path fill-rule="evenodd" clip-rule="evenodd" d="M407.591 188.033L408.406 187.495V193.972L407.591 194.509V188.033Z" fill="#FCC842"/>
<path fill-rule="evenodd" clip-rule="evenodd" d="M410.07 186.404L410.885 185.867V192.344L410.07 192.881V186.404Z" fill="#FCC842"/>
<path fill-rule="evenodd" clip-rule="evenodd" d="M385.767 207.692C387.137 206.793 388.247 204.948 388.247 203.572C388.247 202.197 387.137 201.811 385.767 202.71C384.397 203.61 383.287 205.455 383.287 206.83C383.287 208.206 384.397 208.592 385.767 207.692Z" fill="#FCC842"/>
<path fill-rule="evenodd" clip-rule="evenodd" d="M342.12 175.593V159.111H350.551V175.593L346.336 178.31L342.12 175.593Z" fill="#7CF5FF"/>
<path fill-rule="evenodd" clip-rule="evenodd" d="M346.335 159.111H350.551V175.593L346.335 178.31V159.111Z" fill="#00EBFF"/>
<path fill-rule="evenodd" clip-rule="evenodd" d="M342.12 159.105L346.336 156.388L350.551 159.105L346.336 161.822L342.12 159.105Z" fill="#00EBFF"/>
<path fill-rule="evenodd" clip-rule="evenodd" d="M372.375 194.526V178.043H380.806V194.526L376.59 197.242L372.375 194.526Z" fill="#7CF5FF"/>
<path fill-rule="evenodd" clip-rule="evenodd" d="M376.59 183.554L372.375 178.043H380.806V194.526L376.59 197.242V183.554Z" fill="#00EBFF"/>
<path fill-rule="evenodd" clip-rule="evenodd" d="M372.375 178.037L376.59 175.321L380.806 178.037L376.59 180.754L372.375 178.037Z" fill="#00EBFF"/>
<path fill-rule="evenodd" clip-rule="evenodd" d="M402.63 175.095V158.613H411.062V175.095L406.846 177.812L402.63 175.095Z" fill="#7CF5FF"/>
<path fill-rule="evenodd" clip-rule="evenodd" d="M406.846 164.124L402.63 158.613H411.062V175.095L406.846 177.812V164.124Z" fill="#00EBFF"/>
<path fill-rule="evenodd" clip-rule="evenodd" d="M402.631 158.607L406.847 155.89L411.063 158.607L406.847 161.323L402.631 158.607Z" fill="#00EBFF"/>
<path fill-rule="evenodd" clip-rule="evenodd" d="M337.16 161.62V140.196H416.022V161.62L376.591 187.278L337.16 161.62Z" fill="#0D4CC7"/>
<path fill-rule="evenodd" clip-rule="evenodd" d="M337.16 161.62V140.196L376.591 149.316V187.278L337.16 161.62Z" fill="#4181FF"/>
<path fill-rule="evenodd" clip-rule="evenodd" d="M337.16 140.196L376.591 114.538L416.022 140.196L376.591 165.854L337.16 140.196Z" fill="#689BFF"/>
<path opacity="0.2" fill-rule="evenodd" clip-rule="evenodd" d="M337.179 151.554V150.602L376.595 176.9V177.872L337.179 151.554Z" fill="url(#paint11_linear)"/>
<path opacity="0.2" fill-rule="evenodd" clip-rule="evenodd" d="M349.728 140.645L377.135 122.709L377.502 122.934L350.08 140.879L349.728 140.645ZM355.015 144.099L382.442 126.15L382.79 126.387L355.379 144.325L355.015 144.099ZM360.235 147.507L387.666 129.555L388.009 129.795L360.6 147.732L360.235 147.507ZM365.454 150.915L392.89 132.961L393.228 133.204L365.807 151.148L365.454 150.915ZM370.673 154.323L398.092 136.38L398.447 136.612L371.024 154.558L370.673 154.323ZM375.893 157.732L403.318 139.784L403.667 140.02L376.242 157.969L375.893 157.732Z" fill="url(#paint12_linear)"/>
<path fill-rule="evenodd" clip-rule="evenodd" d="M411.558 158.671L412.546 146.925L411.7 146.346L379.815 167.008V179.162L380.793 179.803L411.558 158.671Z" fill="#4181FF"/>
<path fill-rule="evenodd" clip-rule="evenodd" d="M412.55 159.169V146.922L380.807 167.506V179.805L412.55 159.169Z" fill="#0D4CC7"/>
<path fill-rule="evenodd" clip-rule="evenodd" d="M390.231 164.437L391.046 163.899V170.376L390.231 170.914V164.437Z" fill="#FCC842"/>
<path fill-rule="evenodd" clip-rule="evenodd" d="M392.711 162.794L393.526 162.257V168.734L392.711 169.271V162.794Z" fill="#FCC842"/>
<path fill-rule="evenodd" clip-rule="evenodd" d="M395.191 161.184L396.006 160.647V167.124L395.191 167.661V161.184Z" fill="#FCC842"/>
<path fill-rule="evenodd" clip-rule="evenodd" d="M397.67 159.585L398.485 159.047V165.524L397.67 166.061V159.585Z" fill="#FCC842"/>
<path fill-rule="evenodd" clip-rule="evenodd" d="M400.15 157.965L400.965 157.428V163.905L400.15 164.442V157.965Z" fill="#FCC842"/>
<path fill-rule="evenodd" clip-rule="evenodd" d="M402.631 156.36L403.446 155.822V162.265L402.631 162.837V156.36Z" fill="#FCC842"/>
<path fill-rule="evenodd" clip-rule="evenodd" d="M405.11 154.751L405.925 154.214V160.691L405.11 161.228V154.751Z" fill="#FCC842"/>
<path fill-rule="evenodd" clip-rule="evenodd" d="M407.591 153.157L408.406 152.62V159.097L407.591 159.634V153.157Z" fill="#FCC842"/>
<path fill-rule="evenodd" clip-rule="evenodd" d="M410.07 151.528L410.885 150.991V157.468L410.07 158.005V151.528Z" fill="#FCC842"/>
<path fill-rule="evenodd" clip-rule="evenodd" d="M385.767 172.817C387.137 171.917 388.247 170.073 388.247 168.697C388.247 167.321 387.137 166.935 385.767 167.835C384.397 168.734 383.287 170.579 383.287 171.955C383.287 173.331 384.397 173.717 385.767 172.817Z" fill="#FCC842"/>
<path fill-rule="evenodd" clip-rule="evenodd" d="M183.52 229.095C200.36 240.09 227.663 240.09 244.503 229.095C261.343 218.1 261.343 200.274 244.503 189.279C227.663 178.284 200.36 178.284 183.52 189.279C166.68 200.274 166.68 218.1 183.52 229.095Z" fill="#0C44C5"/>
<path fill-rule="evenodd" clip-rule="evenodd" d="M183.52 225.212C200.36 236.207 227.663 236.207 244.503 225.212C261.343 214.217 261.343 196.39 244.503 185.395C227.663 174.4 200.36 174.4 183.52 185.395C166.68 196.39 166.68 214.217 183.52 225.212Z" fill="url(#paint13_linear)"/>
<path fill-rule="evenodd" clip-rule="evenodd" d="M178.032 177.103C177.959 189.411 177.959 197.597 178.032 201.661C178.14 207.57 181.652 213.458 188.569 217.967C202.62 227.127 225.402 227.127 239.454 217.967C246.396 213.441 249.909 207.526 249.991 201.595C250.047 197.546 250.047 189.887 249.991 178.618L178.032 177.103Z" fill="url(#paint14_linear)"/>
<path fill-rule="evenodd" clip-rule="evenodd" d="M188.569 194.667C202.621 203.827 225.403 203.827 239.454 194.667C253.506 185.507 253.506 170.656 239.454 161.496C225.403 152.336 202.621 152.336 188.569 161.496C174.517 170.656 174.517 185.507 188.569 194.667Z" fill="#4A87FF"/>
<path fill-rule="evenodd" clip-rule="evenodd" d="M192.369 191.479C204.322 199.837 223.701 199.837 235.654 191.479C242.037 187.017 245.011 181.074 244.578 175.232C244.326 171.832 244.326 141.928 244.578 85.5193H183.45C183.716 141.9 183.716 171.782 183.45 175.167C182.99 181.03 185.963 187.001 192.369 191.479Z" fill="url(#paint15_linear)"/>
<path opacity="0.3" fill-rule="evenodd" clip-rule="evenodd" d="M198.571 187.811C206.991 193.271 220.643 193.271 229.063 187.811C237.483 182.352 237.483 173.5 229.063 168.041C220.643 162.581 206.991 162.581 198.571 168.041C190.151 173.5 190.151 182.352 198.571 187.811Z" fill="#00EBFF"/>
<path fill-rule="evenodd" clip-rule="evenodd" d="M184.875 129.302C184.875 129.302 194.717 124.54 214.4 115.016C234.083 124.54 243.924 129.302 243.924 129.302C243.924 156.819 234.083 175.487 214.4 185.304C194.717 175.728 184.875 157.061 184.875 129.302Z" fill="url(#paint16_linear)"/>
<path fill-rule="evenodd" clip-rule="evenodd" d="M190.703 133.45C190.703 133.45 198.602 129.636 214.4 122.006C230.198 129.636 238.097 133.45 238.097 133.45C238.097 155.495 230.198 170.45 214.4 178.314C198.602 170.643 190.703 155.688 190.703 133.45ZM223.411 140.695L212.724 153.33L206.535 148.369L203.618 152.005L213.351 159.805L226.971 143.703L223.411 140.695Z" fill="url(#paint17_linear)"/>
<path d="M195.423 177.502C185.192 170.889 185.192 160.109 195.423 153.496C205.589 146.925 222.045 146.925 232.211 153.496C242.442 160.109 242.442 170.889 232.211 177.502C222.045 184.073 205.589 184.073 195.423 177.502ZM195.676 177.111C205.688 183.582 221.946 183.582 231.958 177.111C241.904 170.682 241.904 160.317 231.958 153.887C221.946 147.416 205.688 147.416 195.676 153.887C185.729 160.317 185.729 170.682 195.676 177.111Z" fill="url(#paint18_linear)"/>
<path d="M191.884 168.032C179.576 160.111 179.576 147.199 191.884 139.278C204.113 131.409 223.909 131.409 236.138 139.278C248.446 147.199 248.446 160.111 236.138 168.032C223.909 175.901 204.113 175.901 191.884 168.032ZM192.187 167.561C204.231 175.312 223.791 175.312 235.836 167.561C247.801 159.861 247.801 147.449 235.836 139.748C223.791 131.998 204.231 131.998 192.187 139.748C180.221 147.449 180.221 159.861 192.187 167.561Z" fill="url(#paint19_linear)"/>
<path d="M187.458 155.622C172.689 146.088 172.689 130.544 187.458 121.009C202.133 111.535 225.889 111.535 240.564 121.009C255.334 130.544 255.334 146.088 240.564 155.622C225.889 165.097 202.133 165.097 187.458 155.622ZM187.822 155.059C202.276 164.39 225.747 164.39 240.2 155.059C254.56 145.788 254.56 130.843 240.2 121.573C225.747 112.242 202.276 112.242 187.822 121.573C173.463 130.843 173.463 145.788 187.822 155.059Z" fill="url(#paint20_linear)"/>
<path fill-rule="evenodd" clip-rule="evenodd" d="M311.97 229.57C311.97 230.607 311.97 231.303 311.97 231.66C311.97 232.016 311.939 232.303 311.877 232.52C311.283 233.503 310.177 233.701 308.561 233.115L308.482 232.47C307.339 232.425 306.108 231.952 304.788 231.052C302.808 229.701 302.456 228.612 303.195 228.136C303.934 227.66 305.151 228.388 306.054 228.514C306.956 228.64 307.761 228.782 308.482 228.136C308.963 227.705 310.126 228.183 311.97 229.57Z" fill="#13027B"/>
<path fill-rule="evenodd" clip-rule="evenodd" d="M319.479 226.621C319.541 227.465 319.571 228.052 319.571 228.383C319.571 228.879 319.211 230.071 317.737 230.071C316.263 230.071 315.68 228.975 315.68 228.03C314.822 227.451 314.03 226.706 313.305 225.794C312.216 224.426 312.442 223.13 313.629 223.546C314.421 223.823 315.24 224.049 316.086 224.223L319.479 226.621Z" fill="#13027B"/>
<path fill-rule="evenodd" clip-rule="evenodd" d="M311.284 205.54C312.455 211.717 313.217 215.394 313.568 216.573C313.919 217.751 314.594 220.768 315.593 225.624C316.186 226.601 317.006 227.09 318.05 227.09C319.095 227.09 319.671 227.011 319.777 226.853C319.507 223.2 319.371 220.919 319.371 220.009C319.371 218.645 318.404 212.486 317.754 209.934C317.105 207.383 317.754 197.406 317.754 195.837C317.754 194.269 310.387 195.721 310.387 199.259C310.387 201.618 310.686 203.711 311.284 205.54Z" fill="url(#paint21_linear)"/>
<path fill-rule="evenodd" clip-rule="evenodd" d="M304.72 198.869C304.673 204.171 304.91 207.764 305.432 209.647C306.214 212.473 307.296 226.935 307.296 228.068C307.296 229.201 307.811 231.119 309.802 231.119C311.792 231.119 312.334 230.249 312.334 228.714C312.334 227.178 312.043 216.638 311.683 214.561C311.323 212.483 311.662 205.63 312.591 203.004C313.52 200.378 315.757 196.049 314.174 194.008C313.119 192.647 309.968 194.267 304.72 198.869Z" fill="url(#paint22_linear)"/>
<path fill-rule="evenodd" clip-rule="evenodd" d="M317.526 190.671C317.892 188.533 318.303 186.701 318.759 185.175C319.443 182.887 320.249 181.147 319.846 178.16C319.443 175.174 319.062 170.969 317.995 170.36C317.284 169.954 315.104 173.648 311.455 181.444L317.526 190.671Z" fill="url(#paint23_linear)"/>
<path fill-rule="evenodd" clip-rule="evenodd" d="M306.565 176.383L296.989 168.298L287.547 173.859L297.383 182.156L306.565 176.383Z" fill="#4181FF"/>
<path fill-rule="evenodd" clip-rule="evenodd" d="M297.615 180.7C297.461 180.081 297.125 179.601 296.608 179.262C295.833 178.754 295.439 178.574 295.154 178.091C294.868 177.607 294.327 177.59 294.327 178.091C294.327 178.591 294.665 178.824 294.823 179.262C294.929 179.555 295.039 179.779 295.154 179.936C294.461 179.499 293.883 179.112 293.42 178.775C292.958 178.438 292.425 178.024 291.821 177.534C291.623 177.81 291.623 178.086 291.821 178.362C292.119 178.775 292.296 179.022 292.296 179.559C292.296 180.096 292.197 181.159 293.42 181.56C294.644 181.961 296.04 182.629 296.608 183.036C296.987 183.308 297.323 182.529 297.615 180.7Z" fill="#BBFAFF"/>
<path fill-rule="evenodd" clip-rule="evenodd" d="M305.536 188.532C304.293 192.244 303.734 195.746 303.859 199.041C304.663 200.267 305.842 200.88 307.396 200.88C308.949 200.88 310.745 200.499 312.782 199.737C313.309 197.953 313.572 196.669 313.572 195.884C313.769 196.911 313.77 198.118 313.574 199.504C315.637 198.527 316.999 197.708 317.661 197.045C318.654 196.052 318.595 193.513 318.044 191.609C317.494 189.705 316.886 182.763 317.882 179.748C318.879 176.732 319.306 171.804 318.044 170.042C316.783 168.279 314.549 168.166 312.067 169.571C309.586 170.977 307.261 171.97 306.112 172.391C304.964 172.812 302.947 173.507 302.947 177.866C302.947 180.773 302.947 182.468 302.947 182.952L298.346 180.335C297.584 180.065 296.989 180.244 296.561 180.872C295.918 181.815 295.893 182.954 296.752 183.555C297.61 184.157 301.424 186.506 302.185 187.228C302.947 187.95 304.183 188.718 304.709 188.718C305.059 188.718 305.335 188.656 305.536 188.532Z" fill="url(#paint24_linear)"/>
<path fill-rule="evenodd" clip-rule="evenodd" d="M313.024 169.499C313.485 169.824 313.715 170.134 313.715 170.429C313.715 170.871 313.774 171.469 312.706 172.058C311.638 172.647 308.769 172.647 308.254 172.563C307.739 172.48 307.729 172.079 307.925 171.564C308.056 171.221 308.24 170.876 308.478 170.527L313.024 169.499Z" fill="url(#paint25_linear)"/>
<path fill-rule="evenodd" clip-rule="evenodd" d="M312.94 168.785C313.279 168.013 313.683 167.333 314.15 166.745C314.852 165.863 316.231 163.27 314.479 161.148C312.727 159.027 310.818 159.752 310.027 158.996C309.235 158.239 307.133 158.385 306.671 159.999C306.362 161.075 306.566 161.94 307.282 162.595C306.958 165.896 307.585 167.753 309.161 168.166C310.738 168.579 311.998 168.785 312.94 168.785Z" fill="#13027B"/>
<path fill-rule="evenodd" clip-rule="evenodd" d="M308.486 170.545C310.211 171.071 311.782 170.77 313.201 169.643L313.162 168.19C312.438 168.657 311.803 168.657 311.257 168.19C310.437 167.491 310.039 166.11 309.262 166.11C308.486 166.11 307.993 166.021 307.771 165C307.623 164.32 307.538 163.451 307.516 162.395C307.154 162.265 306.919 162.065 306.809 161.795C306.29 162.358 306.03 163.017 306.03 163.774C306.03 164.91 305.756 165.993 305.756 166.918C305.756 167.842 306.028 168.491 306.98 168.767C307.933 169.043 308.3 169.043 308.486 169.511C308.611 169.823 308.611 170.167 308.486 170.545Z" fill="#BBFAFF"/>
<path fill-rule="evenodd" clip-rule="evenodd" d="M116.97 107.036C118.271 110.678 119.759 113.387 121.432 115.163C120.505 116.277 119.673 116.548 118.937 115.976C117.528 114.883 116.215 112.947 114.998 110.168L114.136 107.036H116.97Z" fill="#BBFAFF"/>
<path fill-rule="evenodd" clip-rule="evenodd" d="M105.186 158.512C104.812 159.544 104.625 160.6 104.625 161.677C104.625 162.755 104.625 163.374 104.625 163.534H104.905L105.186 162.882C105.376 163.658 105.472 164.322 105.472 164.874C105.472 165.702 105.751 167.145 107.566 167.665C109.382 168.185 110.064 168.229 109.723 166.794C109.382 165.359 109.247 164.322 107.897 163.254C106.998 162.542 106.094 160.912 105.186 158.363V158.512Z" fill="#13027B"/>
<path fill-rule="evenodd" clip-rule="evenodd" d="M109.309 158.094C109.309 158.094 108.737 159.448 108.737 160.347C108.737 160.947 108.737 161.854 108.737 163.068H109.023L109.206 161.983C109.577 162.455 109.823 162.973 109.943 163.537C110.123 164.383 110.568 166.01 112.436 166.316C114.305 166.622 115.176 166.798 114.741 165.228C114.305 163.659 112.657 162.174 111.9 161.606C111.143 161.039 109.309 158.094 109.309 158.094Z" fill="#13027B"/>
<path fill-rule="evenodd" clip-rule="evenodd" d="M104.861 143.058C104.263 146.051 104.171 149.11 104.583 152.235C105.201 156.924 104.948 160.019 105.356 161.624C105.764 163.23 105.933 165.717 107.549 165.937C109.166 166.156 109.153 165.022 108.351 163.731C107.549 162.44 106.906 160.017 107.228 157.412C107.549 154.808 108.983 145.788 108.351 142.566C107.93 140.417 106.767 140.582 104.861 143.058Z" fill="#BBFAFF"/>
<path fill-rule="evenodd" clip-rule="evenodd" d="M108.016 145.696C108.486 148.395 108.798 150.838 108.954 153.025C109.187 156.305 108.887 159.803 109.451 160.527C110.015 161.252 110.399 163.068 110.998 163.925C111.598 164.783 112.318 165.145 113.399 164.836C114.48 164.528 112.87 162.475 112.28 161.501C111.69 160.527 111.033 157.646 111.466 154.754C111.899 151.862 112.814 142.092 111.906 140.864C111.301 140.046 110.004 141.656 108.016 145.696Z" fill="#BBFAFF"/>
<path fill-rule="evenodd" clip-rule="evenodd" d="M113.31 103.528C115.388 103.273 116.686 104.575 117.206 107.435L114.873 108.305L113.31 103.528Z" fill="url(#paint26_linear)"/>
<path fill-rule="evenodd" clip-rule="evenodd" d="M103.129 143.983C107.173 145.329 110.494 145.329 113.091 143.983C116.735 133.299 117.045 125.497 114.02 120.579H105.042C102.476 123.34 101.489 126.691 102.079 130.634C102.779 135.36 103.129 139.81 103.129 143.983Z" fill="url(#paint27_linear)"/>
<path fill-rule="evenodd" clip-rule="evenodd" d="M114.408 120.902C114.039 118.16 114.296 116.305 115.179 115.337C116.503 113.884 117.474 111.629 116.181 109.189C114.889 106.75 114.982 105.177 114.695 104.242C114.408 103.308 112.709 103.173 110.707 103.241C108.706 103.308 105.988 104.422 104.405 105.615C102.822 106.807 101.224 107.757 101.224 113.446C102.093 114.036 103.209 114.137 104.572 113.751C105.244 114.971 105.474 116.213 105.261 117.476C105.048 118.739 104.818 119.881 104.572 120.902C105.694 121.808 107.172 122.347 109.007 122.52C110.842 122.692 112.642 122.153 114.408 120.902Z" fill="url(#paint28_linear)"/>
<path fill-rule="evenodd" clip-rule="evenodd" d="M108.675 134.821L110.84 117.434L131.372 105.63L129.887 123.705L108.675 134.821Z" fill="#4181FF"/>
<path fill-rule="evenodd" clip-rule="evenodd" d="M115.279 98.5646C116.394 97.004 116.263 95.88 114.887 95.1925C114.669 94.0469 113.868 93.3012 112.483 92.9555C110.406 92.437 106.743 93.1707 105.873 96.0331C105.003 98.8955 106.645 102.331 108.312 102.541C109.424 102.681 111.746 101.356 115.279 98.5646Z" fill="#13027B"/>
<path fill-rule="evenodd" clip-rule="evenodd" d="M101.226 113.438L99.2524 121.69C99.3974 122.458 100.271 123.175 101.873 123.841C104.277 124.84 107.323 126.519 108.274 127.266C109.225 128.013 110.637 128.393 111.488 127.829C112.339 127.266 112.633 125.701 112.486 124.987C112.339 124.273 111.706 124.482 111.488 124.987C111.27 125.493 110.113 125.584 109.59 125.286C109.384 125.168 109.498 124.964 109.932 124.674C110.009 124.198 110.048 123.884 110.048 123.73C109.347 124.361 108.269 124.398 106.814 123.841C104.522 122.964 102.475 121.15 102.475 120.174C102.475 119.563 103.108 117.436 104.376 113.795C102.97 113.979 101.92 113.86 101.226 113.438Z" fill="#BBFAFF"/>
<path fill-rule="evenodd" clip-rule="evenodd" d="M115.411 97.2947C115.676 98.8434 115.278 100.204 114.959 101.323C114.641 102.442 114.353 104.073 111.753 103.864C111.765 104.129 111.893 104.607 112.137 105.297C112.504 106.332 113.592 107.378 113.379 109.965C111.026 108.835 109.606 107.901 109.118 107.165C108.386 106.061 107.15 105.519 107.601 103.444C108.051 101.37 108.101 101.184 107.851 99.9609C107.601 98.7375 107.213 97.6378 108.318 97.2947C109.423 96.9517 109.885 96.6829 110.677 95.8971C111.468 95.1113 115.145 95.7461 115.411 97.2947Z" fill="#BBFAFF"/>
<path fill-rule="evenodd" clip-rule="evenodd" d="M115.448 96.5107C114.667 99.1249 112.14 100.55 107.868 100.787C106.967 99.7825 106.517 98.8625 106.517 98.0273C106.517 96.7746 108.189 94.2269 111.804 94.2269C114.214 94.2269 115.429 94.9882 115.448 96.5107Z" fill="#13027B"/>
<path fill-rule="evenodd" clip-rule="evenodd" d="M106.967 99.1963C105.478 98.4115 104.734 98.711 104.734 100.095C104.734 102.171 105.78 104.371 101.909 105.694C102.861 104.052 103.033 102.558 102.426 101.213C101.515 99.1963 103.367 95.8589 106.967 98.338L107.411 99.2521L106.967 99.1963Z" fill="#13027B"/>
</g>
<defs>
<radialGradient id="paint0_radial" cx="0" cy="0" r="1" gradientUnits="userSpaceOnUse" gradientTransform="translate(-116.884 -121.111) rotate(-177.92) scale(105.533 66.8134)">
<stop stop-color="#00EBFF"/>
<stop offset="1" stop-color="#27A6FF" stop-opacity="0"/>
</radialGradient>
<linearGradient id="paint1_linear" x1="53.6612" y1="214.068" x2="17.0432" y2="161.558" gradientUnits="userSpaceOnUse">
<stop stop-color="#093CC3"/>
<stop offset="1" stop-color="#27A6FF"/>
</linearGradient>
<linearGradient id="paint2_linear" x1="53.6612" y1="179.193" x2="17.0432" y2="126.683" gradientUnits="userSpaceOnUse">
<stop stop-color="#093CC3"/>
<stop offset="1" stop-color="#27A6FF"/>
</linearGradient>
<linearGradient id="paint3_linear" x1="78.507" y1="133.713" x2="50.5842" y2="175.435" gradientUnits="userSpaceOnUse">
<stop stop-color="#004DB9"/>
<stop offset="1" stop-color="#116AD3"/>
</linearGradient>
<linearGradient id="paint4_linear" x1="216.176" y1="108.829" x2="179.558" y2="56.3194" gradientUnits="userSpaceOnUse">
<stop stop-color="#093CC3"/>
<stop offset="1" stop-color="#27A6FF"/>
</linearGradient>
<linearGradient id="paint5_linear" x1="216.176" y1="73.9538" x2="179.558" y2="21.444" gradientUnits="userSpaceOnUse">
<stop stop-color="#093CC3"/>
<stop offset="1" stop-color="#27A6FF"/>
</linearGradient>
<linearGradient id="paint6_linear" x1="241.022" y1="28.4744" x2="213.099" y2="70.1963" gradientUnits="userSpaceOnUse">
<stop stop-color="#004DB9"/>
<stop offset="1" stop-color="#116AD3"/>
</linearGradient>
<linearGradient id="paint7_linear" x1="216.176" y1="343.214" x2="179.558" y2="290.704" gradientUnits="userSpaceOnUse">
<stop stop-color="#093CC3"/>
<stop offset="1" stop-color="#27A6FF"/>
</linearGradient>
<linearGradient id="paint8_linear" x1="216.176" y1="308.338" x2="179.558" y2="255.828" gradientUnits="userSpaceOnUse">
<stop stop-color="#093CC3"/>
<stop offset="1" stop-color="#27A6FF"/>
</linearGradient>
<linearGradient id="paint9_linear" x1="241.022" y1="262.859" x2="213.099" y2="304.581" gradientUnits="userSpaceOnUse">
<stop stop-color="#004DB9"/>
<stop offset="1" stop-color="#116AD3"/>
</linearGradient>
<linearGradient id="paint10_linear" x1="378.822" y1="214.367" x2="342.204" y2="161.857" gradientUnits="userSpaceOnUse">
<stop stop-color="#093CC3"/>
<stop offset="1" stop-color="#27A6FF"/>
</linearGradient>
<linearGradient id="paint11_linear" x1="378.822" y1="179.491" x2="342.204" y2="126.982" gradientUnits="userSpaceOnUse">
<stop stop-color="#093CC3"/>
<stop offset="1" stop-color="#27A6FF"/>
</linearGradient>
<linearGradient id="paint12_linear" x1="403.667" y1="134.012" x2="375.744" y2="175.734" gradientUnits="userSpaceOnUse">
<stop stop-color="#004DB9"/>
<stop offset="1" stop-color="#116AD3"/>
</linearGradient>
<linearGradient id="paint13_linear" x1="257.133" y1="224.318" x2="167.535" y2="145.55" gradientUnits="userSpaceOnUse">
<stop stop-color="#4181FF"/>
<stop offset="1" stop-color="#689BFF"/>
</linearGradient>
<linearGradient id="paint14_linear" x1="259.203" y1="237.225" x2="214.746" y2="167.887" gradientUnits="userSpaceOnUse">
<stop stop-color="#093CC3"/>
<stop offset="1" stop-color="#0D4CC7"/>
</linearGradient>
<linearGradient id="paint15_linear" x1="214.012" y1="187.321" x2="214.012" y2="110.817" gradientUnits="userSpaceOnUse">
<stop stop-color="#02C9F4" stop-opacity="0.509737"/>
<stop offset="1" stop-color="#00EBFF" stop-opacity="0"/>
</linearGradient>
<linearGradient id="paint16_linear" x1="258.97" y1="168.167" x2="162.258" y2="149.191" gradientUnits="userSpaceOnUse">
<stop stop-color="#0D4CC7"/>
<stop offset="1" stop-color="#689BFF"/>
</linearGradient>
<linearGradient id="paint17_linear" x1="214.4" y1="122.006" x2="214.4" y2="178.314" gradientUnits="userSpaceOnUse">
<stop stop-color="#FFEC89"/>
<stop offset="1" stop-color="#FCC842"/>
</linearGradient>
<linearGradient id="paint18_linear" x1="213.817" y1="160.622" x2="213.817" y2="169.42" gradientUnits="userSpaceOnUse">
<stop stop-color="#00F7FF" stop-opacity="0"/>
<stop offset="1" stop-color="#C6FBFF"/>
</linearGradient>
<linearGradient id="paint19_linear" x1="214.011" y1="147.247" x2="214.011" y2="158.351" gradientUnits="userSpaceOnUse">
<stop stop-color="#00F7FF" stop-opacity="0"/>
<stop offset="1" stop-color="#C6FBFF"/>
</linearGradient>
<linearGradient id="paint20_linear" x1="214.011" y1="121.626" x2="214.011" y2="143.969" gradientUnits="userSpaceOnUse">
<stop stop-color="#00F7FF" stop-opacity="0"/>
<stop offset="1" stop-color="#C6FBFF"/>
</linearGradient>
<linearGradient id="paint21_linear" x1="318.716" y1="197.222" x2="349.319" y2="194.021" gradientUnits="userSpaceOnUse">
<stop stop-color="#001C96"/>
<stop offset="1" stop-color="#157EFF"/>
</linearGradient>
<linearGradient id="paint22_linear" x1="308.034" y1="205.345" x2="348.571" y2="202.8" gradientUnits="userSpaceOnUse">
<stop stop-color="#001C96"/>
<stop offset="1" stop-color="#157EFF"/>
</linearGradient>
<linearGradient id="paint23_linear" x1="310.138" y1="187.344" x2="330.62" y2="184.312" gradientUnits="userSpaceOnUse">
<stop stop-color="#001C96"/>
<stop offset="1" stop-color="#157EFF"/>
</linearGradient>
<linearGradient id="paint24_linear" x1="292.567" y1="195.601" x2="345.273" y2="182.449" gradientUnits="userSpaceOnUse">
<stop stop-color="#001C96"/>
<stop offset="1" stop-color="#157EFF"/>
</linearGradient>
<linearGradient id="paint25_linear" x1="304.351" y1="174.958" x2="308.362" y2="166.643" gradientUnits="userSpaceOnUse">
<stop stop-color="#093CC3"/>
<stop offset="1" stop-color="#27A6FF"/>
</linearGradient>
<linearGradient id="paint26_linear" x1="115.894" y1="105.53" x2="123.563" y2="101.829" gradientUnits="userSpaceOnUse">
<stop stop-color="#001C96"/>
<stop offset="1" stop-color="#157EFF"/>
</linearGradient>
<linearGradient id="paint27_linear" x1="118.274" y1="140.999" x2="84.8015" y2="134.119" gradientUnits="userSpaceOnUse">
<stop stop-color="#001C96"/>
<stop offset="1" stop-color="#157EFF"/>
</linearGradient>
<linearGradient id="paint28_linear" x1="119.204" y1="119.39" x2="83.7521" y2="109.274" gradientUnits="userSpaceOnUse">
<stop stop-color="#001C96"/>
<stop offset="1" stop-color="#157EFF"/>
</linearGradient>
</defs>
</svg>
