<svg width="30" height="30" viewBox="0 0 30 30" fill="none" xmlns="http://www.w3.org/2000/svg">
<path d="M10.5 9C10.5 9.82843 9.82843 10.5 9 10.5C8.17157 10.5 7.5 9.82843 7.5 9C7.5 8.17157 8.17157 7.5 9 7.5C9.82843 7.5 10.5 8.17157 10.5 9Z" fill="url(#paint0_linear)"/>
<path d="M14.5 9C14.5 9.82843 13.8284 10.5 13 10.5C12.1716 10.5 11.5 9.82843 11.5 9C11.5 8.17157 12.1716 7.5 13 7.5C13.8284 7.5 14.5 8.17157 14.5 9Z" fill="url(#paint1_linear)"/>
<path d="M18.5 9C18.5 9.82843 17.8284 10.5 17 10.5C16.1716 10.5 15.5 9.82843 15.5 9C15.5 8.17157 16.1716 7.5 17 7.5C17.8284 7.5 18.5 8.17157 18.5 9Z" fill="url(#paint2_linear)"/>
<path d="M16.5 21C16.5 21.8284 15.8284 22.5 15 22.5C14.1716 22.5 13.5 21.8284 13.5 21C13.5 20.1716 14.1716 19.5 15 19.5C15.8284 19.5 16.5 20.1716 16.5 21Z" fill="url(#paint3_linear)"/>
<path d="M10.5 19C10.5 19.8284 9.82843 20.5 9 20.5C8.17157 20.5 7.5 19.8284 7.5 19C7.5 18.1716 8.17157 17.5 9 17.5C9.82843 17.5 10.5 18.1716 10.5 19Z" fill="url(#paint4_linear)"/>
<path d="M22.5 9C22.5 9.82843 21.8284 10.5 21 10.5C20.1716 10.5 19.5 9.82843 19.5 9C19.5 8.17157 20.1716 7.5 21 7.5C21.8284 7.5 22.5 8.17157 22.5 9Z" fill="url(#paint5_linear)"/>
<path d="M22.5 17C22.5 17.8284 21.8284 18.5 21 18.5C20.1716 18.5 19.5 17.8284 19.5 17C19.5 16.1716 20.1716 15.5 21 15.5C21.8284 15.5 22.5 16.1716 22.5 17Z" fill="url(#paint6_linear)"/>
<path fill-rule="evenodd" clip-rule="evenodd" d="M21 9C21.2761 9 21.5 9.22386 21.5 9.5V11.5C21.5 12.8807 20.3807 14 19 14H16C15.7239 14 15.5 14.2239 15.5 14.5V16.5C15.5 16.7761 15.7239 17 16 17H20.5C20.7761 17 21 17.2239 21 17.5C21 17.7761 20.7761 18 20.5 18H16C15.7239 18 15.5 18.2239 15.5 18.5V21C15.5 21.2761 15.2761 21.5 15 21.5C14.7239 21.5 14.5 21.2761 14.5 21V18.5C14.5 18.2239 14.2761 18 14 18H10C9.90046 18 9.80772 18.0291 9.7298 18.0792C9.49758 18.2286 9.27614 18.5 9 18.5C8.72386 18.5 8.49184 18.27 8.58219 18.0091C8.78553 17.4217 9.34351 17 10 17H14C14.2761 17 14.5 16.7761 14.5 16.5V14.5C14.5 14.2239 14.2761 14 14 14H11C9.61929 14 8.5 12.8807 8.5 11.5V9.5C8.5 9.22386 8.72386 9 9 9C9.27614 9 9.5 9.22386 9.5 9.5V11.5C9.5 12.3284 10.1716 13 11 13H12C12.2761 13 12.5 12.7761 12.5 12.5V9.5C12.5 9.22386 12.7239 9 13 9C13.2761 9 13.5 9.22386 13.5 9.5V12.5C13.5 12.7761 13.7239 13 14 13H16C16.2761 13 16.5 12.7761 16.5 12.5V9.5C16.5 9.22386 16.7239 9 17 9C17.2761 9 17.5 9.22386 17.5 9.5V12.5C17.5 12.7761 17.7239 13 18 13H19C19.8284 13 20.5 12.3284 20.5 11.5V9.5C20.5 9.22386 20.7239 9 21 9Z" fill="url(#paint7_linear)"/>
<defs>
<linearGradient id="paint0_linear" x1="15" y1="7.5" x2="15" y2="22.5" gradientUnits="userSpaceOnUse">
<stop stop-color="#4181FF"/>
<stop offset="1" stop-color="#7018FF"/>
</linearGradient>
<linearGradient id="paint1_linear" x1="15" y1="7.5" x2="15" y2="22.5" gradientUnits="userSpaceOnUse">
<stop stop-color="#4181FF"/>
<stop offset="1" stop-color="#7018FF"/>
</linearGradient>
<linearGradient id="paint2_linear" x1="15" y1="7.5" x2="15" y2="22.5" gradientUnits="userSpaceOnUse">
<stop stop-color="#4181FF"/>
<stop offset="1" stop-color="#7018FF"/>
</linearGradient>
<linearGradient id="paint3_linear" x1="15" y1="7.5" x2="15" y2="22.5" gradientUnits="userSpaceOnUse">
<stop stop-color="#4181FF"/>
<stop offset="1" stop-color="#7018FF"/>
</linearGradient>
<linearGradient id="paint4_linear" x1="15" y1="7.5" x2="15" y2="22.5" gradientUnits="userSpaceOnUse">
<stop stop-color="#4181FF"/>
<stop offset="1" stop-color="#7018FF"/>
</linearGradient>
<linearGradient id="paint5_linear" x1="15" y1="7.5" x2="15" y2="22.5" gradientUnits="userSpaceOnUse">
<stop stop-color="#4181FF"/>
<stop offset="1" stop-color="#7018FF"/>
</linearGradient>
<linearGradient id="paint6_linear" x1="15" y1="7.5" x2="15" y2="22.5" gradientUnits="userSpaceOnUse">
<stop stop-color="#4181FF"/>
<stop offset="1" stop-color="#7018FF"/>
</linearGradient>
<linearGradient id="paint7_linear" x1="15" y1="7.5" x2="15" y2="22.5" gradientUnits="userSpaceOnUse">
<stop stop-color="#4181FF"/>
<stop offset="1" stop-color="#7018FF"/>
</linearGradient>
</defs>
</svg>
