<svg width="30" height="30" viewBox="0 0 30 30" fill="none" xmlns="http://www.w3.org/2000/svg">
<path fill-rule="evenodd" clip-rule="evenodd" d="M7.69214 9.00195C7.69214 7.89738 8.58757 7.00195 9.69214 7.00195H20.3075C21.4121 7.00195 22.3075 7.89738 22.3075 9.00195V15.6173C22.3075 16.7219 21.4121 17.6173 20.3075 17.6173H9.69214C8.58757 17.6173 7.69214 16.7219 7.69214 15.6173V9.00195ZM10.4998 8.00195C9.67133 8.00195 8.99976 8.67353 8.99976 9.50195C8.99976 10.3304 9.67133 11.002 10.4998 11.002C11.3282 11.002 11.9998 10.3304 11.9998 9.50195C11.9998 8.67353 11.3282 8.00195 10.4998 8.00195ZM13.9998 8.00195C13.4475 8.00195 12.9998 8.44967 12.9998 9.00195V10.002C12.9998 10.5542 13.4475 11.002 13.9998 11.002H19.9998C20.552 11.002 20.9998 10.5542 20.9998 10.002V9.00195C20.9998 8.44967 20.552 8.00195 19.9998 8.00195H13.9998ZM16.9998 15.002C16.9998 14.4497 17.4475 14.002 17.9998 14.002H19.9998C20.552 14.002 20.9998 14.4497 20.9998 15.002C20.9998 15.5542 20.552 16.002 19.9998 16.002H17.9998C17.4475 16.002 16.9998 15.5542 16.9998 15.002Z" fill="url(#paint0_linear)"/>
<path d="M11.7306 19.7698C11.7306 19.4299 11.4551 19.1544 11.1153 19.1544C10.7754 19.1544 10.4999 19.4299 10.4999 19.7698V22.3852C10.4999 22.7251 10.7754 23.0006 11.1153 23.0006C11.4551 23.0006 11.7306 22.7251 11.7306 22.3852V19.7698Z" fill="url(#paint1_linear)"/>
<path d="M8.88449 19.1544C9.22436 19.1544 9.49988 19.4299 9.49988 19.7698V22.3852C9.49988 22.7251 9.22436 23.0006 8.88449 23.0006C8.54462 23.0006 8.26911 22.7251 8.26911 22.3852V19.7698C8.26911 19.4299 8.54462 19.1544 8.88449 19.1544Z" fill="url(#paint2_linear)"/>
<path d="M13.5768 19.1544C13.9167 19.1544 14.1922 19.4299 14.1922 19.7698V22.3852C14.1922 22.7251 13.9167 23.0006 13.5768 23.0006C13.2369 23.0006 12.9614 22.7251 12.9614 22.3852V19.7698C12.9614 19.4299 13.2369 19.1544 13.5768 19.1544Z" fill="url(#paint3_linear)"/>
<path d="M16.6537 19.7698C16.6537 19.4299 16.3782 19.1544 16.0383 19.1544C15.6985 19.1544 15.4229 19.4299 15.4229 19.7698V22.3852C15.4229 22.7251 15.6985 23.0006 16.0383 23.0006C16.3782 23.0006 16.6537 22.7251 16.6537 22.3852V19.7698Z" fill="url(#paint4_linear)"/>
<path d="M19.0383 19.7698C19.0383 19.4299 18.7628 19.1544 18.4229 19.1544C18.0831 19.1544 17.8076 19.4299 17.8076 19.7698V22.3852C17.8076 22.7251 18.0831 23.0006 18.4229 23.0006C18.7628 23.0006 19.0383 22.7251 19.0383 22.3852V19.7698Z" fill="url(#paint5_linear)"/>
<path d="M20.8845 19.1544C21.2243 19.1544 21.4999 19.4299 21.4999 19.7698V22.3852C21.4999 22.7251 21.2243 23.0006 20.8845 23.0006C20.5446 23.0006 20.2691 22.7251 20.2691 22.3852V19.7698C20.2691 19.4299 20.5446 19.1544 20.8845 19.1544Z" fill="url(#paint6_linear)"/>
<defs>
<linearGradient id="paint0_linear" x1="14.9998" y1="7.00195" x2="14.9998" y2="23.0006" gradientUnits="userSpaceOnUse">
<stop stop-color="#4181FF"/>
<stop offset="1" stop-color="#FF6F79"/>
</linearGradient>
<linearGradient id="paint1_linear" x1="14.9998" y1="7.00195" x2="14.9998" y2="23.0006" gradientUnits="userSpaceOnUse">
<stop stop-color="#4181FF"/>
<stop offset="1" stop-color="#FF6F79"/>
</linearGradient>
<linearGradient id="paint2_linear" x1="14.9998" y1="7.00195" x2="14.9998" y2="23.0006" gradientUnits="userSpaceOnUse">
<stop stop-color="#4181FF"/>
<stop offset="1" stop-color="#FF6F79"/>
</linearGradient>
<linearGradient id="paint3_linear" x1="14.9998" y1="7.00195" x2="14.9998" y2="23.0006" gradientUnits="userSpaceOnUse">
<stop stop-color="#4181FF"/>
<stop offset="1" stop-color="#FF6F79"/>
</linearGradient>
<linearGradient id="paint4_linear" x1="14.9998" y1="7.00195" x2="14.9998" y2="23.0006" gradientUnits="userSpaceOnUse">
<stop stop-color="#4181FF"/>
<stop offset="1" stop-color="#FF6F79"/>
</linearGradient>
<linearGradient id="paint5_linear" x1="14.9998" y1="7.00195" x2="14.9998" y2="23.0006" gradientUnits="userSpaceOnUse">
<stop stop-color="#4181FF"/>
<stop offset="1" stop-color="#FF6F79"/>
</linearGradient>
<linearGradient id="paint6_linear" x1="14.9998" y1="7.00195" x2="14.9998" y2="23.0006" gradientUnits="userSpaceOnUse">
<stop stop-color="#4181FF"/>
<stop offset="1" stop-color="#FF6F79"/>
</linearGradient>
</defs>
</svg>
