<svg width="20" height="20" viewBox="0 0 20 20" fill="none" xmlns="http://www.w3.org/2000/svg">
<g opacity="0.4">
<path d="M12.9162 11.667H12.2579L12.0245 11.442C13.0245 10.2753 13.5412 8.68359 13.2579 6.99187C12.8662 4.67513 10.9329 2.82507 8.59955 2.54172C5.07454 2.10838 2.10788 5.07514 2.54121 8.60025C2.82454 10.9337 4.67455 12.8671 6.99121 13.2587C8.68288 13.5421 10.2745 13.0254 11.4412 12.0254L11.6662 12.2587V12.9171L15.2079 16.4588C15.5495 16.8005 16.1079 16.8005 16.4495 16.4588C16.7912 16.1172 16.7912 15.5588 16.4495 15.2171L12.9162 11.667ZM7.91621 11.667C5.84121 11.667 4.16621 9.99197 4.16621 7.9169C4.16621 5.84183 5.84121 4.16678 7.91621 4.16678C9.99121 4.16678 11.6662 5.84183 11.6662 7.9169C11.6662 9.99197 9.99121 11.667 7.91621 11.667Z" fill="#003A61"/>
</g>
</svg>
