<svg width="13" height="16" viewBox="0 0 13 16" fill="none" xmlns="http://www.w3.org/2000/svg">
<path d="M12.3825 1.22271C10.4975 0.419214 8.71 0 6.5 0C4.29 0 2.5025 0.454148 0.6175 1.22271C0.26 1.39738 0 1.78166 0 2.20087V8.76856C0 12.1921 4.55 15.0917 6.0775 15.8952C6.3375 16.0349 6.6625 16.0349 6.955 15.8952C8.45 15.0917 13 12.1921 13 8.76856V2.20087C13 1.78166 12.74 1.39738 12.3825 1.22271Z" fill="#00C3B3"/>
<path fill-rule="evenodd" clip-rule="evenodd" d="M10.7482 4.2184C11.0658 4.5269 11.0856 5.04791 10.7924 5.38212L6.09681 10.7351C5.9462 10.9067 5.73337 11.003 5.51134 10.9999C5.28931 10.9968 5.07899 10.8946 4.93277 10.7188L2.19365 7.42465C1.90903 7.08236 1.94199 6.56209 2.26727 6.26259C2.59255 5.96308 3.08697 5.99777 3.37159 6.34006L5.53731 8.94458L9.64233 4.26495C9.93549 3.93074 10.4306 3.9099 10.7482 4.2184Z" fill="white"/>
</svg>
