<svg width="62" height="28" viewBox="0 0 62 28" fill="none" xmlns="http://www.w3.org/2000/svg">
<g filter="url(#filter0_d)">
<rect x="4.5" y="0.5" width="53" height="19" rx="3.5" fill="url(#paint0_linear)" stroke="white"/>
<path d="M34.4047 12.5582L36.721 6.15332H39.0982L35.7701 14.6149H31.869L31.7715 6.15332H34.1609L34.1243 12.5582H34.4047Z" fill="white"/>
<path d="M42.4438 6.15332L40.9078 14.6149H38.7012L40.2495 6.15332H42.4438Z" fill="white"/>
<path d="M46.7504 12.0411H45.2997L44.8243 14.6149H42.6299L44.1782 6.15332H47.8964C48.8147 6.15332 49.469 6.35702 49.8591 6.76443C50.1435 7.07782 50.2858 7.47739 50.2858 7.96315C50.2858 8.12768 50.2695 8.30004 50.237 8.48024L49.9932 9.80823C49.8713 10.4585 49.5137 10.9952 48.9204 11.4183C48.3271 11.8335 47.6038 12.0411 46.7504 12.0411ZM47.1283 7.98665H46.0312L45.6289 10.2078H46.7139C47.3803 10.2078 47.7663 9.92184 47.872 9.3499L47.9573 8.86806C47.9736 8.79755 47.9817 8.70353 47.9817 8.58601C47.9817 8.46849 47.9207 8.33922 47.7988 8.19819C47.6769 8.05717 47.4534 7.98665 47.1283 7.98665Z" fill="white"/>
<rect x="11.7148" y="2.30762" width="15.4286" height="15.3846" fill="#FF0000" fill-opacity="0.01"/>
<path fill-rule="evenodd" clip-rule="evenodd" d="M23.5208 6.40587C23.5208 5.84281 23.9872 5.38477 24.5604 5.38477C25.1337 5.38477 25.6001 5.84281 25.6001 6.40587C25.6001 6.86128 25.293 7.24344 24.8729 7.37467L24.2599 12.1921H15.1117L14.4986 7.37467C14.0786 7.24344 13.7715 6.86128 13.7715 6.40587C13.7715 5.84281 14.2378 5.38477 14.8111 5.38477C15.3844 5.38477 15.8507 5.84281 15.8507 6.40587C15.8507 6.72325 15.6994 7.00371 15.4675 7.1911L17.26 8.68041L19.0294 7.1911C18.7974 7.00371 18.6461 6.72325 18.6461 6.40587C18.6461 5.84281 19.1125 5.38477 19.6858 5.38477C20.259 5.38477 20.7254 5.84281 20.7254 6.40587C20.7254 6.72325 20.5741 7.00371 20.3422 7.1911L22.1116 8.68041L23.904 7.1911C23.6721 7.00371 23.5208 6.72325 23.5208 6.40587ZM16.5671 10.8306C16.5671 11.0186 16.7222 11.171 16.9136 11.171C17.105 11.171 17.2601 11.0186 17.2601 10.8306C17.2601 10.6426 17.105 10.4903 16.9136 10.4903C16.7222 10.4903 16.5671 10.6426 16.5671 10.8306ZM19.6859 11.5114C19.1126 11.5114 18.6463 11.0534 18.6463 10.4903C18.6463 9.92725 19.1126 9.46921 19.6859 9.46921C20.2592 9.46921 20.7255 9.92725 20.7255 10.4903C20.7255 11.0534 20.2592 11.5114 19.6859 11.5114ZM22.1117 10.8306C22.1117 11.0186 22.2669 11.171 22.4582 11.171C22.6496 11.171 22.8048 11.0186 22.8048 10.8306C22.8048 10.6426 22.6496 10.4903 22.4582 10.4903C22.2669 10.4903 22.1117 10.6426 22.1117 10.8306ZM24.0054 12.9356H15.6344C15.2805 12.9356 14.9937 13.222 14.9937 13.5752C14.9937 13.9284 15.2805 14.2148 15.6344 14.2148H24.0054C24.3593 14.2148 24.6461 13.9284 24.6461 13.5752C24.6461 13.222 24.3593 12.9356 24.0054 12.9356ZM20.0799 10.7212C20.0799 10.9173 19.9033 11.0762 19.6856 11.0762C19.4678 11.0762 19.2913 10.9173 19.2913 10.7212C19.2913 10.5251 19.4678 10.3662 19.6856 10.3662C19.9033 10.3662 20.0799 10.5251 20.0799 10.7212Z" fill="white"/>
<mask id="mask0" mask-type="alpha" maskUnits="userSpaceOnUse" x="13" y="5" width="13" height="10">
<path fill-rule="evenodd" clip-rule="evenodd" d="M23.5208 6.40587C23.5208 5.84281 23.9872 5.38477 24.5604 5.38477C25.1337 5.38477 25.6001 5.84281 25.6001 6.40587C25.6001 6.86128 25.293 7.24344 24.8729 7.37467L24.2599 12.1921H15.1117L14.4986 7.37467C14.0786 7.24344 13.7715 6.86128 13.7715 6.40587C13.7715 5.84281 14.2378 5.38477 14.8111 5.38477C15.3844 5.38477 15.8507 5.84281 15.8507 6.40587C15.8507 6.72325 15.6994 7.00371 15.4675 7.1911L17.26 8.68041L19.0294 7.1911C18.7974 7.00371 18.6461 6.72325 18.6461 6.40587C18.6461 5.84281 19.1125 5.38477 19.6858 5.38477C20.259 5.38477 20.7254 5.84281 20.7254 6.40587C20.7254 6.72325 20.5741 7.00371 20.3422 7.1911L22.1116 8.68041L23.904 7.1911C23.6721 7.00371 23.5208 6.72325 23.5208 6.40587ZM16.5671 10.8306C16.5671 11.0186 16.7222 11.171 16.9136 11.171C17.105 11.171 17.2601 11.0186 17.2601 10.8306C17.2601 10.6426 17.105 10.4903 16.9136 10.4903C16.7222 10.4903 16.5671 10.6426 16.5671 10.8306ZM19.6859 11.5114C19.1126 11.5114 18.6463 11.0534 18.6463 10.4903C18.6463 9.92725 19.1126 9.46921 19.6859 9.46921C20.2592 9.46921 20.7255 9.92725 20.7255 10.4903C20.7255 11.0534 20.2592 11.5114 19.6859 11.5114ZM22.1117 10.8306C22.1117 11.0186 22.2669 11.171 22.4582 11.171C22.6496 11.171 22.8048 11.0186 22.8048 10.8306C22.8048 10.6426 22.6496 10.4903 22.4582 10.4903C22.2669 10.4903 22.1117 10.6426 22.1117 10.8306ZM24.0054 12.9356H15.6344C15.2805 12.9356 14.9937 13.222 14.9937 13.5752C14.9937 13.9284 15.2805 14.2148 15.6344 14.2148H24.0054C24.3593 14.2148 24.6461 13.9284 24.6461 13.5752C24.6461 13.222 24.3593 12.9356 24.0054 12.9356ZM20.0799 10.7212C20.0799 10.9173 19.9033 11.0762 19.6856 11.0762C19.4678 11.0762 19.2913 10.9173 19.2913 10.7212C19.2913 10.5251 19.4678 10.3662 19.6856 10.3662C19.9033 10.3662 20.0799 10.5251 20.0799 10.7212Z" fill="white"/>
</mask>
<g mask="url(#mask0)">
<rect x="11.7148" y="2.30762" width="15.4286" height="15.3846" fill="white"/>
<rect x="11.7148" y="2.30762" width="15.4286" height="15.3846" fill="white"/>
</g>
</g>
<defs>
<filter id="filter0_d" x="0" y="0" width="62" height="28" filterUnits="userSpaceOnUse" color-interpolation-filters="sRGB">
<feFlood flood-opacity="0" result="BackgroundImageFix"/>
<feColorMatrix in="SourceAlpha" type="matrix" values="0 0 0 0 0 0 0 0 0 0 0 0 0 0 0 0 0 0 127 0"/>
<feOffset dy="4"/>
<feGaussianBlur stdDeviation="2"/>
<feColorMatrix type="matrix" values="0 0 0 0 0 0 0 0 0 0 0 0 0 0 0 0 0 0 0.25 0"/>
<feBlend mode="normal" in2="BackgroundImageFix" result="effect1_dropShadow"/>
<feBlend mode="normal" in="SourceGraphic" in2="effect1_dropShadow" result="shape"/>
</filter>
<linearGradient id="paint0_linear" x1="58" y1="10" x2="4" y2="10" gradientUnits="userSpaceOnUse">
<stop stop-color="#FFAE57"/>
<stop offset="1" stop-color="#FFDA57"/>
</linearGradient>
</defs>
</svg>
