<svg width="122" height="32" viewBox="0 0 122 32" fill="none" xmlns="http://www.w3.org/2000/svg">
<path d="M0 19.0564C0 13.3835 0 10.5471 1.76233 8.78479C3.52465 7.02246 6.36107 7.02246 12.0339 7.02246H12.9436C18.6165 7.02246 21.4529 7.02246 23.2152 8.78479C24.9775 10.5471 24.9775 13.3835 24.9775 19.0564V19.9661C24.9775 25.6389 24.9775 28.4754 23.2152 30.2377C21.4529 32 18.6165 32 12.9436 32H12.0339C6.36107 32 3.52465 32 1.76233 30.2377C0 28.4754 0 25.6389 0 19.9661V19.0564Z" fill="white"/>
<path d="M7.02246 12.0339C7.02246 6.36107 7.02246 3.52465 8.78479 1.76233C10.5471 0 13.3835 0 19.0564 0H19.9661C25.6389 0 28.4754 0 30.2377 1.76233C32 3.52465 32 6.36107 32 12.0339V12.9436C32 18.6165 32 21.4529 30.2377 23.2152C28.4754 24.9775 25.6389 24.9775 19.9661 24.9775H19.0564C13.3835 24.9775 10.5471 24.9775 8.78479 23.2152C7.02246 21.4529 7.02246 18.6165 7.02246 12.9436V12.0339Z" fill="white"/>
<path d="M7.52246 12.0339C7.52246 10.2844 7.52259 8.81897 7.57333 7.57333C8.81897 7.52259 10.2844 7.52246 12.0339 7.52246H12.9437C15.7942 7.52246 17.8818 7.52352 19.4793 7.73829C21.0623 7.95113 22.0889 8.36556 22.8617 9.13834C23.6345 9.91112 24.0489 10.9377 24.2617 12.5208C24.4765 14.1182 24.4776 16.2058 24.4776 19.0564V19.9661C24.4776 21.7156 24.4774 23.1811 24.4267 24.4267C23.1811 24.4774 21.7156 24.4776 19.9661 24.4776H19.0564C16.2058 24.4776 14.1182 24.4765 12.5208 24.2617C10.9377 24.0489 9.91112 23.6345 9.13834 22.8617C8.36556 22.0889 7.95113 21.0623 7.73829 19.4793C7.52352 17.8818 7.52246 15.7942 7.52246 12.9437V12.0339Z" fill="white" stroke="#232B44"/>
<path d="M81.8262 15.0068V4.82324H77.4451V7.58287C77.4451 8.59161 77.1177 9.59506 76.3497 10.249C75.9256 10.6105 75.4506 10.9321 74.9246 11.2148C74.3987 11.4975 73.8235 11.7253 73.1994 11.8978C72.575 12.0707 71.9137 12.1571 71.2149 12.1571C70.3905 12.1571 69.6877 12.0707 69.1068 11.8978C68.5259 11.7253 68.0525 11.472 67.6877 11.1384C67.3226 10.8048 67.0556 10.3904 66.8868 9.89596C66.7179 9.40119 66.6335 8.83608 66.6335 8.19995V4.82324H62.2407V8.63576C62.2407 9.71909 62.3801 10.6929 62.6588 11.5565C62.9375 12.42 63.4065 13.397 64.0661 13.9976C64.7257 14.5982 65.6031 15.0575 66.6985 15.3757C67.7936 15.6936 69.1617 15.8524 70.8025 15.8524C72.2159 15.8524 73.4761 15.6621 74.5833 15.2813C75.6254 14.923 76.5321 14.2548 77.3031 13.6867C77.3308 13.6663 77.3583 13.646 77.3856 13.6259L77.4064 13.6105C77.4194 13.601 77.4323 13.5915 77.4451 13.5821V15.0068C77.4451 15.2111 77.4039 15.4308 77.3212 15.6663C77.2388 15.9018 77.0994 16.1393 76.9031 16.3788C76.7068 16.6184 76.4479 16.8498 76.1259 17.0736C75.804 17.2974 75.3996 17.4957 74.9129 17.6685C74.4262 17.841 73.851 17.9787 73.1877 18.0805C72.5241 18.1827 71.7566 18.2336 70.8853 18.2336C69.9587 18.2336 69.0813 18.1924 68.2529 18.11C67.4244 18.0276 66.6493 17.9137 65.927 17.7687C65.2048 17.6233 64.5351 17.4565 63.919 17.2679C63.3026 17.0796 62.7432 16.8793 62.2407 16.6676V20.6045C62.704 20.7696 63.2732 20.9207 63.9485 21.0581C64.6235 21.1954 65.3478 21.317 66.1213 21.4232C66.8945 21.529 67.6877 21.6114 68.5001 21.6704C69.3128 21.7294 70.0883 21.7588 70.8263 21.7588C72.5063 21.7588 74.0238 21.6094 75.3782 21.3113C76.7326 21.0128 77.8867 20.579 78.8407 20.0099C79.7944 19.4408 80.5308 18.6215 81.0487 17.7971C81.5669 16.9727 81.8262 16.0589 81.8262 15.0068Z" fill="white"/>
<path d="M46.1704 14.0554V5.04395H41.801V15.9141C41.801 16.8326 41.9283 17.6255 42.1836 18.2928C42.4389 18.9601 42.8492 19.5118 43.4144 19.9476C43.9798 20.3831 44.7078 20.705 45.5989 20.913C46.4903 21.121 48.0721 21.3254 49.7387 21.3254C51.4053 21.3254 58.0298 21.2252 58.0298 21.2252V17.3392H49.7387C49.0791 17.3392 48.5237 17.2923 48.0721 17.1978C47.6209 17.1037 47.2537 16.9802 46.971 16.7289C46.6883 16.4777 46.4843 16.138 46.3586 15.7103C46.233 15.2822 46.1704 14.7308 46.1704 14.0554Z" fill="white"/>
<path d="M90.0051 5.00736H85.6357V21.2621H90.0051V15.2271C90.0051 13.3749 90.7661 11.5565 92.2183 10.4068C93.1189 9.69393 93.962 9.20497 95.2881 8.84964C96.7557 8.45639 98.1964 8.34874 99.4814 8.48701C99.5848 8.50648 99.8528 8.5567 100.039 8.58916C100.227 8.62207 100.522 8.66999 100.522 8.66999V4.92368C98.8997 4.41382 96.8282 4.38354 94.7001 4.95377C92.7839 5.4672 91.151 6.37926 90.0051 7.47035V5.00736Z" fill="white"/>
<path fill-rule="evenodd" clip-rule="evenodd" d="M116.796 21.352H121.164V10.0975C121.164 9.05133 120.931 8.14961 120.463 7.39162C119.997 6.63399 119.349 6.00813 118.521 5.51406C117.693 5.01962 116.706 4.65521 115.56 4.42047C114.414 4.18573 113.162 4.06836 111.805 4.06836C111.114 4.06836 110.392 4.09928 109.639 4.16113C108.885 4.22298 108.14 4.30521 107.402 4.40818C106.664 4.51114 105.954 4.63272 105.271 4.77259C104.588 4.9128 103.972 5.05687 103.423 5.20517V9.28185C103.949 9.06785 104.533 8.86192 105.177 8.66443C105.821 8.46659 106.501 8.29369 107.219 8.1454C107.938 7.9971 108.683 7.87973 109.456 7.79329C110.229 7.70684 111.012 7.66362 111.805 7.66362C112.809 7.66362 113.635 7.72933 114.283 7.86111C114.93 7.99289 115.44 8.16402 115.813 8.37381C116.186 8.58395 116.443 8.82678 116.584 9.10298C116.726 9.37884 116.796 9.6568 116.796 9.93688V10.295C114.238 10.4433 112.023 10.6492 110.151 10.9127C108.279 11.1763 106.731 11.5509 105.506 12.0369C104.282 12.5229 103.372 13.1466 102.775 13.9085C102.179 14.6703 101.881 15.6237 101.881 16.7686C101.881 17.6745 102.071 18.4406 102.452 19.0665C102.832 19.6923 103.337 20.199 103.964 20.5859C104.592 20.9732 105.312 21.2533 106.125 21.4262C106.937 21.5991 107.779 21.6855 108.65 21.6855C109.395 21.6855 110.135 21.6423 110.869 21.5558C111.603 21.4694 112.315 21.3397 113.006 21.1668C113.696 20.9936 114.361 20.7838 115.001 20.5368C115.641 20.2897 116.239 20.0054 116.796 19.6842V21.352ZM116.796 13.6059V15.8419C116.372 16.155 115.892 16.4495 115.354 16.7254C114.817 17.0012 114.242 17.2402 113.63 17.4419C113.017 17.6436 112.37 17.8021 111.687 17.9177C111.004 18.033 110.306 18.0906 109.591 18.0906C108.948 18.0906 108.414 18.0495 107.99 17.9669C107.567 17.8847 107.227 17.7733 106.972 17.6334C106.717 17.4936 106.539 17.3309 106.436 17.1453C106.335 16.9601 106.283 16.7686 106.283 16.5711C106.283 16.4063 106.309 16.225 106.36 16.0275C106.411 15.8296 106.547 15.6321 106.766 15.4343C106.986 15.2368 107.317 15.0432 107.761 14.8538C108.204 14.6644 108.815 14.4873 109.591 14.3224C110.369 14.1576 111.344 14.0136 112.517 13.8902C113.69 13.7665 115.117 13.672 116.796 13.6059Z" fill="white"/>
<path d="M45.2501 26.9239H42.7664V24.5406H45.207V24.9713H43.4842V25.4882H45.0922V25.9332H43.4842V26.4932H45.2501V26.9239Z" fill="white"/>
<path d="M56.2399 26.9239H55.3498L54.7181 26.1486C54.699 26.1294 54.6655 26.0912 54.6176 26.0337C54.608 26.0146 54.5985 26.0002 54.5889 25.9907C54.5602 26.0481 54.5219 26.1007 54.474 26.1486L53.8423 26.9239H53.0097L54.1295 25.7322L53.0671 24.5406H53.9285L54.4597 25.2441C54.4693 25.2633 54.4836 25.2872 54.5028 25.3159C54.5315 25.3446 54.5698 25.3877 54.6176 25.4451C54.6655 25.3781 54.7133 25.3111 54.7612 25.2441L55.278 24.5406H56.1251L55.077 25.7322L56.2399 26.9239Z" fill="white"/>
<path d="M66.8996 25.2298L66.2105 25.3446C66.1052 25.0958 65.885 24.9665 65.55 24.957C65.0619 24.9761 64.8035 25.2298 64.7748 25.7179C64.7939 26.2156 65.0523 26.4788 65.55 26.5075C65.9425 26.4979 66.1722 26.3257 66.2392 25.9907L66.9283 26.1486C66.7752 26.6846 66.3157 26.9526 65.55 26.9526C64.5738 26.9143 64.0617 26.5027 64.0139 25.7179C64.0713 24.9522 64.5833 24.5454 65.55 24.4976C66.2392 24.5167 66.689 24.7608 66.8996 25.2298Z" fill="white"/>
<path d="M77.7315 26.9239H77.0137V25.9476H75.6354V26.9239H74.9176V24.5406H75.6354V25.4882H77.0137V24.5406H77.7315V26.9239Z" fill="white"/>
<path d="M88.8218 26.9239H88.0322L87.8025 26.3927H86.5965L86.3668 26.9239H85.5916L86.7688 24.5406H87.6302L88.8218 26.9239ZM87.6733 25.9763L87.2713 25.1723C87.2426 25.0958 87.2187 25.024 87.1995 24.957H87.1852C87.1756 25.0335 87.1517 25.1053 87.1134 25.1723L86.7545 25.9763H87.6733Z" fill="white"/>
<path d="M99.5246 26.9239H98.7924L97.5433 25.4308C97.5338 25.4212 97.5194 25.402 97.5003 25.3733C97.4428 25.2968 97.3998 25.2393 97.371 25.201C97.3806 25.268 97.3854 25.402 97.3854 25.603V26.9239H96.7106V24.5406H97.4859L98.6919 25.9907C98.7876 26.1151 98.845 26.1917 98.8642 26.2204C98.8546 26.1438 98.8498 26.0242 98.8498 25.8615V24.5406H99.5246V26.9239Z" fill="white"/>
<path d="M110.514 25.1005L109.854 25.2872C109.691 25.067 109.428 24.957 109.064 24.957C108.586 24.9953 108.327 25.2489 108.289 25.7179C108.308 26.2156 108.586 26.4788 109.122 26.5075C109.495 26.5075 109.749 26.4262 109.883 26.2634V25.9763H108.95V25.5312H110.543V26.4214C110.342 26.7755 109.859 26.9526 109.093 26.9526C108.088 26.9239 107.566 26.5123 107.528 25.7179C107.586 24.9522 108.093 24.5454 109.05 24.4976C109.768 24.4976 110.256 24.6986 110.514 25.1005Z" fill="white"/>
<path d="M121.074 26.9239H118.59V24.5406H121.03V24.9713H119.308V25.4882H120.916V25.9332H119.308V26.4932H121.074V26.9239Z" fill="white"/>
</svg>
